<?xml version="1.0" encoding="utf-8" standalone="no"?>
<!DOCTYPE svg PUBLIC "-//W3C//DTD SVG 1.1//EN"
  "http://www.w3.org/Graphics/SVG/1.1/DTD/svg11.dtd">
<!-- Created with matplotlib (https://matplotlib.org/) -->
<svg height="720pt" version="1.1" viewBox="0 0 720 720" width="720pt" xmlns="http://www.w3.org/2000/svg" xmlns:xlink="http://www.w3.org/1999/xlink">
 <defs>
  <style type="text/css">
*{stroke-linecap:butt;stroke-linejoin:round;}
  </style>
 </defs>
 <g id="figure_1">
  <g id="patch_1">
   <path d="M 0 720 
L 720 720 
L 720 0 
L 0 0 
z
" style="fill:#ffffff;"/>
  </g>
  <g id="axes_1">
   <g id="patch_2">
    <path d="M 55.361818 330.224545 
L 359.610909 330.224545 
L 359.610909 25.975455 
L 55.361818 25.975455 
z
" style="fill:#ffffff;"/>
   </g>
   <g id="PathCollection_1">
    <defs>
     <path d="M -8.282737 5.79518 
L -2.7102 3.008912 
L -3.186136 2.057041 
L -1.47085 1.199398 
L 0.524099 5.18927 
L 4.342278 3.280194 
L 5.087838 4.771314 
L 2.768652 5.930894 
L 4.187621 8.768831 
L 9.760174 5.982568 
L 8.3412 3.14462 
L 6.02203 4.304205 
L 5.27647 2.813085 
L 9.094643 0.903998 
L 4.637403 -8.010482 
L 0.819224 -6.101405 
L 0.077679 -7.584496 
L 2.396849 -8.744081 
L 0.977611 -11.582558 
L -4.594926 -8.796289 
L -3.175698 -5.957808 
L -0.856518 -7.117398 
L -0.114967 -5.634296 
L -3.933141 -3.72521 
L -1.938202 0.264668 
L -3.653509 1.122321 
L -4.129433 0.170445 
L -9.70198 2.956719 
L -8.282737 5.79518 
z
" id="m2f98899f0d" style="stroke:#0000ff;"/>
    </defs>
    <g clip-path="url(#p40d42ee917)"/>
   </g>
   <g id="patch_3">
    <path clip-path="url(#p40d42ee917)" d="M 345.122857 54.951558 
C 348.965133 54.951558 352.650557 53.425006 355.367457 50.708106 
C 358.084357 47.991207 359.610909 44.305783 359.610909 40.463506 
C 359.610909 36.62123 358.084357 32.935806 355.367457 30.218907 
C 352.650557 27.502007 348.965133 25.975455 345.122857 25.975455 
C 341.280581 25.975455 337.595157 27.502007 334.878257 30.218907 
C 332.161358 32.935806 330.634805 36.62123 330.634805 40.463506 
C 330.634805 44.305783 332.161358 47.991207 334.878257 50.708106 
C 337.595157 53.425006 341.280581 54.951558 345.122857 54.951558 
z
" style="fill:#bfbf00;stroke:#bfbf00;stroke-linejoin:miter;stroke-width:2;"/>
   </g>
   <g id="matplotlib.axis_1">
    <g id="xtick_1">
     <g id="line2d_1">
      <defs>
       <path d="M 0 0 
L 0 3.5 
" id="mf0c81520e8" style="stroke:#000000;stroke-width:0.8;"/>
      </defs>
      <g>
       <use style="stroke:#000000;stroke-width:0.8;" x="55.361818" xlink:href="#mf0c81520e8" y="330.224545"/>
      </g>
     </g>
     <g id="text_1">
      <!-- −4.0 -->
      <defs>
       <path d="M 10.59375 35.5 
L 73.1875 35.5 
L 73.1875 27.203125 
L 10.59375 27.203125 
z
" id="DejaVuSans-8722"/>
       <path d="M 37.796875 64.3125 
L 12.890625 25.390625 
L 37.796875 25.390625 
z
M 35.203125 72.90625 
L 47.609375 72.90625 
L 47.609375 25.390625 
L 58.015625 25.390625 
L 58.015625 17.1875 
L 47.609375 17.1875 
L 47.609375 0 
L 37.796875 0 
L 37.796875 17.1875 
L 4.890625 17.1875 
L 4.890625 26.703125 
z
" id="DejaVuSans-52"/>
       <path d="M 10.6875 12.40625 
L 21 12.40625 
L 21 0 
L 10.6875 0 
z
" id="DejaVuSans-46"/>
       <path d="M 31.78125 66.40625 
Q 24.171875 66.40625 20.328125 58.90625 
Q 16.5 51.421875 16.5 36.375 
Q 16.5 21.390625 20.328125 13.890625 
Q 24.171875 6.390625 31.78125 6.390625 
Q 39.453125 6.390625 43.28125 13.890625 
Q 47.125 21.390625 47.125 36.375 
Q 47.125 51.421875 43.28125 58.90625 
Q 39.453125 66.40625 31.78125 66.40625 
z
M 31.78125 74.21875 
Q 44.046875 74.21875 50.515625 64.515625 
Q 56.984375 54.828125 56.984375 36.375 
Q 56.984375 17.96875 50.515625 8.265625 
Q 44.046875 -1.421875 31.78125 -1.421875 
Q 19.53125 -1.421875 13.0625 8.265625 
Q 6.59375 17.96875 6.59375 36.375 
Q 6.59375 54.828125 13.0625 64.515625 
Q 19.53125 74.21875 31.78125 74.21875 
z
" id="DejaVuSans-48"/>
      </defs>
      <g transform="translate(43.220412 344.822983)scale(0.1 -0.1)">
       <use xlink:href="#DejaVuSans-8722"/>
       <use x="83.789062" xlink:href="#DejaVuSans-52"/>
       <use x="147.412109" xlink:href="#DejaVuSans-46"/>
       <use x="179.199219" xlink:href="#DejaVuSans-48"/>
      </g>
     </g>
    </g>
    <g id="xtick_2">
     <g id="line2d_2">
      <g>
       <use style="stroke:#000000;stroke-width:0.8;" x="91.581948" xlink:href="#mf0c81520e8" y="330.224545"/>
      </g>
     </g>
     <g id="text_2">
      <!-- −3.5 -->
      <defs>
       <path d="M 40.578125 39.3125 
Q 47.65625 37.796875 51.625 33 
Q 55.609375 28.21875 55.609375 21.1875 
Q 55.609375 10.40625 48.1875 4.484375 
Q 40.765625 -1.421875 27.09375 -1.421875 
Q 22.515625 -1.421875 17.65625 -0.515625 
Q 12.796875 0.390625 7.625 2.203125 
L 7.625 11.71875 
Q 11.71875 9.328125 16.59375 8.109375 
Q 21.484375 6.890625 26.8125 6.890625 
Q 36.078125 6.890625 40.9375 10.546875 
Q 45.796875 14.203125 45.796875 21.1875 
Q 45.796875 27.640625 41.28125 31.265625 
Q 36.765625 34.90625 28.71875 34.90625 
L 20.21875 34.90625 
L 20.21875 43.015625 
L 29.109375 43.015625 
Q 36.375 43.015625 40.234375 45.921875 
Q 44.09375 48.828125 44.09375 54.296875 
Q 44.09375 59.90625 40.109375 62.90625 
Q 36.140625 65.921875 28.71875 65.921875 
Q 24.65625 65.921875 20.015625 65.03125 
Q 15.375 64.15625 9.8125 62.3125 
L 9.8125 71.09375 
Q 15.4375 72.65625 20.34375 73.4375 
Q 25.25 74.21875 29.59375 74.21875 
Q 40.828125 74.21875 47.359375 69.109375 
Q 53.90625 64.015625 53.90625 55.328125 
Q 53.90625 49.265625 50.4375 45.09375 
Q 46.96875 40.921875 40.578125 39.3125 
z
" id="DejaVuSans-51"/>
       <path d="M 10.796875 72.90625 
L 49.515625 72.90625 
L 49.515625 64.59375 
L 19.828125 64.59375 
L 19.828125 46.734375 
Q 21.96875 47.46875 24.109375 47.828125 
Q 26.265625 48.1875 28.421875 48.1875 
Q 40.625 48.1875 47.75 41.5 
Q 54.890625 34.8125 54.890625 23.390625 
Q 54.890625 11.625 47.5625 5.09375 
Q 40.234375 -1.421875 26.90625 -1.421875 
Q 22.3125 -1.421875 17.546875 -0.640625 
Q 12.796875 0.140625 7.71875 1.703125 
L 7.71875 11.625 
Q 12.109375 9.234375 16.796875 8.0625 
Q 21.484375 6.890625 26.703125 6.890625 
Q 35.15625 6.890625 40.078125 11.328125 
Q 45.015625 15.765625 45.015625 23.390625 
Q 45.015625 31 40.078125 35.4375 
Q 35.15625 39.890625 26.703125 39.890625 
Q 22.75 39.890625 18.8125 39.015625 
Q 14.890625 38.140625 10.796875 36.28125 
z
" id="DejaVuSans-53"/>
      </defs>
      <g transform="translate(79.440542 344.822983)scale(0.1 -0.1)">
       <use xlink:href="#DejaVuSans-8722"/>
       <use x="83.789062" xlink:href="#DejaVuSans-51"/>
       <use x="147.412109" xlink:href="#DejaVuSans-46"/>
       <use x="179.199219" xlink:href="#DejaVuSans-53"/>
      </g>
     </g>
    </g>
    <g id="xtick_3">
     <g id="line2d_3">
      <g>
       <use style="stroke:#000000;stroke-width:0.8;" x="127.802078" xlink:href="#mf0c81520e8" y="330.224545"/>
      </g>
     </g>
     <g id="text_3">
      <!-- −3.0 -->
      <g transform="translate(115.660672 344.822983)scale(0.1 -0.1)">
       <use xlink:href="#DejaVuSans-8722"/>
       <use x="83.789062" xlink:href="#DejaVuSans-51"/>
       <use x="147.412109" xlink:href="#DejaVuSans-46"/>
       <use x="179.199219" xlink:href="#DejaVuSans-48"/>
      </g>
     </g>
    </g>
    <g id="xtick_4">
     <g id="line2d_4">
      <g>
       <use style="stroke:#000000;stroke-width:0.8;" x="164.022208" xlink:href="#mf0c81520e8" y="330.224545"/>
      </g>
     </g>
     <g id="text_4">
      <!-- −2.5 -->
      <defs>
       <path d="M 19.1875 8.296875 
L 53.609375 8.296875 
L 53.609375 0 
L 7.328125 0 
L 7.328125 8.296875 
Q 12.9375 14.109375 22.625 23.890625 
Q 32.328125 33.6875 34.8125 36.53125 
Q 39.546875 41.84375 41.421875 45.53125 
Q 43.3125 49.21875 43.3125 52.78125 
Q 43.3125 58.59375 39.234375 62.25 
Q 35.15625 65.921875 28.609375 65.921875 
Q 23.96875 65.921875 18.8125 64.3125 
Q 13.671875 62.703125 7.8125 59.421875 
L 7.8125 69.390625 
Q 13.765625 71.78125 18.9375 73 
Q 24.125 74.21875 28.421875 74.21875 
Q 39.75 74.21875 46.484375 68.546875 
Q 53.21875 62.890625 53.21875 53.421875 
Q 53.21875 48.921875 51.53125 44.890625 
Q 49.859375 40.875 45.40625 35.40625 
Q 44.1875 33.984375 37.640625 27.21875 
Q 31.109375 20.453125 19.1875 8.296875 
z
" id="DejaVuSans-50"/>
      </defs>
      <g transform="translate(151.880802 344.822983)scale(0.1 -0.1)">
       <use xlink:href="#DejaVuSans-8722"/>
       <use x="83.789062" xlink:href="#DejaVuSans-50"/>
       <use x="147.412109" xlink:href="#DejaVuSans-46"/>
       <use x="179.199219" xlink:href="#DejaVuSans-53"/>
      </g>
     </g>
    </g>
    <g id="xtick_5">
     <g id="line2d_5">
      <g>
       <use style="stroke:#000000;stroke-width:0.8;" x="200.242338" xlink:href="#mf0c81520e8" y="330.224545"/>
      </g>
     </g>
     <g id="text_5">
      <!-- −2.0 -->
      <g transform="translate(188.100931 344.822983)scale(0.1 -0.1)">
       <use xlink:href="#DejaVuSans-8722"/>
       <use x="83.789062" xlink:href="#DejaVuSans-50"/>
       <use x="147.412109" xlink:href="#DejaVuSans-46"/>
       <use x="179.199219" xlink:href="#DejaVuSans-48"/>
      </g>
     </g>
    </g>
    <g id="xtick_6">
     <g id="line2d_6">
      <g>
       <use style="stroke:#000000;stroke-width:0.8;" x="236.462468" xlink:href="#mf0c81520e8" y="330.224545"/>
      </g>
     </g>
     <g id="text_6">
      <!-- −1.5 -->
      <defs>
       <path d="M 12.40625 8.296875 
L 28.515625 8.296875 
L 28.515625 63.921875 
L 10.984375 60.40625 
L 10.984375 69.390625 
L 28.421875 72.90625 
L 38.28125 72.90625 
L 38.28125 8.296875 
L 54.390625 8.296875 
L 54.390625 0 
L 12.40625 0 
z
" id="DejaVuSans-49"/>
      </defs>
      <g transform="translate(224.321061 344.822983)scale(0.1 -0.1)">
       <use xlink:href="#DejaVuSans-8722"/>
       <use x="83.789062" xlink:href="#DejaVuSans-49"/>
       <use x="147.412109" xlink:href="#DejaVuSans-46"/>
       <use x="179.199219" xlink:href="#DejaVuSans-53"/>
      </g>
     </g>
    </g>
    <g id="xtick_7">
     <g id="line2d_7">
      <g>
       <use style="stroke:#000000;stroke-width:0.8;" x="272.682597" xlink:href="#mf0c81520e8" y="330.224545"/>
      </g>
     </g>
     <g id="text_7">
      <!-- −1.0 -->
      <g transform="translate(260.541191 344.822983)scale(0.1 -0.1)">
       <use xlink:href="#DejaVuSans-8722"/>
       <use x="83.789062" xlink:href="#DejaVuSans-49"/>
       <use x="147.412109" xlink:href="#DejaVuSans-46"/>
       <use x="179.199219" xlink:href="#DejaVuSans-48"/>
      </g>
     </g>
    </g>
    <g id="xtick_8">
     <g id="line2d_8">
      <g>
       <use style="stroke:#000000;stroke-width:0.8;" x="308.902727" xlink:href="#mf0c81520e8" y="330.224545"/>
      </g>
     </g>
     <g id="text_8">
      <!-- −0.5 -->
      <g transform="translate(296.761321 344.822983)scale(0.1 -0.1)">
       <use xlink:href="#DejaVuSans-8722"/>
       <use x="83.789062" xlink:href="#DejaVuSans-48"/>
       <use x="147.412109" xlink:href="#DejaVuSans-46"/>
       <use x="179.199219" xlink:href="#DejaVuSans-53"/>
      </g>
     </g>
    </g>
    <g id="xtick_9">
     <g id="line2d_9">
      <g>
       <use style="stroke:#000000;stroke-width:0.8;" x="345.122857" xlink:href="#mf0c81520e8" y="330.224545"/>
      </g>
     </g>
     <g id="text_9">
      <!-- 0.0 -->
      <g transform="translate(337.171295 344.822983)scale(0.1 -0.1)">
       <use xlink:href="#DejaVuSans-48"/>
       <use x="63.623047" xlink:href="#DejaVuSans-46"/>
       <use x="95.410156" xlink:href="#DejaVuSans-48"/>
      </g>
     </g>
    </g>
    <g id="text_10">
     <!-- x [m] -->
     <defs>
      <path d="M 54.890625 54.6875 
L 35.109375 28.078125 
L 55.90625 0 
L 45.3125 0 
L 29.390625 21.484375 
L 13.484375 0 
L 2.875 0 
L 24.125 28.609375 
L 4.6875 54.6875 
L 15.28125 54.6875 
L 29.78125 35.203125 
L 44.28125 54.6875 
z
" id="DejaVuSans-120"/>
      <path id="DejaVuSans-32"/>
      <path d="M 8.59375 75.984375 
L 29.296875 75.984375 
L 29.296875 69 
L 17.578125 69 
L 17.578125 -6.203125 
L 29.296875 -6.203125 
L 29.296875 -13.1875 
L 8.59375 -13.1875 
z
" id="DejaVuSans-91"/>
      <path d="M 52 44.1875 
Q 55.375 50.25 60.0625 53.125 
Q 64.75 56 71.09375 56 
Q 79.640625 56 84.28125 50.015625 
Q 88.921875 44.046875 88.921875 33.015625 
L 88.921875 0 
L 79.890625 0 
L 79.890625 32.71875 
Q 79.890625 40.578125 77.09375 44.375 
Q 74.3125 48.1875 68.609375 48.1875 
Q 61.625 48.1875 57.5625 43.546875 
Q 53.515625 38.921875 53.515625 30.90625 
L 53.515625 0 
L 44.484375 0 
L 44.484375 32.71875 
Q 44.484375 40.625 41.703125 44.40625 
Q 38.921875 48.1875 33.109375 48.1875 
Q 26.21875 48.1875 22.15625 43.53125 
Q 18.109375 38.875 18.109375 30.90625 
L 18.109375 0 
L 9.078125 0 
L 9.078125 54.6875 
L 18.109375 54.6875 
L 18.109375 46.1875 
Q 21.1875 51.21875 25.484375 53.609375 
Q 29.78125 56 35.6875 56 
Q 41.65625 56 45.828125 52.96875 
Q 50 49.953125 52 44.1875 
z
" id="DejaVuSans-109"/>
      <path d="M 30.421875 75.984375 
L 30.421875 -13.1875 
L 9.71875 -13.1875 
L 9.71875 -6.203125 
L 21.390625 -6.203125 
L 21.390625 69 
L 9.71875 69 
L 9.71875 75.984375 
z
" id="DejaVuSans-93"/>
     </defs>
     <g transform="translate(194.166051 358.501108)scale(0.1 -0.1)">
      <use xlink:href="#DejaVuSans-120"/>
      <use x="59.179688" xlink:href="#DejaVuSans-32"/>
      <use x="90.966797" xlink:href="#DejaVuSans-91"/>
      <use x="129.980469" xlink:href="#DejaVuSans-109"/>
      <use x="227.392578" xlink:href="#DejaVuSans-93"/>
     </g>
    </g>
   </g>
   <g id="matplotlib.axis_2">
    <g id="ytick_1">
     <g id="line2d_10">
      <defs>
       <path d="M 0 0 
L -3.5 0 
" id="mcb2eccf730" style="stroke:#000000;stroke-width:0.8;"/>
      </defs>
      <g>
       <use style="stroke:#000000;stroke-width:0.8;" x="55.361818" xlink:href="#mcb2eccf730" y="330.224545"/>
      </g>
     </g>
     <g id="text_11">
      <!-- −4.0 -->
      <g transform="translate(24.079006 334.023764)scale(0.1 -0.1)">
       <use xlink:href="#DejaVuSans-8722"/>
       <use x="83.789062" xlink:href="#DejaVuSans-52"/>
       <use x="147.412109" xlink:href="#DejaVuSans-46"/>
       <use x="179.199219" xlink:href="#DejaVuSans-48"/>
      </g>
     </g>
    </g>
    <g id="ytick_2">
     <g id="line2d_11">
      <g>
       <use style="stroke:#000000;stroke-width:0.8;" x="55.361818" xlink:href="#mcb2eccf730" y="294.004416"/>
      </g>
     </g>
     <g id="text_12">
      <!-- −3.5 -->
      <g transform="translate(24.079006 297.803634)scale(0.1 -0.1)">
       <use xlink:href="#DejaVuSans-8722"/>
       <use x="83.789062" xlink:href="#DejaVuSans-51"/>
       <use x="147.412109" xlink:href="#DejaVuSans-46"/>
       <use x="179.199219" xlink:href="#DejaVuSans-53"/>
      </g>
     </g>
    </g>
    <g id="ytick_3">
     <g id="line2d_12">
      <g>
       <use style="stroke:#000000;stroke-width:0.8;" x="55.361818" xlink:href="#mcb2eccf730" y="257.784286"/>
      </g>
     </g>
     <g id="text_13">
      <!-- −3.0 -->
      <g transform="translate(24.079006 261.583504)scale(0.1 -0.1)">
       <use xlink:href="#DejaVuSans-8722"/>
       <use x="83.789062" xlink:href="#DejaVuSans-51"/>
       <use x="147.412109" xlink:href="#DejaVuSans-46"/>
       <use x="179.199219" xlink:href="#DejaVuSans-48"/>
      </g>
     </g>
    </g>
    <g id="ytick_4">
     <g id="line2d_13">
      <g>
       <use style="stroke:#000000;stroke-width:0.8;" x="55.361818" xlink:href="#mcb2eccf730" y="221.564156"/>
      </g>
     </g>
     <g id="text_14">
      <!-- −2.5 -->
      <g transform="translate(24.079006 225.363375)scale(0.1 -0.1)">
       <use xlink:href="#DejaVuSans-8722"/>
       <use x="83.789062" xlink:href="#DejaVuSans-50"/>
       <use x="147.412109" xlink:href="#DejaVuSans-46"/>
       <use x="179.199219" xlink:href="#DejaVuSans-53"/>
      </g>
     </g>
    </g>
    <g id="ytick_5">
     <g id="line2d_14">
      <g>
       <use style="stroke:#000000;stroke-width:0.8;" x="55.361818" xlink:href="#mcb2eccf730" y="185.344026"/>
      </g>
     </g>
     <g id="text_15">
      <!-- −2.0 -->
      <g transform="translate(24.079006 189.143245)scale(0.1 -0.1)">
       <use xlink:href="#DejaVuSans-8722"/>
       <use x="83.789062" xlink:href="#DejaVuSans-50"/>
       <use x="147.412109" xlink:href="#DejaVuSans-46"/>
       <use x="179.199219" xlink:href="#DejaVuSans-48"/>
      </g>
     </g>
    </g>
    <g id="ytick_6">
     <g id="line2d_15">
      <g>
       <use style="stroke:#000000;stroke-width:0.8;" x="55.361818" xlink:href="#mcb2eccf730" y="149.123896"/>
      </g>
     </g>
     <g id="text_16">
      <!-- −1.5 -->
      <g transform="translate(24.079006 152.923115)scale(0.1 -0.1)">
       <use xlink:href="#DejaVuSans-8722"/>
       <use x="83.789062" xlink:href="#DejaVuSans-49"/>
       <use x="147.412109" xlink:href="#DejaVuSans-46"/>
       <use x="179.199219" xlink:href="#DejaVuSans-53"/>
      </g>
     </g>
    </g>
    <g id="ytick_7">
     <g id="line2d_16">
      <g>
       <use style="stroke:#000000;stroke-width:0.8;" x="55.361818" xlink:href="#mcb2eccf730" y="112.903766"/>
      </g>
     </g>
     <g id="text_17">
      <!-- −1.0 -->
      <g transform="translate(24.079006 116.702985)scale(0.1 -0.1)">
       <use xlink:href="#DejaVuSans-8722"/>
       <use x="83.789062" xlink:href="#DejaVuSans-49"/>
       <use x="147.412109" xlink:href="#DejaVuSans-46"/>
       <use x="179.199219" xlink:href="#DejaVuSans-48"/>
      </g>
     </g>
    </g>
    <g id="ytick_8">
     <g id="line2d_17">
      <g>
       <use style="stroke:#000000;stroke-width:0.8;" x="55.361818" xlink:href="#mcb2eccf730" y="76.683636"/>
      </g>
     </g>
     <g id="text_18">
      <!-- −0.5 -->
      <g transform="translate(24.079006 80.482855)scale(0.1 -0.1)">
       <use xlink:href="#DejaVuSans-8722"/>
       <use x="83.789062" xlink:href="#DejaVuSans-48"/>
       <use x="147.412109" xlink:href="#DejaVuSans-46"/>
       <use x="179.199219" xlink:href="#DejaVuSans-53"/>
      </g>
     </g>
    </g>
    <g id="ytick_9">
     <g id="line2d_18">
      <g>
       <use style="stroke:#000000;stroke-width:0.8;" x="55.361818" xlink:href="#mcb2eccf730" y="40.463506"/>
      </g>
     </g>
     <g id="text_19">
      <!-- 0.0 -->
      <g transform="translate(32.458693 44.262725)scale(0.1 -0.1)">
       <use xlink:href="#DejaVuSans-48"/>
       <use x="63.623047" xlink:href="#DejaVuSans-46"/>
       <use x="95.410156" xlink:href="#DejaVuSans-48"/>
      </g>
     </g>
    </g>
    <g id="text_20">
     <!-- y [m] -->
     <defs>
      <path d="M 32.171875 -5.078125 
Q 28.375 -14.84375 24.75 -17.8125 
Q 21.140625 -20.796875 15.09375 -20.796875 
L 7.90625 -20.796875 
L 7.90625 -13.28125 
L 13.1875 -13.28125 
Q 16.890625 -13.28125 18.9375 -11.515625 
Q 21 -9.765625 23.484375 -3.21875 
L 25.09375 0.875 
L 2.984375 54.6875 
L 12.5 54.6875 
L 29.59375 11.921875 
L 46.6875 54.6875 
L 56.203125 54.6875 
z
" id="DejaVuSans-121"/>
     </defs>
     <g transform="translate(17.999318 191.420313)rotate(-90)scale(0.1 -0.1)">
      <use xlink:href="#DejaVuSans-121"/>
      <use x="59.179688" xlink:href="#DejaVuSans-32"/>
      <use x="90.966797" xlink:href="#DejaVuSans-91"/>
      <use x="129.980469" xlink:href="#DejaVuSans-109"/>
      <use x="227.392578" xlink:href="#DejaVuSans-93"/>
     </g>
    </g>
   </g>
   <g id="line2d_19">
    <path clip-path="url(#p40d42ee917)" d="M 55.361818 40.463506 
L 359.610909 40.463506 
" style="fill:none;stroke:#000000;stroke-dasharray:2.775,1.2;stroke-dashoffset:0;stroke-width:0.75;"/>
   </g>
   <g id="line2d_20">
    <path clip-path="url(#p40d42ee917)" d="M 345.122857 330.224545 
L 345.122857 25.975455 
" style="fill:none;stroke:#000000;stroke-dasharray:2.775,1.2;stroke-dashoffset:0;stroke-width:0.75;"/>
   </g>
   <g id="line2d_21">
    <path clip-path="url(#p40d42ee917)" d="M 127.802078 257.784286 
L 127.793923 256.781691 
L 127.091005 248.825891 
L 125.260171 241.010955 
L 122.327384 233.496915 
L 121.536722 232.004253 
L 124.95254 236.364128 
L 130.69346 241.943141 
L 137.332826 246.790888 
L 144.624363 250.667738 
L 152.425554 253.486076 
L 160.582063 255.17927 
L 168.930836 255.70328 
L 177.303429 255.037807 
L 185.529478 253.186951 
L 193.459819 250.224648 
L 201.165473 246.533555 
L 270.586804 211.78548 
L 670.782852 11.601287 
L 683.942433 4.877807 
L 695.072975 -1 
L 695.072975 -1 
" style="fill:none;stroke:#0000ff;stroke-dasharray:1.85,0.8;stroke-dashoffset:0;stroke-width:0.5;"/>
   </g>
   <g id="patch_4">
    <path d="M 55.361818 330.224545 
L 55.361818 25.975455 
" style="fill:none;stroke:#000000;stroke-linecap:square;stroke-linejoin:miter;stroke-width:0.8;"/>
   </g>
   <g id="patch_5">
    <path d="M 359.610909 330.224545 
L 359.610909 25.975455 
" style="fill:none;stroke:#000000;stroke-linecap:square;stroke-linejoin:miter;stroke-width:0.8;"/>
   </g>
   <g id="patch_6">
    <path d="M 55.361818 330.224545 
L 359.610909 330.224545 
" style="fill:none;stroke:#000000;stroke-linecap:square;stroke-linejoin:miter;stroke-width:0.8;"/>
   </g>
   <g id="patch_7">
    <path d="M 55.361818 25.975455 
L 359.610909 25.975455 
" style="fill:none;stroke:#000000;stroke-linecap:square;stroke-linejoin:miter;stroke-width:0.8;"/>
   </g>
   <g id="text_21">
    <!-- Target -->
    <defs>
     <path d="M -0.296875 72.90625 
L 61.375 72.90625 
L 61.375 64.59375 
L 35.5 64.59375 
L 35.5 0 
L 25.59375 0 
L 25.59375 64.59375 
L -0.296875 64.59375 
z
" id="DejaVuSans-84"/>
     <path d="M 34.28125 27.484375 
Q 23.390625 27.484375 19.1875 25 
Q 14.984375 22.515625 14.984375 16.5 
Q 14.984375 11.71875 18.140625 8.90625 
Q 21.296875 6.109375 26.703125 6.109375 
Q 34.1875 6.109375 38.703125 11.40625 
Q 43.21875 16.703125 43.21875 25.484375 
L 43.21875 27.484375 
z
M 52.203125 31.203125 
L 52.203125 0 
L 43.21875 0 
L 43.21875 8.296875 
Q 40.140625 3.328125 35.546875 0.953125 
Q 30.953125 -1.421875 24.3125 -1.421875 
Q 15.921875 -1.421875 10.953125 3.296875 
Q 6 8.015625 6 15.921875 
Q 6 25.140625 12.171875 29.828125 
Q 18.359375 34.515625 30.609375 34.515625 
L 43.21875 34.515625 
L 43.21875 35.40625 
Q 43.21875 41.609375 39.140625 45 
Q 35.0625 48.390625 27.6875 48.390625 
Q 23 48.390625 18.546875 47.265625 
Q 14.109375 46.140625 10.015625 43.890625 
L 10.015625 52.203125 
Q 14.9375 54.109375 19.578125 55.046875 
Q 24.21875 56 28.609375 56 
Q 40.484375 56 46.34375 49.84375 
Q 52.203125 43.703125 52.203125 31.203125 
z
" id="DejaVuSans-97"/>
     <path d="M 41.109375 46.296875 
Q 39.59375 47.171875 37.8125 47.578125 
Q 36.03125 48 33.890625 48 
Q 26.265625 48 22.1875 43.046875 
Q 18.109375 38.09375 18.109375 28.8125 
L 18.109375 0 
L 9.078125 0 
L 9.078125 54.6875 
L 18.109375 54.6875 
L 18.109375 46.1875 
Q 20.953125 51.171875 25.484375 53.578125 
Q 30.03125 56 36.53125 56 
Q 37.453125 56 38.578125 55.875 
Q 39.703125 55.765625 41.0625 55.515625 
z
" id="DejaVuSans-114"/>
     <path d="M 45.40625 27.984375 
Q 45.40625 37.75 41.375 43.109375 
Q 37.359375 48.484375 30.078125 48.484375 
Q 22.859375 48.484375 18.828125 43.109375 
Q 14.796875 37.75 14.796875 27.984375 
Q 14.796875 18.265625 18.828125 12.890625 
Q 22.859375 7.515625 30.078125 7.515625 
Q 37.359375 7.515625 41.375 12.890625 
Q 45.40625 18.265625 45.40625 27.984375 
z
M 54.390625 6.78125 
Q 54.390625 -7.171875 48.1875 -13.984375 
Q 42 -20.796875 29.203125 -20.796875 
Q 24.46875 -20.796875 20.265625 -20.09375 
Q 16.0625 -19.390625 12.109375 -17.921875 
L 12.109375 -9.1875 
Q 16.0625 -11.328125 19.921875 -12.34375 
Q 23.78125 -13.375 27.78125 -13.375 
Q 36.625 -13.375 41.015625 -8.765625 
Q 45.40625 -4.15625 45.40625 5.171875 
L 45.40625 9.625 
Q 42.625 4.78125 38.28125 2.390625 
Q 33.9375 0 27.875 0 
Q 17.828125 0 11.671875 7.65625 
Q 5.515625 15.328125 5.515625 27.984375 
Q 5.515625 40.671875 11.671875 48.328125 
Q 17.828125 56 27.875 56 
Q 33.9375 56 38.28125 53.609375 
Q 42.625 51.21875 45.40625 46.390625 
L 45.40625 54.6875 
L 54.390625 54.6875 
z
" id="DejaVuSans-103"/>
     <path d="M 56.203125 29.59375 
L 56.203125 25.203125 
L 14.890625 25.203125 
Q 15.484375 15.921875 20.484375 11.0625 
Q 25.484375 6.203125 34.421875 6.203125 
Q 39.59375 6.203125 44.453125 7.46875 
Q 49.3125 8.734375 54.109375 11.28125 
L 54.109375 2.78125 
Q 49.265625 0.734375 44.1875 -0.34375 
Q 39.109375 -1.421875 33.890625 -1.421875 
Q 20.796875 -1.421875 13.15625 6.1875 
Q 5.515625 13.8125 5.515625 26.8125 
Q 5.515625 40.234375 12.765625 48.109375 
Q 20.015625 56 32.328125 56 
Q 43.359375 56 49.78125 48.890625 
Q 56.203125 41.796875 56.203125 29.59375 
z
M 47.21875 32.234375 
Q 47.125 39.59375 43.09375 43.984375 
Q 39.0625 48.390625 32.421875 48.390625 
Q 24.90625 48.390625 20.390625 44.140625 
Q 15.875 39.890625 15.1875 32.171875 
z
" id="DejaVuSans-101"/>
     <path d="M 18.3125 70.21875 
L 18.3125 54.6875 
L 36.8125 54.6875 
L 36.8125 47.703125 
L 18.3125 47.703125 
L 18.3125 18.015625 
Q 18.3125 11.328125 20.140625 9.421875 
Q 21.96875 7.515625 27.59375 7.515625 
L 36.8125 7.515625 
L 36.8125 0 
L 27.59375 0 
Q 17.1875 0 13.234375 3.875 
Q 9.28125 7.765625 9.28125 18.015625 
L 9.28125 47.703125 
L 2.6875 47.703125 
L 2.6875 54.6875 
L 9.28125 54.6875 
L 9.28125 70.21875 
z
" id="DejaVuSans-116"/>
    </defs>
    <g transform="translate(323.101018 59.159739)scale(0.1 -0.1)">
     <use xlink:href="#DejaVuSans-84"/>
     <use x="60.833984" xlink:href="#DejaVuSans-97"/>
     <use x="122.113281" xlink:href="#DejaVuSans-114"/>
     <use x="163.210938" xlink:href="#DejaVuSans-103"/>
     <use x="226.6875" xlink:href="#DejaVuSans-101"/>
     <use x="288.210938" xlink:href="#DejaVuSans-116"/>
    </g>
   </g>
   <g id="text_22">
    <!-- t = 30.000 -->
    <defs>
     <path d="M 10.59375 45.40625 
L 73.1875 45.40625 
L 73.1875 37.203125 
L 10.59375 37.203125 
z
M 10.59375 25.484375 
L 73.1875 25.484375 
L 73.1875 17.1875 
L 10.59375 17.1875 
z
" id="DejaVuSans-61"/>
    </defs>
    <g transform="translate(70.574273 43.947284)scale(0.1 -0.1)">
     <use xlink:href="#DejaVuSans-116"/>
     <use x="39.208984" xlink:href="#DejaVuSans-32"/>
     <use x="70.996094" xlink:href="#DejaVuSans-61"/>
     <use x="154.785156" xlink:href="#DejaVuSans-32"/>
     <use x="186.572266" xlink:href="#DejaVuSans-51"/>
     <use x="250.195312" xlink:href="#DejaVuSans-48"/>
     <use x="313.818359" xlink:href="#DejaVuSans-46"/>
     <use x="345.605469" xlink:href="#DejaVuSans-48"/>
     <use x="409.228516" xlink:href="#DejaVuSans-48"/>
     <use x="472.851562" xlink:href="#DejaVuSans-48"/>
    </g>
   </g>
   <g id="text_23">
    <!-- Pause - space, q - quit, click - data cursor -->
    <defs>
     <path d="M 19.671875 64.796875 
L 19.671875 37.40625 
L 32.078125 37.40625 
Q 38.96875 37.40625 42.71875 40.96875 
Q 46.484375 44.53125 46.484375 51.125 
Q 46.484375 57.671875 42.71875 61.234375 
Q 38.96875 64.796875 32.078125 64.796875 
z
M 9.8125 72.90625 
L 32.078125 72.90625 
Q 44.34375 72.90625 50.609375 67.359375 
Q 56.890625 61.8125 56.890625 51.125 
Q 56.890625 40.328125 50.609375 34.8125 
Q 44.34375 29.296875 32.078125 29.296875 
L 19.671875 29.296875 
L 19.671875 0 
L 9.8125 0 
z
" id="DejaVuSans-80"/>
     <path d="M 8.5 21.578125 
L 8.5 54.6875 
L 17.484375 54.6875 
L 17.484375 21.921875 
Q 17.484375 14.15625 20.5 10.265625 
Q 23.53125 6.390625 29.59375 6.390625 
Q 36.859375 6.390625 41.078125 11.03125 
Q 45.3125 15.671875 45.3125 23.6875 
L 45.3125 54.6875 
L 54.296875 54.6875 
L 54.296875 0 
L 45.3125 0 
L 45.3125 8.40625 
Q 42.046875 3.421875 37.71875 1 
Q 33.40625 -1.421875 27.6875 -1.421875 
Q 18.265625 -1.421875 13.375 4.4375 
Q 8.5 10.296875 8.5 21.578125 
z
M 31.109375 56 
z
" id="DejaVuSans-117"/>
     <path d="M 44.28125 53.078125 
L 44.28125 44.578125 
Q 40.484375 46.53125 36.375 47.5 
Q 32.28125 48.484375 27.875 48.484375 
Q 21.1875 48.484375 17.84375 46.4375 
Q 14.5 44.390625 14.5 40.28125 
Q 14.5 37.15625 16.890625 35.375 
Q 19.28125 33.59375 26.515625 31.984375 
L 29.59375 31.296875 
Q 39.15625 29.25 43.1875 25.515625 
Q 47.21875 21.78125 47.21875 15.09375 
Q 47.21875 7.46875 41.1875 3.015625 
Q 35.15625 -1.421875 24.609375 -1.421875 
Q 20.21875 -1.421875 15.453125 -0.5625 
Q 10.6875 0.296875 5.421875 2 
L 5.421875 11.28125 
Q 10.40625 8.6875 15.234375 7.390625 
Q 20.0625 6.109375 24.8125 6.109375 
Q 31.15625 6.109375 34.5625 8.28125 
Q 37.984375 10.453125 37.984375 14.40625 
Q 37.984375 18.0625 35.515625 20.015625 
Q 33.0625 21.96875 24.703125 23.78125 
L 21.578125 24.515625 
Q 13.234375 26.265625 9.515625 29.90625 
Q 5.8125 33.546875 5.8125 39.890625 
Q 5.8125 47.609375 11.28125 51.796875 
Q 16.75 56 26.8125 56 
Q 31.78125 56 36.171875 55.265625 
Q 40.578125 54.546875 44.28125 53.078125 
z
" id="DejaVuSans-115"/>
     <path d="M 4.890625 31.390625 
L 31.203125 31.390625 
L 31.203125 23.390625 
L 4.890625 23.390625 
z
" id="DejaVuSans-45"/>
     <path d="M 18.109375 8.203125 
L 18.109375 -20.796875 
L 9.078125 -20.796875 
L 9.078125 54.6875 
L 18.109375 54.6875 
L 18.109375 46.390625 
Q 20.953125 51.265625 25.265625 53.625 
Q 29.59375 56 35.59375 56 
Q 45.5625 56 51.78125 48.09375 
Q 58.015625 40.1875 58.015625 27.296875 
Q 58.015625 14.40625 51.78125 6.484375 
Q 45.5625 -1.421875 35.59375 -1.421875 
Q 29.59375 -1.421875 25.265625 0.953125 
Q 20.953125 3.328125 18.109375 8.203125 
z
M 48.6875 27.296875 
Q 48.6875 37.203125 44.609375 42.84375 
Q 40.53125 48.484375 33.40625 48.484375 
Q 26.265625 48.484375 22.1875 42.84375 
Q 18.109375 37.203125 18.109375 27.296875 
Q 18.109375 17.390625 22.1875 11.75 
Q 26.265625 6.109375 33.40625 6.109375 
Q 40.53125 6.109375 44.609375 11.75 
Q 48.6875 17.390625 48.6875 27.296875 
z
" id="DejaVuSans-112"/>
     <path d="M 48.78125 52.59375 
L 48.78125 44.1875 
Q 44.96875 46.296875 41.140625 47.34375 
Q 37.3125 48.390625 33.40625 48.390625 
Q 24.65625 48.390625 19.8125 42.84375 
Q 14.984375 37.3125 14.984375 27.296875 
Q 14.984375 17.28125 19.8125 11.734375 
Q 24.65625 6.203125 33.40625 6.203125 
Q 37.3125 6.203125 41.140625 7.25 
Q 44.96875 8.296875 48.78125 10.40625 
L 48.78125 2.09375 
Q 45.015625 0.34375 40.984375 -0.53125 
Q 36.96875 -1.421875 32.421875 -1.421875 
Q 20.0625 -1.421875 12.78125 6.34375 
Q 5.515625 14.109375 5.515625 27.296875 
Q 5.515625 40.671875 12.859375 48.328125 
Q 20.21875 56 33.015625 56 
Q 37.15625 56 41.109375 55.140625 
Q 45.0625 54.296875 48.78125 52.59375 
z
" id="DejaVuSans-99"/>
     <path d="M 11.71875 12.40625 
L 22.015625 12.40625 
L 22.015625 4 
L 14.015625 -11.625 
L 7.71875 -11.625 
L 11.71875 4 
z
" id="DejaVuSans-44"/>
     <path d="M 14.796875 27.296875 
Q 14.796875 17.390625 18.875 11.75 
Q 22.953125 6.109375 30.078125 6.109375 
Q 37.203125 6.109375 41.296875 11.75 
Q 45.40625 17.390625 45.40625 27.296875 
Q 45.40625 37.203125 41.296875 42.84375 
Q 37.203125 48.484375 30.078125 48.484375 
Q 22.953125 48.484375 18.875 42.84375 
Q 14.796875 37.203125 14.796875 27.296875 
z
M 45.40625 8.203125 
Q 42.578125 3.328125 38.25 0.953125 
Q 33.9375 -1.421875 27.875 -1.421875 
Q 17.96875 -1.421875 11.734375 6.484375 
Q 5.515625 14.40625 5.515625 27.296875 
Q 5.515625 40.1875 11.734375 48.09375 
Q 17.96875 56 27.875 56 
Q 33.9375 56 38.25 53.625 
Q 42.578125 51.265625 45.40625 46.390625 
L 45.40625 54.6875 
L 54.390625 54.6875 
L 54.390625 -20.796875 
L 45.40625 -20.796875 
z
" id="DejaVuSans-113"/>
     <path d="M 9.421875 54.6875 
L 18.40625 54.6875 
L 18.40625 0 
L 9.421875 0 
z
M 9.421875 75.984375 
L 18.40625 75.984375 
L 18.40625 64.59375 
L 9.421875 64.59375 
z
" id="DejaVuSans-105"/>
     <path d="M 9.421875 75.984375 
L 18.40625 75.984375 
L 18.40625 0 
L 9.421875 0 
z
" id="DejaVuSans-108"/>
     <path d="M 9.078125 75.984375 
L 18.109375 75.984375 
L 18.109375 31.109375 
L 44.921875 54.6875 
L 56.390625 54.6875 
L 27.390625 29.109375 
L 57.625 0 
L 45.90625 0 
L 18.109375 26.703125 
L 18.109375 0 
L 9.078125 0 
z
" id="DejaVuSans-107"/>
     <path d="M 45.40625 46.390625 
L 45.40625 75.984375 
L 54.390625 75.984375 
L 54.390625 0 
L 45.40625 0 
L 45.40625 8.203125 
Q 42.578125 3.328125 38.25 0.953125 
Q 33.9375 -1.421875 27.875 -1.421875 
Q 17.96875 -1.421875 11.734375 6.484375 
Q 5.515625 14.40625 5.515625 27.296875 
Q 5.515625 40.1875 11.734375 48.09375 
Q 17.96875 56 27.875 56 
Q 33.9375 56 38.25 53.625 
Q 42.578125 51.265625 45.40625 46.390625 
z
M 14.796875 27.296875 
Q 14.796875 17.390625 18.875 11.75 
Q 22.953125 6.109375 30.078125 6.109375 
Q 37.203125 6.109375 41.296875 11.75 
Q 45.40625 17.390625 45.40625 27.296875 
Q 45.40625 37.203125 41.296875 42.84375 
Q 37.203125 48.484375 30.078125 48.484375 
Q 22.953125 48.484375 18.875 42.84375 
Q 14.796875 37.203125 14.796875 27.296875 
z
" id="DejaVuSans-100"/>
     <path d="M 30.609375 48.390625 
Q 23.390625 48.390625 19.1875 42.75 
Q 14.984375 37.109375 14.984375 27.296875 
Q 14.984375 17.484375 19.15625 11.84375 
Q 23.34375 6.203125 30.609375 6.203125 
Q 37.796875 6.203125 41.984375 11.859375 
Q 46.1875 17.53125 46.1875 27.296875 
Q 46.1875 37.015625 41.984375 42.703125 
Q 37.796875 48.390625 30.609375 48.390625 
z
M 30.609375 56 
Q 42.328125 56 49.015625 48.375 
Q 55.71875 40.765625 55.71875 27.296875 
Q 55.71875 13.875 49.015625 6.21875 
Q 42.328125 -1.421875 30.609375 -1.421875 
Q 18.84375 -1.421875 12.171875 6.21875 
Q 5.515625 13.875 5.515625 27.296875 
Q 5.515625 40.765625 12.171875 48.375 
Q 18.84375 56 30.609375 56 
z
" id="DejaVuSans-111"/>
    </defs>
    <g transform="translate(83.310739 19.975455)scale(0.12 -0.12)">
     <use xlink:href="#DejaVuSans-80"/>
     <use x="60.240234" xlink:href="#DejaVuSans-97"/>
     <use x="121.519531" xlink:href="#DejaVuSans-117"/>
     <use x="184.898438" xlink:href="#DejaVuSans-115"/>
     <use x="236.998047" xlink:href="#DejaVuSans-101"/>
     <use x="298.521484" xlink:href="#DejaVuSans-32"/>
     <use x="330.308594" xlink:href="#DejaVuSans-45"/>
     <use x="366.392578" xlink:href="#DejaVuSans-32"/>
     <use x="398.179688" xlink:href="#DejaVuSans-115"/>
     <use x="450.279297" xlink:href="#DejaVuSans-112"/>
     <use x="513.755859" xlink:href="#DejaVuSans-97"/>
     <use x="575.035156" xlink:href="#DejaVuSans-99"/>
     <use x="630.015625" xlink:href="#DejaVuSans-101"/>
     <use x="691.539062" xlink:href="#DejaVuSans-44"/>
     <use x="723.326172" xlink:href="#DejaVuSans-32"/>
     <use x="755.113281" xlink:href="#DejaVuSans-113"/>
     <use x="818.589844" xlink:href="#DejaVuSans-32"/>
     <use x="850.376953" xlink:href="#DejaVuSans-45"/>
     <use x="886.460938" xlink:href="#DejaVuSans-32"/>
     <use x="918.248047" xlink:href="#DejaVuSans-113"/>
     <use x="981.724609" xlink:href="#DejaVuSans-117"/>
     <use x="1045.103516" xlink:href="#DejaVuSans-105"/>
     <use x="1072.886719" xlink:href="#DejaVuSans-116"/>
     <use x="1112.095703" xlink:href="#DejaVuSans-44"/>
     <use x="1143.882812" xlink:href="#DejaVuSans-32"/>
     <use x="1175.669922" xlink:href="#DejaVuSans-99"/>
     <use x="1230.650391" xlink:href="#DejaVuSans-108"/>
     <use x="1258.433594" xlink:href="#DejaVuSans-105"/>
     <use x="1286.216797" xlink:href="#DejaVuSans-99"/>
     <use x="1341.197266" xlink:href="#DejaVuSans-107"/>
     <use x="1399.107422" xlink:href="#DejaVuSans-32"/>
     <use x="1430.894531" xlink:href="#DejaVuSans-45"/>
     <use x="1466.978516" xlink:href="#DejaVuSans-32"/>
     <use x="1498.765625" xlink:href="#DejaVuSans-100"/>
     <use x="1562.242188" xlink:href="#DejaVuSans-97"/>
     <use x="1623.521484" xlink:href="#DejaVuSans-116"/>
     <use x="1662.730469" xlink:href="#DejaVuSans-97"/>
     <use x="1724.009766" xlink:href="#DejaVuSans-32"/>
     <use x="1755.796875" xlink:href="#DejaVuSans-99"/>
     <use x="1810.777344" xlink:href="#DejaVuSans-117"/>
     <use x="1874.15625" xlink:href="#DejaVuSans-114"/>
     <use x="1915.269531" xlink:href="#DejaVuSans-115"/>
     <use x="1967.369141" xlink:href="#DejaVuSans-111"/>
     <use x="2028.550781" xlink:href="#DejaVuSans-114"/>
    </g>
   </g>
  </g>
  <g id="axes_2">
   <g id="patch_8">
    <path d="M 398.560909 330.76 
L 702.81 330.76 
L 702.81 25.44 
L 398.560909 25.44 
z
" style="fill:#ffffff;"/>
   </g>
   <g id="matplotlib.axis_3">
    <g id="xtick_10">
     <g id="line2d_22">
      <g>
       <use style="stroke:#000000;stroke-width:0.8;" x="398.560909" xlink:href="#mf0c81520e8" y="330.76"/>
      </g>
     </g>
     <g id="text_24">
      <!-- 0 -->
      <g transform="translate(395.379659 345.358438)scale(0.1 -0.1)">
       <use xlink:href="#DejaVuSans-48"/>
      </g>
     </g>
    </g>
    <g id="xtick_11">
     <g id="line2d_23">
      <g>
       <use style="stroke:#000000;stroke-width:0.8;" x="449.269091" xlink:href="#mf0c81520e8" y="330.76"/>
      </g>
     </g>
     <g id="text_25">
      <!-- 5 -->
      <g transform="translate(446.087841 345.358438)scale(0.1 -0.1)">
       <use xlink:href="#DejaVuSans-53"/>
      </g>
     </g>
    </g>
    <g id="xtick_12">
     <g id="line2d_24">
      <g>
       <use style="stroke:#000000;stroke-width:0.8;" x="499.977273" xlink:href="#mf0c81520e8" y="330.76"/>
      </g>
     </g>
     <g id="text_26">
      <!-- 10 -->
      <g transform="translate(493.614773 345.358438)scale(0.1 -0.1)">
       <use xlink:href="#DejaVuSans-49"/>
       <use x="63.623047" xlink:href="#DejaVuSans-48"/>
      </g>
     </g>
    </g>
    <g id="xtick_13">
     <g id="line2d_25">
      <g>
       <use style="stroke:#000000;stroke-width:0.8;" x="550.685455" xlink:href="#mf0c81520e8" y="330.76"/>
      </g>
     </g>
     <g id="text_27">
      <!-- 15 -->
      <g transform="translate(544.322955 345.358438)scale(0.1 -0.1)">
       <use xlink:href="#DejaVuSans-49"/>
       <use x="63.623047" xlink:href="#DejaVuSans-53"/>
      </g>
     </g>
    </g>
    <g id="xtick_14">
     <g id="line2d_26">
      <g>
       <use style="stroke:#000000;stroke-width:0.8;" x="601.393636" xlink:href="#mf0c81520e8" y="330.76"/>
      </g>
     </g>
     <g id="text_28">
      <!-- 20 -->
      <g transform="translate(595.031136 345.358438)scale(0.1 -0.1)">
       <use xlink:href="#DejaVuSans-50"/>
       <use x="63.623047" xlink:href="#DejaVuSans-48"/>
      </g>
     </g>
    </g>
    <g id="xtick_15">
     <g id="line2d_27">
      <g>
       <use style="stroke:#000000;stroke-width:0.8;" x="652.101818" xlink:href="#mf0c81520e8" y="330.76"/>
      </g>
     </g>
     <g id="text_29">
      <!-- 25 -->
      <g transform="translate(645.739318 345.358438)scale(0.1 -0.1)">
       <use xlink:href="#DejaVuSans-50"/>
       <use x="63.623047" xlink:href="#DejaVuSans-53"/>
      </g>
     </g>
    </g>
    <g id="xtick_16">
     <g id="line2d_28">
      <g>
       <use style="stroke:#000000;stroke-width:0.8;" x="702.81" xlink:href="#mf0c81520e8" y="330.76"/>
      </g>
     </g>
     <g id="text_30">
      <!-- 30 -->
      <g transform="translate(696.4475 345.358438)scale(0.1 -0.1)">
       <use xlink:href="#DejaVuSans-51"/>
       <use x="63.623047" xlink:href="#DejaVuSans-48"/>
      </g>
     </g>
    </g>
    <g id="text_31">
     <!-- t [s] -->
     <g transform="translate(540.629986 359.036563)scale(0.1 -0.1)">
      <use xlink:href="#DejaVuSans-116"/>
      <use x="39.208984" xlink:href="#DejaVuSans-32"/>
      <use x="70.996094" xlink:href="#DejaVuSans-91"/>
      <use x="110.009766" xlink:href="#DejaVuSans-115"/>
      <use x="162.109375" xlink:href="#DejaVuSans-93"/>
     </g>
    </g>
   </g>
   <g id="matplotlib.axis_4">
    <g id="ytick_10">
     <g id="line2d_29">
      <g>
       <use style="stroke:#000000;stroke-width:0.8;" x="398.560909" xlink:href="#mcb2eccf730" y="316.881818"/>
      </g>
     </g>
     <g id="text_32">
      <!-- −8 -->
      <defs>
       <path d="M 31.78125 34.625 
Q 24.75 34.625 20.71875 30.859375 
Q 16.703125 27.09375 16.703125 20.515625 
Q 16.703125 13.921875 20.71875 10.15625 
Q 24.75 6.390625 31.78125 6.390625 
Q 38.8125 6.390625 42.859375 10.171875 
Q 46.921875 13.96875 46.921875 20.515625 
Q 46.921875 27.09375 42.890625 30.859375 
Q 38.875 34.625 31.78125 34.625 
z
M 21.921875 38.8125 
Q 15.578125 40.375 12.03125 44.71875 
Q 8.5 49.078125 8.5 55.328125 
Q 8.5 64.0625 14.71875 69.140625 
Q 20.953125 74.21875 31.78125 74.21875 
Q 42.671875 74.21875 48.875 69.140625 
Q 55.078125 64.0625 55.078125 55.328125 
Q 55.078125 49.078125 51.53125 44.71875 
Q 48 40.375 41.703125 38.8125 
Q 48.828125 37.15625 52.796875 32.3125 
Q 56.78125 27.484375 56.78125 20.515625 
Q 56.78125 9.90625 50.3125 4.234375 
Q 43.84375 -1.421875 31.78125 -1.421875 
Q 19.734375 -1.421875 13.25 4.234375 
Q 6.78125 9.90625 6.78125 20.515625 
Q 6.78125 27.484375 10.78125 32.3125 
Q 14.796875 37.15625 21.921875 38.8125 
z
M 18.3125 54.390625 
Q 18.3125 48.734375 21.84375 45.5625 
Q 25.390625 42.390625 31.78125 42.390625 
Q 38.140625 42.390625 41.71875 45.5625 
Q 45.3125 48.734375 45.3125 54.390625 
Q 45.3125 60.0625 41.71875 63.234375 
Q 38.140625 66.40625 31.78125 66.40625 
Q 25.390625 66.40625 21.84375 63.234375 
Q 18.3125 60.0625 18.3125 54.390625 
z
" id="DejaVuSans-56"/>
      </defs>
      <g transform="translate(376.818722 320.681037)scale(0.1 -0.1)">
       <use xlink:href="#DejaVuSans-8722"/>
       <use x="83.789062" xlink:href="#DejaVuSans-56"/>
      </g>
     </g>
    </g>
    <g id="ytick_11">
     <g id="line2d_30">
      <g>
       <use style="stroke:#000000;stroke-width:0.8;" x="398.560909" xlink:href="#mcb2eccf730" y="282.186364"/>
      </g>
     </g>
     <g id="text_33">
      <!-- −6 -->
      <defs>
       <path d="M 33.015625 40.375 
Q 26.375 40.375 22.484375 35.828125 
Q 18.609375 31.296875 18.609375 23.390625 
Q 18.609375 15.53125 22.484375 10.953125 
Q 26.375 6.390625 33.015625 6.390625 
Q 39.65625 6.390625 43.53125 10.953125 
Q 47.40625 15.53125 47.40625 23.390625 
Q 47.40625 31.296875 43.53125 35.828125 
Q 39.65625 40.375 33.015625 40.375 
z
M 52.59375 71.296875 
L 52.59375 62.3125 
Q 48.875 64.0625 45.09375 64.984375 
Q 41.3125 65.921875 37.59375 65.921875 
Q 27.828125 65.921875 22.671875 59.328125 
Q 17.53125 52.734375 16.796875 39.40625 
Q 19.671875 43.65625 24.015625 45.921875 
Q 28.375 48.1875 33.59375 48.1875 
Q 44.578125 48.1875 50.953125 41.515625 
Q 57.328125 34.859375 57.328125 23.390625 
Q 57.328125 12.15625 50.6875 5.359375 
Q 44.046875 -1.421875 33.015625 -1.421875 
Q 20.359375 -1.421875 13.671875 8.265625 
Q 6.984375 17.96875 6.984375 36.375 
Q 6.984375 53.65625 15.1875 63.9375 
Q 23.390625 74.21875 37.203125 74.21875 
Q 40.921875 74.21875 44.703125 73.484375 
Q 48.484375 72.75 52.59375 71.296875 
z
" id="DejaVuSans-54"/>
      </defs>
      <g transform="translate(376.818722 285.985582)scale(0.1 -0.1)">
       <use xlink:href="#DejaVuSans-8722"/>
       <use x="83.789062" xlink:href="#DejaVuSans-54"/>
      </g>
     </g>
    </g>
    <g id="ytick_12">
     <g id="line2d_31">
      <g>
       <use style="stroke:#000000;stroke-width:0.8;" x="398.560909" xlink:href="#mcb2eccf730" y="247.490909"/>
      </g>
     </g>
     <g id="text_34">
      <!-- −4 -->
      <g transform="translate(376.818722 251.290128)scale(0.1 -0.1)">
       <use xlink:href="#DejaVuSans-8722"/>
       <use x="83.789062" xlink:href="#DejaVuSans-52"/>
      </g>
     </g>
    </g>
    <g id="ytick_13">
     <g id="line2d_32">
      <g>
       <use style="stroke:#000000;stroke-width:0.8;" x="398.560909" xlink:href="#mcb2eccf730" y="212.795455"/>
      </g>
     </g>
     <g id="text_35">
      <!-- −2 -->
      <g transform="translate(376.818722 216.594673)scale(0.1 -0.1)">
       <use xlink:href="#DejaVuSans-8722"/>
       <use x="83.789062" xlink:href="#DejaVuSans-50"/>
      </g>
     </g>
    </g>
    <g id="ytick_14">
     <g id="line2d_33">
      <g>
       <use style="stroke:#000000;stroke-width:0.8;" x="398.560909" xlink:href="#mcb2eccf730" y="178.1"/>
      </g>
     </g>
     <g id="text_36">
      <!-- 0 -->
      <g transform="translate(385.198409 181.899219)scale(0.1 -0.1)">
       <use xlink:href="#DejaVuSans-48"/>
      </g>
     </g>
    </g>
    <g id="ytick_15">
     <g id="line2d_34">
      <g>
       <use style="stroke:#000000;stroke-width:0.8;" x="398.560909" xlink:href="#mcb2eccf730" y="143.404545"/>
      </g>
     </g>
     <g id="text_37">
      <!-- 2 -->
      <g transform="translate(385.198409 147.203764)scale(0.1 -0.1)">
       <use xlink:href="#DejaVuSans-50"/>
      </g>
     </g>
    </g>
    <g id="ytick_16">
     <g id="line2d_35">
      <g>
       <use style="stroke:#000000;stroke-width:0.8;" x="398.560909" xlink:href="#mcb2eccf730" y="108.709091"/>
      </g>
     </g>
     <g id="text_38">
      <!-- 4 -->
      <g transform="translate(385.198409 112.50831)scale(0.1 -0.1)">
       <use xlink:href="#DejaVuSans-52"/>
      </g>
     </g>
    </g>
    <g id="ytick_17">
     <g id="line2d_36">
      <g>
       <use style="stroke:#000000;stroke-width:0.8;" x="398.560909" xlink:href="#mcb2eccf730" y="74.013636"/>
      </g>
     </g>
     <g id="text_39">
      <!-- 6 -->
      <g transform="translate(385.198409 77.812855)scale(0.1 -0.1)">
       <use xlink:href="#DejaVuSans-54"/>
      </g>
     </g>
    </g>
    <g id="ytick_18">
     <g id="line2d_37">
      <g>
       <use style="stroke:#000000;stroke-width:0.8;" x="398.560909" xlink:href="#mcb2eccf730" y="39.318182"/>
      </g>
     </g>
     <g id="text_40">
      <!-- 8 -->
      <g transform="translate(385.198409 43.117401)scale(0.1 -0.1)">
       <use xlink:href="#DejaVuSans-56"/>
      </g>
     </g>
    </g>
   </g>
   <g id="line2d_38">
    <path clip-path="url(#p97d6f86cc8)" d="M 398.560909 178.1 
L 702.81 178.1 
" style="fill:none;stroke:#000000;stroke-dasharray:2.775,1.2;stroke-dashoffset:0;stroke-width:0.75;"/>
   </g>
   <g id="line2d_39">
    <path clip-path="url(#p97d6f86cc8)" d="M 398.560909 104.499826 
L 398.572065 104.524339 
L 399.133713 105.877826 
L 399.640794 106.834614 
L 400.147876 107.505352 
L 400.654958 107.595218 
L 401.16204 107.524729 
L 401.669122 107.637775 
L 402.176203 107.974852 
L 402.683285 108.5341 
L 403.190367 109.311133 
L 404.204531 111.48778 
L 405.218694 114.414915 
L 408.261185 124.976917 
L 410.796594 133.357745 
L 412.824922 139.401206 
L 414.346167 143.306278 
L 415.360331 145.492482 
L 416.374494 147.258259 
L 417.388658 148.528685 
L 417.89574 148.957653 
L 418.402822 149.240966 
L 418.909903 149.374987 
L 419.416985 149.358427 
L 419.924067 149.192463 
L 420.431149 148.880666 
L 421.445313 147.844205 
L 422.459476 146.313152 
L 423.47364 144.365043 
L 424.994885 140.830245 
L 427.023213 135.318028 
L 429.558622 127.672363 
L 434.122358 113.030832 
L 442.235667 86.941345 
L 443.249831 84.26506 
L 444.263994 82.239569 
L 444.771076 81.507245 
L 445.278158 80.975809 
L 445.78524 80.652199 
L 446.292322 80.54058 
L 447.306485 80.756903 
L 447.813567 80.470616 
L 448.320649 79.695086 
L 449.334813 77.432276 
L 450.348976 74.487177 
L 452.884385 65.929094 
L 458.462285 46.653561 
L 463.026022 30.038646 
L 467.589758 12.614038 
L 471.031255 -1 
L 471.031255 -1 
" style="fill:none;stroke:#0000ff;stroke-linecap:square;stroke-width:0.5;"/>
   </g>
   <g id="line2d_40">
    <path clip-path="url(#p97d6f86cc8)" d="M 398.560909 150.864068 
L 398.572065 150.819291 
L 403.697449 125.920441 
L 404.204531 232.456048 
L 405.725776 225.290516 
L 406.232858 224.585211 
L 407.247022 224.541608 
L 411.810758 224.55626 
L 438.179013 224.468494 
L 439.193176 224.321905 
L 440.20734 223.934734 
L 440.714422 223.546653 
L 441.221503 222.91909 
L 441.728585 221.90646 
L 442.235667 220.277649 
L 446.292322 200.641398 
L 452.377303 171.397975 
L 452.884385 170.465077 
L 453.391467 170.166233 
L 454.405631 170.062997 
L 466.575594 170.056768 
L 702.81 170.056768 
L 702.81 170.056768 
" style="fill:none;stroke:#ff0000;stroke-linecap:square;stroke-width:0.5;"/>
   </g>
   <g id="patch_9">
    <path d="M 398.560909 330.76 
L 398.560909 25.44 
" style="fill:none;stroke:#000000;stroke-linecap:square;stroke-linejoin:miter;stroke-width:0.8;"/>
   </g>
   <g id="patch_10">
    <path d="M 702.81 330.76 
L 702.81 25.44 
" style="fill:none;stroke:#000000;stroke-linecap:square;stroke-linejoin:miter;stroke-width:0.8;"/>
   </g>
   <g id="patch_11">
    <path d="M 398.560909 330.76 
L 702.81 330.76 
" style="fill:none;stroke:#000000;stroke-linecap:square;stroke-linejoin:miter;stroke-width:0.8;"/>
   </g>
   <g id="patch_12">
    <path d="M 398.560909 25.44 
L 702.81 25.44 
" style="fill:none;stroke:#000000;stroke-linecap:square;stroke-linejoin:miter;stroke-width:0.8;"/>
   </g>
   <g id="legend_1">
    <g id="patch_13">
     <path d="M 608.31 63.218125 
L 695.81 63.218125 
Q 697.81 63.218125 697.81 61.218125 
L 697.81 32.44 
Q 697.81 30.44 695.81 30.44 
L 608.31 30.44 
Q 606.31 30.44 606.31 32.44 
L 606.31 61.218125 
Q 606.31 63.218125 608.31 63.218125 
z
" style="fill:#ffffff;opacity:0.8;stroke:#cccccc;stroke-linejoin:miter;"/>
    </g>
    <g id="line2d_41">
     <path d="M 610.31 38.64 
L 630.31 38.64 
" style="fill:none;stroke:#0000ff;stroke-linecap:square;stroke-width:0.5;"/>
    </g>
    <g id="line2d_42"/>
    <g id="text_41">
     <!-- $\Vert(x,y)\Vert$ [m] -->
     <defs>
      <path d="M 21 76.421875 
L 21 -23.578125 
L 12.703125 -23.578125 
L 12.703125 76.421875 
z
M 37.109375 76.421875 
L 37.109375 -23.578125 
L 28.8125 -23.578125 
L 28.8125 76.421875 
z
" id="DejaVuSans-8214"/>
      <path d="M 31 75.875 
Q 24.46875 64.65625 21.28125 53.65625 
Q 18.109375 42.671875 18.109375 31.390625 
Q 18.109375 20.125 21.3125 9.0625 
Q 24.515625 -2 31 -13.1875 
L 23.1875 -13.1875 
Q 15.875 -1.703125 12.234375 9.375 
Q 8.59375 20.453125 8.59375 31.390625 
Q 8.59375 42.28125 12.203125 53.3125 
Q 15.828125 64.359375 23.1875 75.875 
z
" id="DejaVuSans-40"/>
      <path d="M 60.015625 54.6875 
L 34.90625 27.875 
L 50.296875 0 
L 39.984375 0 
L 28.421875 21.6875 
L 8.296875 0 
L -2.59375 0 
L 24.3125 28.8125 
L 10.015625 54.6875 
L 20.3125 54.6875 
L 30.8125 34.90625 
L 49.125 54.6875 
z
" id="DejaVuSans-Oblique-120"/>
      <path d="M 24.8125 -5.078125 
Q 18.5625 -15.578125 14.625 -18.1875 
Q 10.6875 -20.796875 4.59375 -20.796875 
L -2.484375 -20.796875 
L -0.984375 -13.28125 
L 4.203125 -13.28125 
Q 7.953125 -13.28125 10.59375 -11.234375 
Q 13.234375 -9.1875 16.5 -3.21875 
L 19.28125 2 
L 7.171875 54.6875 
L 16.703125 54.6875 
L 25.78125 12.796875 
L 50.875 54.6875 
L 60.296875 54.6875 
z
" id="DejaVuSans-Oblique-121"/>
      <path d="M 8.015625 75.875 
L 15.828125 75.875 
Q 23.140625 64.359375 26.78125 53.3125 
Q 30.421875 42.28125 30.421875 31.390625 
Q 30.421875 20.453125 26.78125 9.375 
Q 23.140625 -1.703125 15.828125 -13.1875 
L 8.015625 -13.1875 
Q 14.5 -2 17.703125 9.0625 
Q 20.90625 20.125 20.90625 31.390625 
Q 20.90625 42.671875 17.703125 53.65625 
Q 14.5 64.65625 8.015625 75.875 
z
" id="DejaVuSans-41"/>
     </defs>
     <g transform="translate(638.31 42.14)scale(0.1 -0.1)">
      <use transform="translate(0 0.578125)" xlink:href="#DejaVuSans-8214"/>
      <use transform="translate(50 0.578125)" xlink:href="#DejaVuSans-40"/>
      <use transform="translate(89.013672 0.578125)" xlink:href="#DejaVuSans-Oblique-120"/>
      <use transform="translate(148.193359 0.578125)" xlink:href="#DejaVuSans-44"/>
      <use transform="translate(199.462891 0.578125)" xlink:href="#DejaVuSans-Oblique-121"/>
      <use transform="translate(258.642578 0.578125)" xlink:href="#DejaVuSans-41"/>
      <use transform="translate(297.65625 0.578125)" xlink:href="#DejaVuSans-8214"/>
      <use transform="translate(347.65625 0.578125)" xlink:href="#DejaVuSans-32"/>
      <use transform="translate(379.443359 0.578125)" xlink:href="#DejaVuSans-91"/>
      <use transform="translate(418.457031 0.578125)" xlink:href="#DejaVuSans-109"/>
      <use transform="translate(515.869141 0.578125)" xlink:href="#DejaVuSans-93"/>
     </g>
    </g>
    <g id="line2d_43">
     <path d="M 610.31 53.638438 
L 630.31 53.638438 
" style="fill:none;stroke:#ff0000;stroke-linecap:square;stroke-width:0.5;"/>
    </g>
    <g id="line2d_44"/>
    <g id="text_42">
     <!-- $\alpha$ [rad] -->
     <defs>
      <path d="M 40.921875 25.4375 
L 40.96875 36.71875 
Q 41.015625 48.25 32.328125 48.296875 
Q 25.828125 48.34375 21.78125 42.921875 
Q 16.703125 36.234375 14.984375 27.296875 
Q 12.890625 16.546875 15.53125 11.421875 
Q 18.265625 6.203125 24.171875 6.203125 
Q 30.71875 6.203125 36.234375 16.609375 
z
M 33.84375 55.90625 
Q 49.078125 56.15625 48.875 40.375 
Q 48.875 40.375 56.5 54.6875 
L 64.5 54.6875 
L 48.734375 25.046875 
L 48.578125 14.359375 
Q 48.578125 11.96875 49.90625 9.96875 
Q 51.421875 7.625 52.984375 7.625 
L 57.328125 7.625 
L 55.859375 0 
L 50.4375 0 
Q 45.84375 0 42.53125 4.109375 
Q 40.96875 6.15625 40.921875 10.453125 
Q 37.75 5.21875 32.28125 0.78125 
Q 29.6875 -1.265625 22.703125 -1.21875 
Q 11.28125 -1.125 7.125 6.203125 
Q 2.875 13.8125 5.515625 27.296875 
Q 8.34375 41.796875 15.765625 48.390625 
Q 24.125 55.765625 33.84375 55.90625 
z
" id="DejaVuSans-Oblique-945"/>
     </defs>
     <g transform="translate(638.31 57.138438)scale(0.1 -0.1)">
      <use transform="translate(0 0.015625)" xlink:href="#DejaVuSans-Oblique-945"/>
      <use transform="translate(65.917969 0.015625)" xlink:href="#DejaVuSans-32"/>
      <use transform="translate(97.705078 0.015625)" xlink:href="#DejaVuSans-91"/>
      <use transform="translate(136.71875 0.015625)" xlink:href="#DejaVuSans-114"/>
      <use transform="translate(177.832031 0.015625)" xlink:href="#DejaVuSans-97"/>
      <use transform="translate(239.111328 0.015625)" xlink:href="#DejaVuSans-100"/>
      <use transform="translate(302.587891 0.015625)" xlink:href="#DejaVuSans-93"/>
     </g>
    </g>
   </g>
  </g>
  <g id="axes_3">
   <g id="patch_14">
    <path d="M 55.361818 678.04 
L 359.610909 678.04 
L 359.610909 372.72 
L 55.361818 372.72 
z
" style="fill:#ffffff;"/>
   </g>
   <g id="matplotlib.axis_5">
    <g id="xtick_17">
     <g id="line2d_45">
      <g>
       <use style="stroke:#000000;stroke-width:0.8;" x="55.361818" xlink:href="#mf0c81520e8" y="678.04"/>
      </g>
     </g>
     <g id="text_43">
      <!-- 0 -->
      <g transform="translate(52.180568 692.638438)scale(0.1 -0.1)">
       <use xlink:href="#DejaVuSans-48"/>
      </g>
     </g>
    </g>
    <g id="xtick_18">
     <g id="line2d_46">
      <g>
       <use style="stroke:#000000;stroke-width:0.8;" x="106.07" xlink:href="#mf0c81520e8" y="678.04"/>
      </g>
     </g>
     <g id="text_44">
      <!-- 5 -->
      <g transform="translate(102.88875 692.638438)scale(0.1 -0.1)">
       <use xlink:href="#DejaVuSans-53"/>
      </g>
     </g>
    </g>
    <g id="xtick_19">
     <g id="line2d_47">
      <g>
       <use style="stroke:#000000;stroke-width:0.8;" x="156.778182" xlink:href="#mf0c81520e8" y="678.04"/>
      </g>
     </g>
     <g id="text_45">
      <!-- 10 -->
      <g transform="translate(150.415682 692.638438)scale(0.1 -0.1)">
       <use xlink:href="#DejaVuSans-49"/>
       <use x="63.623047" xlink:href="#DejaVuSans-48"/>
      </g>
     </g>
    </g>
    <g id="xtick_20">
     <g id="line2d_48">
      <g>
       <use style="stroke:#000000;stroke-width:0.8;" x="207.486364" xlink:href="#mf0c81520e8" y="678.04"/>
      </g>
     </g>
     <g id="text_46">
      <!-- 15 -->
      <g transform="translate(201.123864 692.638438)scale(0.1 -0.1)">
       <use xlink:href="#DejaVuSans-49"/>
       <use x="63.623047" xlink:href="#DejaVuSans-53"/>
      </g>
     </g>
    </g>
    <g id="xtick_21">
     <g id="line2d_49">
      <g>
       <use style="stroke:#000000;stroke-width:0.8;" x="258.194545" xlink:href="#mf0c81520e8" y="678.04"/>
      </g>
     </g>
     <g id="text_47">
      <!-- 20 -->
      <g transform="translate(251.832045 692.638438)scale(0.1 -0.1)">
       <use xlink:href="#DejaVuSans-50"/>
       <use x="63.623047" xlink:href="#DejaVuSans-48"/>
      </g>
     </g>
    </g>
    <g id="xtick_22">
     <g id="line2d_50">
      <g>
       <use style="stroke:#000000;stroke-width:0.8;" x="308.902727" xlink:href="#mf0c81520e8" y="678.04"/>
      </g>
     </g>
     <g id="text_48">
      <!-- 25 -->
      <g transform="translate(302.540227 692.638438)scale(0.1 -0.1)">
       <use xlink:href="#DejaVuSans-50"/>
       <use x="63.623047" xlink:href="#DejaVuSans-53"/>
      </g>
     </g>
    </g>
    <g id="xtick_23">
     <g id="line2d_51">
      <g>
       <use style="stroke:#000000;stroke-width:0.8;" x="359.610909" xlink:href="#mf0c81520e8" y="678.04"/>
      </g>
     </g>
     <g id="text_49">
      <!-- 30 -->
      <g transform="translate(353.248409 692.638438)scale(0.1 -0.1)">
       <use xlink:href="#DejaVuSans-51"/>
       <use x="63.623047" xlink:href="#DejaVuSans-48"/>
      </g>
     </g>
    </g>
    <g id="text_50">
     <!-- t [s] -->
     <g transform="translate(197.430895 706.316563)scale(0.1 -0.1)">
      <use xlink:href="#DejaVuSans-116"/>
      <use x="39.208984" xlink:href="#DejaVuSans-32"/>
      <use x="70.996094" xlink:href="#DejaVuSans-91"/>
      <use x="110.009766" xlink:href="#DejaVuSans-115"/>
      <use x="162.109375" xlink:href="#DejaVuSans-93"/>
     </g>
    </g>
   </g>
   <g id="matplotlib.axis_6">
    <g id="ytick_19">
     <g id="line2d_52">
      <g>
       <use style="stroke:#000000;stroke-width:0.8;" x="55.361818" xlink:href="#mcb2eccf730" y="678.04"/>
      </g>
     </g>
     <g id="text_51">
      <!-- $\mathdefault{0}$ -->
      <g transform="translate(41.961818 681.839219)scale(0.1 -0.1)">
       <use transform="translate(0 0.78125)" xlink:href="#DejaVuSans-48"/>
      </g>
     </g>
    </g>
    <g id="ytick_20">
     <g id="line2d_53">
      <g>
       <use style="stroke:#000000;stroke-width:0.8;" x="55.361818" xlink:href="#mcb2eccf730" y="650.328889"/>
      </g>
     </g>
     <g id="text_52">
      <!-- $\mathdefault{10^{0}}$ -->
      <g transform="translate(30.761818 654.128108)scale(0.1 -0.1)">
       <use transform="translate(0 0.765625)" xlink:href="#DejaVuSans-49"/>
       <use transform="translate(63.623047 0.765625)" xlink:href="#DejaVuSans-48"/>
       <use transform="translate(128.203125 39.046875)scale(0.7)" xlink:href="#DejaVuSans-48"/>
      </g>
     </g>
    </g>
    <g id="ytick_21">
     <g id="line2d_54">
      <g>
       <use style="stroke:#000000;stroke-width:0.8;" x="55.361818" xlink:href="#mcb2eccf730" y="587.753156"/>
      </g>
     </g>
     <g id="text_53">
      <!-- $\mathdefault{10^{1}}$ -->
      <g transform="translate(30.761818 591.552375)scale(0.1 -0.1)">
       <use transform="translate(0 0.684375)" xlink:href="#DejaVuSans-49"/>
       <use transform="translate(63.623047 0.684375)" xlink:href="#DejaVuSans-48"/>
       <use transform="translate(128.203125 38.965625)scale(0.7)" xlink:href="#DejaVuSans-49"/>
      </g>
     </g>
    </g>
    <g id="ytick_22">
     <g id="line2d_55">
      <g>
       <use style="stroke:#000000;stroke-width:0.8;" x="55.361818" xlink:href="#mcb2eccf730" y="537.873157"/>
      </g>
     </g>
     <g id="text_54">
      <!-- $\mathdefault{10^{2}}$ -->
      <g transform="translate(30.761818 541.672376)scale(0.1 -0.1)">
       <use transform="translate(0 0.765625)" xlink:href="#DejaVuSans-49"/>
       <use transform="translate(63.623047 0.765625)" xlink:href="#DejaVuSans-48"/>
       <use transform="translate(128.203125 39.046875)scale(0.7)" xlink:href="#DejaVuSans-50"/>
      </g>
     </g>
    </g>
    <g id="ytick_23">
     <g id="line2d_56">
      <g>
       <use style="stroke:#000000;stroke-width:0.8;" x="55.361818" xlink:href="#mcb2eccf730" y="487.993158"/>
      </g>
     </g>
     <g id="text_55">
      <!-- $\mathdefault{10^{3}}$ -->
      <g transform="translate(30.761818 491.792377)scale(0.1 -0.1)">
       <use transform="translate(0 0.765625)" xlink:href="#DejaVuSans-49"/>
       <use transform="translate(63.623047 0.765625)" xlink:href="#DejaVuSans-48"/>
       <use transform="translate(128.203125 39.046875)scale(0.7)" xlink:href="#DejaVuSans-51"/>
      </g>
     </g>
    </g>
    <g id="ytick_24">
     <g id="line2d_57">
      <g>
       <use style="stroke:#000000;stroke-width:0.8;" x="55.361818" xlink:href="#mcb2eccf730" y="438.113159"/>
      </g>
     </g>
     <g id="text_56">
      <!-- $\mathdefault{10^{4}}$ -->
      <g transform="translate(30.761818 441.912378)scale(0.1 -0.1)">
       <use transform="translate(0 0.684375)" xlink:href="#DejaVuSans-49"/>
       <use transform="translate(63.623047 0.684375)" xlink:href="#DejaVuSans-48"/>
       <use transform="translate(128.203125 38.965625)scale(0.7)" xlink:href="#DejaVuSans-52"/>
      </g>
     </g>
    </g>
    <g id="ytick_25">
     <g id="line2d_58">
      <g>
       <use style="stroke:#000000;stroke-width:0.8;" x="55.361818" xlink:href="#mcb2eccf730" y="388.23316"/>
      </g>
     </g>
     <g id="text_57">
      <!-- $\mathdefault{10^{5}}$ -->
      <g transform="translate(30.761818 392.032379)scale(0.1 -0.1)">
       <use transform="translate(0 0.684375)" xlink:href="#DejaVuSans-49"/>
       <use transform="translate(63.623047 0.684375)" xlink:href="#DejaVuSans-48"/>
       <use transform="translate(128.203125 38.965625)scale(0.7)" xlink:href="#DejaVuSans-53"/>
      </g>
     </g>
    </g>
   </g>
   <g id="line2d_59">
    <path clip-path="url(#p1ff4b08e18)" d="M 55.361818 572.239996 
L 55.42754 520.615842 
L 56.441703 520.500066 
L 57.455867 520.524674 
L 58.977113 520.249172 
L 59.991276 520.354231 
L 61.00544 520.715877 
L 62.019603 521.437469 
L 62.526685 521.675724 
L 64.555013 521.991738 
L 69.118749 522.481255 
L 73.682485 522.731099 
L 77.73914 522.741139 
L 82.302876 522.524656 
L 87.373694 522.038574 
L 92.951594 521.268426 
L 98.529494 520.458461 
L 99.036576 520.520176 
L 100.05074 521.08198 
L 101.571985 522.487876 
L 102.586149 523.332482 
L 103.093231 523.593425 
L 103.600313 523.707389 
L 104.614476 523.597057 
L 105.121558 523.373415 
L 106.135722 522.548738 
L 108.671131 519.958031 
L 109.685294 519.553011 
L 116.78444 517.72542 
L 122.869422 515.89395 
L 129.461485 513.664244 
L 140.617285 509.595316 
L 150.25184 506.183272 
L 158.365149 503.562972 
L 168.506785 500.554403 
L 185.240485 495.59488 
L 211.101658 487.715055 
L 218.707885 485.734814 
L 227.835358 483.606935 
L 259.781513 476.391646 
L 272.458558 473.524471 
L 281.586031 471.691939 
L 291.727667 469.891387 
L 320.631331 464.89719 
L 337.872113 461.849409 
L 348.520831 460.215748 
L 359.610909 458.700702 
L 359.610909 458.700702 
" style="fill:none;stroke:#ff0000;stroke-linecap:square;stroke-width:0.5;"/>
   </g>
   <g id="line2d_60">
    <path clip-path="url(#p1ff4b08e18)" d="M 55.361818 678.04 
L 55.42754 546.706219 
L 55.934622 540.449741 
L 56.948785 531.639241 
L 57.962949 525.381528 
L 58.977113 520.493256 
L 59.991276 516.512943 
L 61.00544 513.19495 
L 62.526685 509.148195 
L 64.047931 505.80484 
L 65.569176 502.934486 
L 67.597503 499.646724 
L 69.625831 496.816845 
L 71.654158 494.330395 
L 74.189567 491.589422 
L 76.724976 489.161429 
L 79.767467 486.562322 
L 83.31704 483.859246 
L 87.373694 481.095087 
L 91.937431 478.293839 
L 97.008249 475.467051 
L 101.064903 473.438047 
L 104.614476 471.97345 
L 109.685294 469.852296 
L 118.305685 466.25008 
L 130.982731 461.219057 
L 153.801413 452.420516 
L 168.506785 446.976192 
L 183.71924 441.599489 
L 205.523758 434.152041 
L 221.750376 428.814173 
L 235.441585 424.550324 
L 250.65404 420.064457 
L 269.416067 414.77422 
L 286.149767 410.273475 
L 301.362222 406.416979 
L 318.603003 402.288097 
L 339.393358 397.541776 
L 357.648303 393.597804 
L 359.610909 393.174708 
L 359.610909 393.174708 
" style="fill:none;stroke:#008000;stroke-linecap:square;stroke-width:0.5;"/>
   </g>
   <g id="patch_15">
    <path d="M 55.361818 678.04 
L 55.361818 372.72 
" style="fill:none;stroke:#000000;stroke-linecap:square;stroke-linejoin:miter;stroke-width:0.8;"/>
   </g>
   <g id="patch_16">
    <path d="M 359.610909 678.04 
L 359.610909 372.72 
" style="fill:none;stroke:#000000;stroke-linecap:square;stroke-linejoin:miter;stroke-width:0.8;"/>
   </g>
   <g id="patch_17">
    <path d="M 55.361818 678.04 
L 359.610909 678.04 
" style="fill:none;stroke:#000000;stroke-linecap:square;stroke-linejoin:miter;stroke-width:0.8;"/>
   </g>
   <g id="patch_18">
    <path d="M 55.361818 372.72 
L 359.610909 372.72 
" style="fill:none;stroke:#000000;stroke-linecap:square;stroke-linejoin:miter;stroke-width:0.8;"/>
   </g>
   <g id="legend_2">
    <g id="patch_19">
     <path d="M 254.510909 414.298125 
L 352.610909 414.298125 
Q 354.610909 414.298125 354.610909 412.298125 
L 354.610909 379.72 
Q 354.610909 377.72 352.610909 377.72 
L 254.510909 377.72 
Q 252.510909 377.72 252.510909 379.72 
L 252.510909 412.298125 
Q 252.510909 414.298125 254.510909 414.298125 
z
" style="fill:#ffffff;opacity:0.8;stroke:#cccccc;stroke-linejoin:miter;"/>
    </g>
    <g id="line2d_61">
     <path d="M 256.510909 385.818438 
L 276.510909 385.818438 
" style="fill:none;stroke:#ff0000;stroke-linecap:square;stroke-width:0.5;"/>
    </g>
    <g id="line2d_62"/>
    <g id="text_58">
     <!-- Run. obj. -->
     <defs>
      <path d="M 44.390625 34.1875 
Q 47.5625 33.109375 50.5625 29.59375 
Q 53.5625 26.078125 56.59375 19.921875 
L 66.609375 0 
L 56 0 
L 46.6875 18.703125 
Q 43.0625 26.03125 39.671875 28.421875 
Q 36.28125 30.8125 30.421875 30.8125 
L 19.671875 30.8125 
L 19.671875 0 
L 9.8125 0 
L 9.8125 72.90625 
L 32.078125 72.90625 
Q 44.578125 72.90625 50.734375 67.671875 
Q 56.890625 62.453125 56.890625 51.90625 
Q 56.890625 45.015625 53.6875 40.46875 
Q 50.484375 35.9375 44.390625 34.1875 
z
M 19.671875 64.796875 
L 19.671875 38.921875 
L 32.078125 38.921875 
Q 39.203125 38.921875 42.84375 42.21875 
Q 46.484375 45.515625 46.484375 51.90625 
Q 46.484375 58.296875 42.84375 61.546875 
Q 39.203125 64.796875 32.078125 64.796875 
z
" id="DejaVuSans-82"/>
      <path d="M 54.890625 33.015625 
L 54.890625 0 
L 45.90625 0 
L 45.90625 32.71875 
Q 45.90625 40.484375 42.875 44.328125 
Q 39.84375 48.1875 33.796875 48.1875 
Q 26.515625 48.1875 22.3125 43.546875 
Q 18.109375 38.921875 18.109375 30.90625 
L 18.109375 0 
L 9.078125 0 
L 9.078125 54.6875 
L 18.109375 54.6875 
L 18.109375 46.1875 
Q 21.34375 51.125 25.703125 53.5625 
Q 30.078125 56 35.796875 56 
Q 45.21875 56 50.046875 50.171875 
Q 54.890625 44.34375 54.890625 33.015625 
z
" id="DejaVuSans-110"/>
      <path d="M 48.6875 27.296875 
Q 48.6875 37.203125 44.609375 42.84375 
Q 40.53125 48.484375 33.40625 48.484375 
Q 26.265625 48.484375 22.1875 42.84375 
Q 18.109375 37.203125 18.109375 27.296875 
Q 18.109375 17.390625 22.1875 11.75 
Q 26.265625 6.109375 33.40625 6.109375 
Q 40.53125 6.109375 44.609375 11.75 
Q 48.6875 17.390625 48.6875 27.296875 
z
M 18.109375 46.390625 
Q 20.953125 51.265625 25.265625 53.625 
Q 29.59375 56 35.59375 56 
Q 45.5625 56 51.78125 48.09375 
Q 58.015625 40.1875 58.015625 27.296875 
Q 58.015625 14.40625 51.78125 6.484375 
Q 45.5625 -1.421875 35.59375 -1.421875 
Q 29.59375 -1.421875 25.265625 0.953125 
Q 20.953125 3.328125 18.109375 8.203125 
L 18.109375 0 
L 9.078125 0 
L 9.078125 75.984375 
L 18.109375 75.984375 
z
" id="DejaVuSans-98"/>
      <path d="M 9.421875 54.6875 
L 18.40625 54.6875 
L 18.40625 -0.984375 
Q 18.40625 -11.421875 14.421875 -16.109375 
Q 10.453125 -20.796875 1.609375 -20.796875 
L -1.8125 -20.796875 
L -1.8125 -13.1875 
L 0.59375 -13.1875 
Q 5.71875 -13.1875 7.5625 -10.8125 
Q 9.421875 -8.453125 9.421875 -0.984375 
z
M 9.421875 75.984375 
L 18.40625 75.984375 
L 18.40625 64.59375 
L 9.421875 64.59375 
z
" id="DejaVuSans-106"/>
     </defs>
     <g transform="translate(284.510909 389.318438)scale(0.1 -0.1)">
      <use xlink:href="#DejaVuSans-82"/>
      <use x="69.419922" xlink:href="#DejaVuSans-117"/>
      <use x="132.798828" xlink:href="#DejaVuSans-110"/>
      <use x="196.177734" xlink:href="#DejaVuSans-46"/>
      <use x="227.964844" xlink:href="#DejaVuSans-32"/>
      <use x="259.751953" xlink:href="#DejaVuSans-111"/>
      <use x="320.933594" xlink:href="#DejaVuSans-98"/>
      <use x="384.410156" xlink:href="#DejaVuSans-106"/>
      <use x="412.193359" xlink:href="#DejaVuSans-46"/>
     </g>
    </g>
    <g id="line2d_63">
     <path d="M 256.510909 403.698125 
L 276.510909 403.698125 
" style="fill:none;stroke:#008000;stroke-linecap:square;stroke-width:0.5;"/>
    </g>
    <g id="line2d_64"/>
    <g id="text_59">
     <!-- $\int \mathrm{Run.\,obj.} \,\mathrm{d}t$ -->
     <defs>
      <path d="M 33.34375 86.328125 
Q 33.9375 97.859375 39.5 102.4375 
Q 45.0625 107.03125 50.28125 107.03125 
Q 55.515625 107.03125 59.890625 102.734375 
Q 64.265625 98.4375 65.625 88.71875 
L 55.375 87.703125 
Q 54.203125 96.6875 50.296875 96.6875 
Q 45.40625 96.6875 44.828125 84.578125 
L 40.328125 -9.328125 
Q 39.796875 -20.84375 34.171875 -25.4375 
Q 28.5625 -30.03125 23.390625 -30.03125 
Q 18.171875 -30.03125 13.796875 -25.734375 
Q 9.421875 -21.4375 8.0625 -11.71875 
L 18.3125 -10.6875 
Q 19.484375 -19.671875 23.390625 -19.671875 
Q 28.265625 -19.671875 28.859375 -7.625 
z
" id="DejaVuSansDisplay-8747"/>
      <path d="M 42.28125 54.6875 
L 40.921875 47.703125 
L 23 47.703125 
L 17.1875 18.015625 
Q 16.890625 16.359375 16.75 15.234375 
Q 16.609375 14.109375 16.609375 13.484375 
Q 16.609375 10.359375 18.484375 8.9375 
Q 20.359375 7.515625 24.515625 7.515625 
L 33.59375 7.515625 
L 32.078125 0 
L 23.484375 0 
Q 15.484375 0 11.546875 3.125 
Q 7.625 6.25 7.625 12.59375 
Q 7.625 13.71875 7.765625 15.0625 
Q 7.90625 16.40625 8.203125 18.015625 
L 14.015625 47.703125 
L 6.390625 47.703125 
L 7.8125 54.6875 
L 15.28125 54.6875 
L 18.3125 70.21875 
L 27.296875 70.21875 
L 24.3125 54.6875 
z
" id="DejaVuSans-Oblique-116"/>
     </defs>
     <g transform="translate(284.510909 407.198125)scale(0.1 -0.1)">
      <use transform="translate(0 0.96875)" xlink:href="#DejaVuSansDisplay-8747"/>
      <use transform="translate(73.632812 0.96875)" xlink:href="#DejaVuSans-82"/>
      <use transform="translate(143.115234 0.96875)" xlink:href="#DejaVuSans-117"/>
      <use transform="translate(206.494141 0.96875)" xlink:href="#DejaVuSans-110"/>
      <use transform="translate(269.873047 0.96875)" xlink:href="#DejaVuSans-46"/>
      <use transform="translate(337.378254 0.96875)" xlink:href="#DejaVuSans-111"/>
      <use transform="translate(398.559895 0.96875)" xlink:href="#DejaVuSans-98"/>
      <use transform="translate(462.036458 0.96875)" xlink:href="#DejaVuSans-106"/>
      <use transform="translate(489.819661 0.96875)" xlink:href="#DejaVuSans-46"/>
      <use transform="translate(557.324868 0.96875)" xlink:href="#DejaVuSans-100"/>
      <use transform="translate(620.801431 0.96875)" xlink:href="#DejaVuSans-Oblique-116"/>
     </g>
    </g>
   </g>
  </g>
  <g id="axes_4">
   <g id="patch_20">
    <path d="M 398.560909 678.04 
L 702.81 678.04 
L 702.81 372.72 
L 398.560909 372.72 
z
" style="fill:#ffffff;"/>
   </g>
   <g id="matplotlib.axis_7">
    <g id="xtick_24">
     <g id="line2d_65">
      <g>
       <use style="stroke:#000000;stroke-width:0.8;" x="398.560909" xlink:href="#mf0c81520e8" y="678.04"/>
      </g>
     </g>
     <g id="text_60">
      <!-- 0 -->
      <g transform="translate(395.379659 692.638438)scale(0.1 -0.1)">
       <use xlink:href="#DejaVuSans-48"/>
      </g>
     </g>
    </g>
    <g id="xtick_25">
     <g id="line2d_66">
      <g>
       <use style="stroke:#000000;stroke-width:0.8;" x="449.269091" xlink:href="#mf0c81520e8" y="678.04"/>
      </g>
     </g>
     <g id="text_61">
      <!-- 5 -->
      <g transform="translate(446.087841 692.638438)scale(0.1 -0.1)">
       <use xlink:href="#DejaVuSans-53"/>
      </g>
     </g>
    </g>
    <g id="xtick_26">
     <g id="line2d_67">
      <g>
       <use style="stroke:#000000;stroke-width:0.8;" x="499.977273" xlink:href="#mf0c81520e8" y="678.04"/>
      </g>
     </g>
     <g id="text_62">
      <!-- 10 -->
      <g transform="translate(493.614773 692.638438)scale(0.1 -0.1)">
       <use xlink:href="#DejaVuSans-49"/>
       <use x="63.623047" xlink:href="#DejaVuSans-48"/>
      </g>
     </g>
    </g>
    <g id="xtick_27">
     <g id="line2d_68">
      <g>
       <use style="stroke:#000000;stroke-width:0.8;" x="550.685455" xlink:href="#mf0c81520e8" y="678.04"/>
      </g>
     </g>
     <g id="text_63">
      <!-- 15 -->
      <g transform="translate(544.322955 692.638438)scale(0.1 -0.1)">
       <use xlink:href="#DejaVuSans-49"/>
       <use x="63.623047" xlink:href="#DejaVuSans-53"/>
      </g>
     </g>
    </g>
    <g id="xtick_28">
     <g id="line2d_69">
      <g>
       <use style="stroke:#000000;stroke-width:0.8;" x="601.393636" xlink:href="#mf0c81520e8" y="678.04"/>
      </g>
     </g>
     <g id="text_64">
      <!-- 20 -->
      <g transform="translate(595.031136 692.638438)scale(0.1 -0.1)">
       <use xlink:href="#DejaVuSans-50"/>
       <use x="63.623047" xlink:href="#DejaVuSans-48"/>
      </g>
     </g>
    </g>
    <g id="xtick_29">
     <g id="line2d_70">
      <g>
       <use style="stroke:#000000;stroke-width:0.8;" x="652.101818" xlink:href="#mf0c81520e8" y="678.04"/>
      </g>
     </g>
     <g id="text_65">
      <!-- 25 -->
      <g transform="translate(645.739318 692.638438)scale(0.1 -0.1)">
       <use xlink:href="#DejaVuSans-50"/>
       <use x="63.623047" xlink:href="#DejaVuSans-53"/>
      </g>
     </g>
    </g>
    <g id="xtick_30">
     <g id="line2d_71">
      <g>
       <use style="stroke:#000000;stroke-width:0.8;" x="702.81" xlink:href="#mf0c81520e8" y="678.04"/>
      </g>
     </g>
     <g id="text_66">
      <!-- 30 -->
      <g transform="translate(696.4475 692.638438)scale(0.1 -0.1)">
       <use xlink:href="#DejaVuSans-51"/>
       <use x="63.623047" xlink:href="#DejaVuSans-48"/>
      </g>
     </g>
    </g>
    <g id="text_67">
     <!-- t [s] -->
     <g transform="translate(540.629986 706.316563)scale(0.1 -0.1)">
      <use xlink:href="#DejaVuSans-116"/>
      <use x="39.208984" xlink:href="#DejaVuSans-32"/>
      <use x="70.996094" xlink:href="#DejaVuSans-91"/>
      <use x="110.009766" xlink:href="#DejaVuSans-115"/>
      <use x="162.109375" xlink:href="#DejaVuSans-93"/>
     </g>
    </g>
   </g>
   <g id="matplotlib.axis_8">
    <g id="ytick_26">
     <g id="line2d_72">
      <g>
       <use style="stroke:#000000;stroke-width:0.8;" x="398.560909" xlink:href="#mcb2eccf730" y="671.980512"/>
      </g>
     </g>
     <g id="text_68">
      <!-- −3 -->
      <g transform="translate(376.818722 675.779731)scale(0.1 -0.1)">
       <use xlink:href="#DejaVuSans-8722"/>
       <use x="83.789062" xlink:href="#DejaVuSans-51"/>
      </g>
     </g>
    </g>
    <g id="ytick_27">
     <g id="line2d_73">
      <g>
       <use style="stroke:#000000;stroke-width:0.8;" x="398.560909" xlink:href="#mcb2eccf730" y="623.113675"/>
      </g>
     </g>
     <g id="text_69">
      <!-- −2 -->
      <g transform="translate(376.818722 626.912894)scale(0.1 -0.1)">
       <use xlink:href="#DejaVuSans-8722"/>
       <use x="83.789062" xlink:href="#DejaVuSans-50"/>
      </g>
     </g>
    </g>
    <g id="ytick_28">
     <g id="line2d_74">
      <g>
       <use style="stroke:#000000;stroke-width:0.8;" x="398.560909" xlink:href="#mcb2eccf730" y="574.246837"/>
      </g>
     </g>
     <g id="text_70">
      <!-- −1 -->
      <g transform="translate(376.818722 578.046056)scale(0.1 -0.1)">
       <use xlink:href="#DejaVuSans-8722"/>
       <use x="83.789062" xlink:href="#DejaVuSans-49"/>
      </g>
     </g>
    </g>
    <g id="ytick_29">
     <g id="line2d_75">
      <g>
       <use style="stroke:#000000;stroke-width:0.8;" x="398.560909" xlink:href="#mcb2eccf730" y="525.38"/>
      </g>
     </g>
     <g id="text_71">
      <!-- 0 -->
      <g transform="translate(385.198409 529.179219)scale(0.1 -0.1)">
       <use xlink:href="#DejaVuSans-48"/>
      </g>
     </g>
    </g>
    <g id="ytick_30">
     <g id="line2d_76">
      <g>
       <use style="stroke:#000000;stroke-width:0.8;" x="398.560909" xlink:href="#mcb2eccf730" y="476.513163"/>
      </g>
     </g>
     <g id="text_72">
      <!-- 1 -->
      <g transform="translate(385.198409 480.312381)scale(0.1 -0.1)">
       <use xlink:href="#DejaVuSans-49"/>
      </g>
     </g>
    </g>
    <g id="ytick_31">
     <g id="line2d_77">
      <g>
       <use style="stroke:#000000;stroke-width:0.8;" x="398.560909" xlink:href="#mcb2eccf730" y="427.646325"/>
      </g>
     </g>
     <g id="text_73">
      <!-- 2 -->
      <g transform="translate(385.198409 431.445544)scale(0.1 -0.1)">
       <use xlink:href="#DejaVuSans-50"/>
      </g>
     </g>
    </g>
    <g id="ytick_32">
     <g id="line2d_78">
      <g>
       <use style="stroke:#000000;stroke-width:0.8;" x="398.560909" xlink:href="#mcb2eccf730" y="378.779488"/>
      </g>
     </g>
     <g id="text_74">
      <!-- 3 -->
      <g transform="translate(385.198409 382.578707)scale(0.1 -0.1)">
       <use xlink:href="#DejaVuSans-51"/>
      </g>
     </g>
    </g>
   </g>
   <g id="line2d_79">
    <path clip-path="url(#p8a4ecb1517)" d="M 398.560909 525.38 
L 702.81 525.38 
" style="fill:none;stroke:#000000;stroke-dasharray:2.775,1.2;stroke-dashoffset:0;stroke-width:0.75;"/>
   </g>
   <g id="line2d_80">
    <path clip-path="url(#p8a4ecb1517)" d="M 398.560909 525.38 
L 398.561923 222.885428 
L 398.626631 233.717589 
L 400.654958 607.174707 
L 401.272851 721 
M 445.927304 721 
L 449.334813 111.454753 
L 450.18036 -1 
L 450.18036 -1 
" style="fill:none;stroke:#1f77b4;stroke-linecap:square;stroke-width:0.5;"/>
   </g>
   <g id="line2d_81">
    <path clip-path="url(#p8a4ecb1517)" d="M 398.560909 525.38 
L 398.561765 -1 
M 402.830833 -1 
L 403.697449 122.344218 
L 404.711613 301.303554 
L 405.725776 494.18125 
L 406.232858 524.140903 
L 406.73994 527.169335 
L 407.247022 526.016094 
L 407.754103 525.445418 
L 408.768267 525.367744 
L 414.346167 525.38 
L 434.62944 525.277706 
L 435.643603 525.102551 
L 436.657767 524.632965 
L 437.164849 524.157473 
L 437.671931 523.382819 
L 438.179013 522.12292 
L 438.686094 520.077244 
L 439.193176 516.761226 
L 439.700258 511.394987 
L 440.20734 502.726147 
L 440.714422 488.750505 
L 441.221503 466.282566 
L 441.728585 430.339972 
L 442.235667 373.450045 
L 443.756913 142.906614 
L 444.771076 23.913746 
L 445.050458 -1 
M 448.885278 -1 
L 449.841894 103.028951 
L 450.856058 244.744373 
L 452.377303 479.4982 
L 452.884385 511.45658 
L 453.391467 521.661875 
L 453.898549 524.467985 
L 454.405631 525.170082 
L 454.912713 525.334097 
L 456.94104 525.379929 
L 702.81 525.38 
L 702.81 525.38 
" style="fill:none;stroke:#ff7f0e;stroke-linecap:square;stroke-width:0.5;"/>
   </g>
   <g id="patch_21">
    <path d="M 398.560909 678.04 
L 398.560909 372.72 
" style="fill:none;stroke:#000000;stroke-linecap:square;stroke-linejoin:miter;stroke-width:0.8;"/>
   </g>
   <g id="patch_22">
    <path d="M 702.81 678.04 
L 702.81 372.72 
" style="fill:none;stroke:#000000;stroke-linecap:square;stroke-linejoin:miter;stroke-width:0.8;"/>
   </g>
   <g id="patch_23">
    <path d="M 398.560909 678.04 
L 702.81 678.04 
" style="fill:none;stroke:#000000;stroke-linecap:square;stroke-linejoin:miter;stroke-width:0.8;"/>
   </g>
   <g id="patch_24">
    <path d="M 398.560909 372.72 
L 702.81 372.72 
" style="fill:none;stroke:#000000;stroke-linecap:square;stroke-linejoin:miter;stroke-width:0.8;"/>
   </g>
   <g id="legend_3">
    <g id="patch_25">
     <path d="M 619.21 410.07625 
L 695.81 410.07625 
Q 697.81 410.07625 697.81 408.07625 
L 697.81 379.72 
Q 697.81 377.72 695.81 377.72 
L 619.21 377.72 
Q 617.21 377.72 617.21 379.72 
L 617.21 408.07625 
Q 617.21 410.07625 619.21 410.07625 
z
" style="fill:#ffffff;opacity:0.8;stroke:#cccccc;stroke-linejoin:miter;"/>
    </g>
    <g id="line2d_82">
     <path d="M 621.21 385.818438 
L 641.21 385.818438 
" style="fill:none;stroke:#1f77b4;stroke-linecap:square;stroke-width:0.5;"/>
    </g>
    <g id="line2d_83"/>
    <g id="text_75">
     <!-- v [m/s] -->
     <defs>
      <path d="M 2.984375 54.6875 
L 12.5 54.6875 
L 29.59375 8.796875 
L 46.6875 54.6875 
L 56.203125 54.6875 
L 35.6875 0 
L 23.484375 0 
z
" id="DejaVuSans-118"/>
      <path d="M 25.390625 72.90625 
L 33.6875 72.90625 
L 8.296875 -9.28125 
L 0 -9.28125 
z
" id="DejaVuSans-47"/>
     </defs>
     <g transform="translate(649.21 389.318438)scale(0.1 -0.1)">
      <use xlink:href="#DejaVuSans-118"/>
      <use x="59.179688" xlink:href="#DejaVuSans-32"/>
      <use x="90.966797" xlink:href="#DejaVuSans-91"/>
      <use x="129.980469" xlink:href="#DejaVuSans-109"/>
      <use x="227.392578" xlink:href="#DejaVuSans-47"/>
      <use x="261.083984" xlink:href="#DejaVuSans-115"/>
      <use x="313.183594" xlink:href="#DejaVuSans-93"/>
     </g>
    </g>
    <g id="line2d_84">
     <path d="M 621.21 400.496563 
L 641.21 400.496563 
" style="fill:none;stroke:#ff7f0e;stroke-linecap:square;stroke-width:0.5;"/>
    </g>
    <g id="line2d_85"/>
    <g id="text_76">
     <!-- $\omega$ [rad/s] -->
     <defs>
      <path d="M 21.390625 -1.421875 
Q 1.125 -1.421875 6.78125 27.59375 
Q 8.984375 39.0625 19.625 54.6875 
L 29.296875 54.6875 
Q 19.234375 39.0625 17 27.34375 
Q 12.796875 6.203125 23.734375 6.203125 
Q 33.84375 6.203125 38.71875 32.46875 
L 47.015625 32.46875 
Q 41.703125 6.0625 51.8125 6.203125 
Q 62.703125 6.296875 66.796875 27.34375 
Q 69.046875 39.0625 65.140625 54.6875 
L 74.8125 54.6875 
Q 79.296875 39.0625 77.09375 27.59375 
Q 71.53125 -1.46875 51.21875 -1.421875 
Q 37.9375 -1.375 39.109375 13.1875 
Q 34.28125 -1.421875 21.390625 -1.421875 
z
" id="DejaVuSans-Oblique-969"/>
     </defs>
     <g transform="translate(649.21 403.996563)scale(0.1 -0.1)">
      <use transform="translate(0 0.015625)" xlink:href="#DejaVuSans-Oblique-969"/>
      <use transform="translate(83.740234 0.015625)" xlink:href="#DejaVuSans-32"/>
      <use transform="translate(115.527344 0.015625)" xlink:href="#DejaVuSans-91"/>
      <use transform="translate(154.541016 0.015625)" xlink:href="#DejaVuSans-114"/>
      <use transform="translate(195.654297 0.015625)" xlink:href="#DejaVuSans-97"/>
      <use transform="translate(256.933594 0.015625)" xlink:href="#DejaVuSans-100"/>
      <use transform="translate(320.410156 0.015625)" xlink:href="#DejaVuSans-47"/>
      <use transform="translate(354.101562 0.015625)" xlink:href="#DejaVuSans-115"/>
      <use transform="translate(406.201172 0.015625)" xlink:href="#DejaVuSans-93"/>
     </g>
    </g>
   </g>
  </g>
  <g id="text_77">
   <!-- $\int \mathrm{Run.\,obj.} \,\mathrm{d}t$ = 79603.3 -->
   <defs>
    <path d="M 8.203125 72.90625 
L 55.078125 72.90625 
L 55.078125 68.703125 
L 28.609375 0 
L 18.3125 0 
L 43.21875 64.59375 
L 8.203125 64.59375 
z
" id="DejaVuSans-55"/>
    <path d="M 10.984375 1.515625 
L 10.984375 10.5 
Q 14.703125 8.734375 18.5 7.8125 
Q 22.3125 6.890625 25.984375 6.890625 
Q 35.75 6.890625 40.890625 13.453125 
Q 46.046875 20.015625 46.78125 33.40625 
Q 43.953125 29.203125 39.59375 26.953125 
Q 35.25 24.703125 29.984375 24.703125 
Q 19.046875 24.703125 12.671875 31.3125 
Q 6.296875 37.9375 6.296875 49.421875 
Q 6.296875 60.640625 12.9375 67.421875 
Q 19.578125 74.21875 30.609375 74.21875 
Q 43.265625 74.21875 49.921875 64.515625 
Q 56.59375 54.828125 56.59375 36.375 
Q 56.59375 19.140625 48.40625 8.859375 
Q 40.234375 -1.421875 26.421875 -1.421875 
Q 22.703125 -1.421875 18.890625 -0.6875 
Q 15.09375 0.046875 10.984375 1.515625 
z
M 30.609375 32.421875 
Q 37.25 32.421875 41.125 36.953125 
Q 45.015625 41.5 45.015625 49.421875 
Q 45.015625 57.28125 41.125 61.84375 
Q 37.25 66.40625 30.609375 66.40625 
Q 23.96875 66.40625 20.09375 61.84375 
Q 16.21875 57.28125 16.21875 49.421875 
Q 16.21875 41.5 20.09375 36.953125 
Q 23.96875 32.421875 30.609375 32.421875 
z
" id="DejaVuSans-57"/>
   </defs>
   <g transform="translate(36 363.85)scale(0.1 -0.1)">
    <use transform="translate(0 0.96875)" xlink:href="#DejaVuSansDisplay-8747"/>
    <use transform="translate(73.632812 0.96875)" xlink:href="#DejaVuSans-82"/>
    <use transform="translate(143.115234 0.96875)" xlink:href="#DejaVuSans-117"/>
    <use transform="translate(206.494141 0.96875)" xlink:href="#DejaVuSans-110"/>
    <use transform="translate(269.873047 0.96875)" xlink:href="#DejaVuSans-46"/>
    <use transform="translate(337.378254 0.96875)" xlink:href="#DejaVuSans-111"/>
    <use transform="translate(398.559895 0.96875)" xlink:href="#DejaVuSans-98"/>
    <use transform="translate(462.036458 0.96875)" xlink:href="#DejaVuSans-106"/>
    <use transform="translate(489.819661 0.96875)" xlink:href="#DejaVuSans-46"/>
    <use transform="translate(557.324868 0.96875)" xlink:href="#DejaVuSans-100"/>
    <use transform="translate(620.801431 0.96875)" xlink:href="#DejaVuSans-Oblique-116"/>
    <use transform="translate(660.010415 0.96875)" xlink:href="#DejaVuSans-32"/>
    <use transform="translate(691.797524 0.96875)" xlink:href="#DejaVuSans-61"/>
    <use transform="translate(775.586587 0.96875)" xlink:href="#DejaVuSans-32"/>
    <use transform="translate(807.373696 0.96875)" xlink:href="#DejaVuSans-55"/>
    <use transform="translate(870.996743 0.96875)" xlink:href="#DejaVuSans-57"/>
    <use transform="translate(934.61979 0.96875)" xlink:href="#DejaVuSans-54"/>
    <use transform="translate(998.242837 0.96875)" xlink:href="#DejaVuSans-48"/>
    <use transform="translate(1061.865884 0.96875)" xlink:href="#DejaVuSans-51"/>
    <use transform="translate(1125.488931 0.96875)" xlink:href="#DejaVuSans-46"/>
    <use transform="translate(1157.27604 0.96875)" xlink:href="#DejaVuSans-51"/>
   </g>
  </g>
 </g>
 <defs>
  <clipPath id="p40d42ee917">
   <rect height="304.249091" width="304.249091" x="55.361818" y="25.975455"/>
  </clipPath>
  <clipPath id="p97d6f86cc8">
   <rect height="305.32" width="304.249091" x="398.560909" y="25.44"/>
  </clipPath>
  <clipPath id="p1ff4b08e18">
   <rect height="305.32" width="304.249091" x="55.361818" y="372.72"/>
  </clipPath>
  <clipPath id="p8a4ecb1517">
   <rect height="305.32" width="304.249091" x="398.560909" y="372.72"/>
  </clipPath>
 </defs>
</svg>
