<?xml version="1.0" encoding="utf-8" standalone="no"?>
<!DOCTYPE svg PUBLIC "-//W3C//DTD SVG 1.1//EN"
  "http://www.w3.org/Graphics/SVG/1.1/DTD/svg11.dtd">
<!-- Created with matplotlib (https://matplotlib.org/) -->
<svg height="707.04pt" version="1.1" viewBox="0 0 720 707.04" width="720pt" xmlns="http://www.w3.org/2000/svg" xmlns:xlink="http://www.w3.org/1999/xlink">
 <defs>
  <style type="text/css">
*{stroke-linecap:butt;stroke-linejoin:round;}
  </style>
 </defs>
 <g id="figure_1">
  <g id="patch_1">
   <path d="M 0 707.04 
L 720 707.04 
L 720 0 
L 0 0 
z
" style="fill:#ffffff;"/>
  </g>
  <g id="axes_1">
   <g id="patch_2">
    <path d="M 57.574244 324.80632 
L 357.398484 324.80632 
L 357.398484 24.98208 
L 57.574244 24.98208 
z
" style="fill:#ffffff;"/>
   </g>
   <g id="PathCollection_1">
    <defs>
     <path d="M -6.793586 7.485655 
L -1.97651 3.534422 
L -2.651439 2.711596 
L -1.168692 1.495364 
L 1.660358 4.944332 
L 4.960914 2.237047 
L 6.0182 3.526018 
L 4.01342 5.170434 
L 6.025674 7.623637 
L 10.842765 3.672405 
L 8.830505 1.219194 
L 6.825741 2.863612 
L 5.768456 1.574641 
L 9.069005 -1.132652 
L 2.748151 -8.838608 
L -0.552405 -6.131323 
L -1.603998 -7.413353 
L 0.400766 -9.057772 
L -1.611869 -11.51144 
L -6.428945 -7.560207 
L -4.416319 -5.106531 
L -2.411546 -6.750957 
L -1.359946 -5.468918 
L -4.660495 -2.761624 
L -1.831454 0.687351 
L -3.314219 1.903597 
L -3.989138 1.080763 
L -8.806222 5.032004 
L -6.793586 7.485655 
z
" id="mfde6c1d5b8" style="stroke:#0000ff;"/>
    </defs>
    <g clip-path="url(#p02a831f20d)">
     <use style="fill:#0000ff;stroke:#0000ff;" x="341.369043" xlink:href="#mfde6c1d5b8" y="53.231058"/>
    </g>
   </g>
   <g id="patch_3">
    <path clip-path="url(#p02a831f20d)" d="M 343.121139 53.53677 
C 346.907535 53.53677 350.53936 52.032418 353.216746 49.355032 
C 355.894133 46.677646 357.398484 43.045821 357.398484 39.259425 
C 357.398484 35.473029 355.894133 31.841204 353.216746 29.163817 
C 350.53936 26.486431 346.907535 24.98208 343.121139 24.98208 
C 339.334743 24.98208 335.702918 26.486431 333.025532 29.163817 
C 330.348145 31.841204 328.843794 35.473029 328.843794 39.259425 
C 328.843794 43.045821 330.348145 46.677646 333.025532 49.355032 
C 335.702918 52.032418 339.334743 53.53677 343.121139 53.53677 
z
" style="fill:#bfbf00;stroke:#bfbf00;stroke-linejoin:miter;stroke-width:2;"/>
   </g>
   <g id="matplotlib.axis_1">
    <g id="xtick_1">
     <g id="line2d_1">
      <defs>
       <path d="M 0 0 
L 0 3.5 
" id="md8f0eb626a" style="stroke:#000000;stroke-width:0.8;"/>
      </defs>
      <g>
       <use style="stroke:#000000;stroke-width:0.8;" x="57.574244" xlink:href="#md8f0eb626a" y="324.80632"/>
      </g>
     </g>
     <g id="text_1">
      <!-- −4.0 -->
      <defs>
       <path d="M 10.59375 35.5 
L 73.1875 35.5 
L 73.1875 27.203125 
L 10.59375 27.203125 
z
" id="DejaVuSans-8722"/>
       <path d="M 37.796875 64.3125 
L 12.890625 25.390625 
L 37.796875 25.390625 
z
M 35.203125 72.90625 
L 47.609375 72.90625 
L 47.609375 25.390625 
L 58.015625 25.390625 
L 58.015625 17.1875 
L 47.609375 17.1875 
L 47.609375 0 
L 37.796875 0 
L 37.796875 17.1875 
L 4.890625 17.1875 
L 4.890625 26.703125 
z
" id="DejaVuSans-52"/>
       <path d="M 10.6875 12.40625 
L 21 12.40625 
L 21 0 
L 10.6875 0 
z
" id="DejaVuSans-46"/>
       <path d="M 31.78125 66.40625 
Q 24.171875 66.40625 20.328125 58.90625 
Q 16.5 51.421875 16.5 36.375 
Q 16.5 21.390625 20.328125 13.890625 
Q 24.171875 6.390625 31.78125 6.390625 
Q 39.453125 6.390625 43.28125 13.890625 
Q 47.125 21.390625 47.125 36.375 
Q 47.125 51.421875 43.28125 58.90625 
Q 39.453125 66.40625 31.78125 66.40625 
z
M 31.78125 74.21875 
Q 44.046875 74.21875 50.515625 64.515625 
Q 56.984375 54.828125 56.984375 36.375 
Q 56.984375 17.96875 50.515625 8.265625 
Q 44.046875 -1.421875 31.78125 -1.421875 
Q 19.53125 -1.421875 13.0625 8.265625 
Q 6.59375 17.96875 6.59375 36.375 
Q 6.59375 54.828125 13.0625 64.515625 
Q 19.53125 74.21875 31.78125 74.21875 
z
" id="DejaVuSans-48"/>
      </defs>
      <g transform="translate(45.432837 339.404758)scale(0.1 -0.1)">
       <use xlink:href="#DejaVuSans-8722"/>
       <use x="83.789062" xlink:href="#DejaVuSans-52"/>
       <use x="147.412109" xlink:href="#DejaVuSans-46"/>
       <use x="179.199219" xlink:href="#DejaVuSans-48"/>
      </g>
     </g>
    </g>
    <g id="xtick_2">
     <g id="line2d_2">
      <g>
       <use style="stroke:#000000;stroke-width:0.8;" x="93.267606" xlink:href="#md8f0eb626a" y="324.80632"/>
      </g>
     </g>
     <g id="text_2">
      <!-- −3.5 -->
      <defs>
       <path d="M 40.578125 39.3125 
Q 47.65625 37.796875 51.625 33 
Q 55.609375 28.21875 55.609375 21.1875 
Q 55.609375 10.40625 48.1875 4.484375 
Q 40.765625 -1.421875 27.09375 -1.421875 
Q 22.515625 -1.421875 17.65625 -0.515625 
Q 12.796875 0.390625 7.625 2.203125 
L 7.625 11.71875 
Q 11.71875 9.328125 16.59375 8.109375 
Q 21.484375 6.890625 26.8125 6.890625 
Q 36.078125 6.890625 40.9375 10.546875 
Q 45.796875 14.203125 45.796875 21.1875 
Q 45.796875 27.640625 41.28125 31.265625 
Q 36.765625 34.90625 28.71875 34.90625 
L 20.21875 34.90625 
L 20.21875 43.015625 
L 29.109375 43.015625 
Q 36.375 43.015625 40.234375 45.921875 
Q 44.09375 48.828125 44.09375 54.296875 
Q 44.09375 59.90625 40.109375 62.90625 
Q 36.140625 65.921875 28.71875 65.921875 
Q 24.65625 65.921875 20.015625 65.03125 
Q 15.375 64.15625 9.8125 62.3125 
L 9.8125 71.09375 
Q 15.4375 72.65625 20.34375 73.4375 
Q 25.25 74.21875 29.59375 74.21875 
Q 40.828125 74.21875 47.359375 69.109375 
Q 53.90625 64.015625 53.90625 55.328125 
Q 53.90625 49.265625 50.4375 45.09375 
Q 46.96875 40.921875 40.578125 39.3125 
z
" id="DejaVuSans-51"/>
       <path d="M 10.796875 72.90625 
L 49.515625 72.90625 
L 49.515625 64.59375 
L 19.828125 64.59375 
L 19.828125 46.734375 
Q 21.96875 47.46875 24.109375 47.828125 
Q 26.265625 48.1875 28.421875 48.1875 
Q 40.625 48.1875 47.75 41.5 
Q 54.890625 34.8125 54.890625 23.390625 
Q 54.890625 11.625 47.5625 5.09375 
Q 40.234375 -1.421875 26.90625 -1.421875 
Q 22.3125 -1.421875 17.546875 -0.640625 
Q 12.796875 0.140625 7.71875 1.703125 
L 7.71875 11.625 
Q 12.109375 9.234375 16.796875 8.0625 
Q 21.484375 6.890625 26.703125 6.890625 
Q 35.15625 6.890625 40.078125 11.328125 
Q 45.015625 15.765625 45.015625 23.390625 
Q 45.015625 31 40.078125 35.4375 
Q 35.15625 39.890625 26.703125 39.890625 
Q 22.75 39.890625 18.8125 39.015625 
Q 14.890625 38.140625 10.796875 36.28125 
z
" id="DejaVuSans-53"/>
      </defs>
      <g transform="translate(81.126199 339.404758)scale(0.1 -0.1)">
       <use xlink:href="#DejaVuSans-8722"/>
       <use x="83.789062" xlink:href="#DejaVuSans-51"/>
       <use x="147.412109" xlink:href="#DejaVuSans-46"/>
       <use x="179.199219" xlink:href="#DejaVuSans-53"/>
      </g>
     </g>
    </g>
    <g id="xtick_3">
     <g id="line2d_3">
      <g>
       <use style="stroke:#000000;stroke-width:0.8;" x="128.960967" xlink:href="#md8f0eb626a" y="324.80632"/>
      </g>
     </g>
     <g id="text_3">
      <!-- −3.0 -->
      <g transform="translate(116.819561 339.404758)scale(0.1 -0.1)">
       <use xlink:href="#DejaVuSans-8722"/>
       <use x="83.789062" xlink:href="#DejaVuSans-51"/>
       <use x="147.412109" xlink:href="#DejaVuSans-46"/>
       <use x="179.199219" xlink:href="#DejaVuSans-48"/>
      </g>
     </g>
    </g>
    <g id="xtick_4">
     <g id="line2d_4">
      <g>
       <use style="stroke:#000000;stroke-width:0.8;" x="164.654329" xlink:href="#md8f0eb626a" y="324.80632"/>
      </g>
     </g>
     <g id="text_4">
      <!-- −2.5 -->
      <defs>
       <path d="M 19.1875 8.296875 
L 53.609375 8.296875 
L 53.609375 0 
L 7.328125 0 
L 7.328125 8.296875 
Q 12.9375 14.109375 22.625 23.890625 
Q 32.328125 33.6875 34.8125 36.53125 
Q 39.546875 41.84375 41.421875 45.53125 
Q 43.3125 49.21875 43.3125 52.78125 
Q 43.3125 58.59375 39.234375 62.25 
Q 35.15625 65.921875 28.609375 65.921875 
Q 23.96875 65.921875 18.8125 64.3125 
Q 13.671875 62.703125 7.8125 59.421875 
L 7.8125 69.390625 
Q 13.765625 71.78125 18.9375 73 
Q 24.125 74.21875 28.421875 74.21875 
Q 39.75 74.21875 46.484375 68.546875 
Q 53.21875 62.890625 53.21875 53.421875 
Q 53.21875 48.921875 51.53125 44.890625 
Q 49.859375 40.875 45.40625 35.40625 
Q 44.1875 33.984375 37.640625 27.21875 
Q 31.109375 20.453125 19.1875 8.296875 
z
" id="DejaVuSans-50"/>
      </defs>
      <g transform="translate(152.512923 339.404758)scale(0.1 -0.1)">
       <use xlink:href="#DejaVuSans-8722"/>
       <use x="83.789062" xlink:href="#DejaVuSans-50"/>
       <use x="147.412109" xlink:href="#DejaVuSans-46"/>
       <use x="179.199219" xlink:href="#DejaVuSans-53"/>
      </g>
     </g>
    </g>
    <g id="xtick_5">
     <g id="line2d_5">
      <g>
       <use style="stroke:#000000;stroke-width:0.8;" x="200.347691" xlink:href="#md8f0eb626a" y="324.80632"/>
      </g>
     </g>
     <g id="text_5">
      <!-- −2.0 -->
      <g transform="translate(188.206285 339.404758)scale(0.1 -0.1)">
       <use xlink:href="#DejaVuSans-8722"/>
       <use x="83.789062" xlink:href="#DejaVuSans-50"/>
       <use x="147.412109" xlink:href="#DejaVuSans-46"/>
       <use x="179.199219" xlink:href="#DejaVuSans-48"/>
      </g>
     </g>
    </g>
    <g id="xtick_6">
     <g id="line2d_6">
      <g>
       <use style="stroke:#000000;stroke-width:0.8;" x="236.041053" xlink:href="#md8f0eb626a" y="324.80632"/>
      </g>
     </g>
     <g id="text_6">
      <!-- −1.5 -->
      <defs>
       <path d="M 12.40625 8.296875 
L 28.515625 8.296875 
L 28.515625 63.921875 
L 10.984375 60.40625 
L 10.984375 69.390625 
L 28.421875 72.90625 
L 38.28125 72.90625 
L 38.28125 8.296875 
L 54.390625 8.296875 
L 54.390625 0 
L 12.40625 0 
z
" id="DejaVuSans-49"/>
      </defs>
      <g transform="translate(223.899647 339.404758)scale(0.1 -0.1)">
       <use xlink:href="#DejaVuSans-8722"/>
       <use x="83.789062" xlink:href="#DejaVuSans-49"/>
       <use x="147.412109" xlink:href="#DejaVuSans-46"/>
       <use x="179.199219" xlink:href="#DejaVuSans-53"/>
      </g>
     </g>
    </g>
    <g id="xtick_7">
     <g id="line2d_7">
      <g>
       <use style="stroke:#000000;stroke-width:0.8;" x="271.734415" xlink:href="#md8f0eb626a" y="324.80632"/>
      </g>
     </g>
     <g id="text_7">
      <!-- −1.0 -->
      <g transform="translate(259.593009 339.404758)scale(0.1 -0.1)">
       <use xlink:href="#DejaVuSans-8722"/>
       <use x="83.789062" xlink:href="#DejaVuSans-49"/>
       <use x="147.412109" xlink:href="#DejaVuSans-46"/>
       <use x="179.199219" xlink:href="#DejaVuSans-48"/>
      </g>
     </g>
    </g>
    <g id="xtick_8">
     <g id="line2d_8">
      <g>
       <use style="stroke:#000000;stroke-width:0.8;" x="307.427777" xlink:href="#md8f0eb626a" y="324.80632"/>
      </g>
     </g>
     <g id="text_8">
      <!-- −0.5 -->
      <g transform="translate(295.286371 339.404758)scale(0.1 -0.1)">
       <use xlink:href="#DejaVuSans-8722"/>
       <use x="83.789062" xlink:href="#DejaVuSans-48"/>
       <use x="147.412109" xlink:href="#DejaVuSans-46"/>
       <use x="179.199219" xlink:href="#DejaVuSans-53"/>
      </g>
     </g>
    </g>
    <g id="xtick_9">
     <g id="line2d_9">
      <g>
       <use style="stroke:#000000;stroke-width:0.8;" x="343.121139" xlink:href="#md8f0eb626a" y="324.80632"/>
      </g>
     </g>
     <g id="text_9">
      <!-- 0.0 -->
      <g transform="translate(335.169576 339.404758)scale(0.1 -0.1)">
       <use xlink:href="#DejaVuSans-48"/>
       <use x="63.623047" xlink:href="#DejaVuSans-46"/>
       <use x="95.410156" xlink:href="#DejaVuSans-48"/>
      </g>
     </g>
    </g>
    <g id="text_10">
     <!-- x [m] -->
     <defs>
      <path d="M 54.890625 54.6875 
L 35.109375 28.078125 
L 55.90625 0 
L 45.3125 0 
L 29.390625 21.484375 
L 13.484375 0 
L 2.875 0 
L 24.125 28.609375 
L 4.6875 54.6875 
L 15.28125 54.6875 
L 29.78125 35.203125 
L 44.28125 54.6875 
z
" id="DejaVuSans-120"/>
      <path id="DejaVuSans-32"/>
      <path d="M 8.59375 75.984375 
L 29.296875 75.984375 
L 29.296875 69 
L 17.578125 69 
L 17.578125 -6.203125 
L 29.296875 -6.203125 
L 29.296875 -13.1875 
L 8.59375 -13.1875 
z
" id="DejaVuSans-91"/>
      <path d="M 52 44.1875 
Q 55.375 50.25 60.0625 53.125 
Q 64.75 56 71.09375 56 
Q 79.640625 56 84.28125 50.015625 
Q 88.921875 44.046875 88.921875 33.015625 
L 88.921875 0 
L 79.890625 0 
L 79.890625 32.71875 
Q 79.890625 40.578125 77.09375 44.375 
Q 74.3125 48.1875 68.609375 48.1875 
Q 61.625 48.1875 57.5625 43.546875 
Q 53.515625 38.921875 53.515625 30.90625 
L 53.515625 0 
L 44.484375 0 
L 44.484375 32.71875 
Q 44.484375 40.625 41.703125 44.40625 
Q 38.921875 48.1875 33.109375 48.1875 
Q 26.21875 48.1875 22.15625 43.53125 
Q 18.109375 38.875 18.109375 30.90625 
L 18.109375 0 
L 9.078125 0 
L 9.078125 54.6875 
L 18.109375 54.6875 
L 18.109375 46.1875 
Q 21.1875 51.21875 25.484375 53.609375 
Q 29.78125 56 35.6875 56 
Q 41.65625 56 45.828125 52.96875 
Q 50 49.953125 52 44.1875 
z
" id="DejaVuSans-109"/>
      <path d="M 30.421875 75.984375 
L 30.421875 -13.1875 
L 9.71875 -13.1875 
L 9.71875 -6.203125 
L 21.390625 -6.203125 
L 21.390625 69 
L 9.71875 69 
L 9.71875 75.984375 
z
" id="DejaVuSans-93"/>
     </defs>
     <g transform="translate(194.166051 353.082883)scale(0.1 -0.1)">
      <use xlink:href="#DejaVuSans-120"/>
      <use x="59.179688" xlink:href="#DejaVuSans-32"/>
      <use x="90.966797" xlink:href="#DejaVuSans-91"/>
      <use x="129.980469" xlink:href="#DejaVuSans-109"/>
      <use x="227.392578" xlink:href="#DejaVuSans-93"/>
     </g>
    </g>
   </g>
   <g id="matplotlib.axis_2">
    <g id="ytick_1">
     <g id="line2d_10">
      <defs>
       <path d="M 0 0 
L -3.5 0 
" id="m5ac97fd4af" style="stroke:#000000;stroke-width:0.8;"/>
      </defs>
      <g>
       <use style="stroke:#000000;stroke-width:0.8;" x="57.574244" xlink:href="#m5ac97fd4af" y="324.80632"/>
      </g>
     </g>
     <g id="text_11">
      <!-- −4.0 -->
      <g transform="translate(26.291431 328.605539)scale(0.1 -0.1)">
       <use xlink:href="#DejaVuSans-8722"/>
       <use x="83.789062" xlink:href="#DejaVuSans-52"/>
       <use x="147.412109" xlink:href="#DejaVuSans-46"/>
       <use x="179.199219" xlink:href="#DejaVuSans-48"/>
      </g>
     </g>
    </g>
    <g id="ytick_2">
     <g id="line2d_11">
      <g>
       <use style="stroke:#000000;stroke-width:0.8;" x="57.574244" xlink:href="#m5ac97fd4af" y="289.112958"/>
      </g>
     </g>
     <g id="text_12">
      <!-- −3.5 -->
      <g transform="translate(26.291431 292.912177)scale(0.1 -0.1)">
       <use xlink:href="#DejaVuSans-8722"/>
       <use x="83.789062" xlink:href="#DejaVuSans-51"/>
       <use x="147.412109" xlink:href="#DejaVuSans-46"/>
       <use x="179.199219" xlink:href="#DejaVuSans-53"/>
      </g>
     </g>
    </g>
    <g id="ytick_3">
     <g id="line2d_12">
      <g>
       <use style="stroke:#000000;stroke-width:0.8;" x="57.574244" xlink:href="#m5ac97fd4af" y="253.419596"/>
      </g>
     </g>
     <g id="text_13">
      <!-- −3.0 -->
      <g transform="translate(26.291431 257.218815)scale(0.1 -0.1)">
       <use xlink:href="#DejaVuSans-8722"/>
       <use x="83.789062" xlink:href="#DejaVuSans-51"/>
       <use x="147.412109" xlink:href="#DejaVuSans-46"/>
       <use x="179.199219" xlink:href="#DejaVuSans-48"/>
      </g>
     </g>
    </g>
    <g id="ytick_4">
     <g id="line2d_13">
      <g>
       <use style="stroke:#000000;stroke-width:0.8;" x="57.574244" xlink:href="#m5ac97fd4af" y="217.726234"/>
      </g>
     </g>
     <g id="text_14">
      <!-- −2.5 -->
      <g transform="translate(26.291431 221.525453)scale(0.1 -0.1)">
       <use xlink:href="#DejaVuSans-8722"/>
       <use x="83.789062" xlink:href="#DejaVuSans-50"/>
       <use x="147.412109" xlink:href="#DejaVuSans-46"/>
       <use x="179.199219" xlink:href="#DejaVuSans-53"/>
      </g>
     </g>
    </g>
    <g id="ytick_5">
     <g id="line2d_14">
      <g>
       <use style="stroke:#000000;stroke-width:0.8;" x="57.574244" xlink:href="#m5ac97fd4af" y="182.032872"/>
      </g>
     </g>
     <g id="text_15">
      <!-- −2.0 -->
      <g transform="translate(26.291431 185.832091)scale(0.1 -0.1)">
       <use xlink:href="#DejaVuSans-8722"/>
       <use x="83.789062" xlink:href="#DejaVuSans-50"/>
       <use x="147.412109" xlink:href="#DejaVuSans-46"/>
       <use x="179.199219" xlink:href="#DejaVuSans-48"/>
      </g>
     </g>
    </g>
    <g id="ytick_6">
     <g id="line2d_15">
      <g>
       <use style="stroke:#000000;stroke-width:0.8;" x="57.574244" xlink:href="#m5ac97fd4af" y="146.33951"/>
      </g>
     </g>
     <g id="text_16">
      <!-- −1.5 -->
      <g transform="translate(26.291431 150.138729)scale(0.1 -0.1)">
       <use xlink:href="#DejaVuSans-8722"/>
       <use x="83.789062" xlink:href="#DejaVuSans-49"/>
       <use x="147.412109" xlink:href="#DejaVuSans-46"/>
       <use x="179.199219" xlink:href="#DejaVuSans-53"/>
      </g>
     </g>
    </g>
    <g id="ytick_7">
     <g id="line2d_16">
      <g>
       <use style="stroke:#000000;stroke-width:0.8;" x="57.574244" xlink:href="#m5ac97fd4af" y="110.646149"/>
      </g>
     </g>
     <g id="text_17">
      <!-- −1.0 -->
      <g transform="translate(26.291431 114.445367)scale(0.1 -0.1)">
       <use xlink:href="#DejaVuSans-8722"/>
       <use x="83.789062" xlink:href="#DejaVuSans-49"/>
       <use x="147.412109" xlink:href="#DejaVuSans-46"/>
       <use x="179.199219" xlink:href="#DejaVuSans-48"/>
      </g>
     </g>
    </g>
    <g id="ytick_8">
     <g id="line2d_17">
      <g>
       <use style="stroke:#000000;stroke-width:0.8;" x="57.574244" xlink:href="#m5ac97fd4af" y="74.952787"/>
      </g>
     </g>
     <g id="text_18">
      <!-- −0.5 -->
      <g transform="translate(26.291431 78.752005)scale(0.1 -0.1)">
       <use xlink:href="#DejaVuSans-8722"/>
       <use x="83.789062" xlink:href="#DejaVuSans-48"/>
       <use x="147.412109" xlink:href="#DejaVuSans-46"/>
       <use x="179.199219" xlink:href="#DejaVuSans-53"/>
      </g>
     </g>
    </g>
    <g id="ytick_9">
     <g id="line2d_18">
      <g>
       <use style="stroke:#000000;stroke-width:0.8;" x="57.574244" xlink:href="#m5ac97fd4af" y="39.259425"/>
      </g>
     </g>
     <g id="text_19">
      <!-- 0.0 -->
      <g transform="translate(34.671119 43.058644)scale(0.1 -0.1)">
       <use xlink:href="#DejaVuSans-48"/>
       <use x="63.623047" xlink:href="#DejaVuSans-46"/>
       <use x="95.410156" xlink:href="#DejaVuSans-48"/>
      </g>
     </g>
    </g>
    <g id="text_20">
     <!-- y [m] -->
     <defs>
      <path d="M 32.171875 -5.078125 
Q 28.375 -14.84375 24.75 -17.8125 
Q 21.140625 -20.796875 15.09375 -20.796875 
L 7.90625 -20.796875 
L 7.90625 -13.28125 
L 13.1875 -13.28125 
Q 16.890625 -13.28125 18.9375 -11.515625 
Q 21 -9.765625 23.484375 -3.21875 
L 25.09375 0.875 
L 2.984375 54.6875 
L 12.5 54.6875 
L 29.59375 11.921875 
L 46.6875 54.6875 
L 56.203125 54.6875 
z
" id="DejaVuSans-121"/>
     </defs>
     <g transform="translate(20.211744 188.214513)rotate(-90)scale(0.1 -0.1)">
      <use xlink:href="#DejaVuSans-121"/>
      <use x="59.179688" xlink:href="#DejaVuSans-32"/>
      <use x="90.966797" xlink:href="#DejaVuSans-91"/>
      <use x="129.980469" xlink:href="#DejaVuSans-109"/>
      <use x="227.392578" xlink:href="#DejaVuSans-93"/>
     </g>
    </g>
   </g>
   <g id="line2d_19">
    <path clip-path="url(#p02a831f20d)" d="M 57.574244 39.259425 
L 357.398484 39.259425 
" style="fill:none;stroke:#000000;stroke-dasharray:2.775,1.2;stroke-dashoffset:0;stroke-width:0.75;"/>
   </g>
   <g id="line2d_20">
    <path clip-path="url(#p02a831f20d)" d="M 343.121139 324.80632 
L 343.121139 24.98208 
" style="fill:none;stroke:#000000;stroke-dasharray:2.775,1.2;stroke-dashoffset:0;stroke-width:0.75;"/>
   </g>
   <g id="line2d_21">
    <path clip-path="url(#p02a831f20d)" d="M 128.960967 253.419596 
L 128.960967 253.419596 
L 128.961263 253.27686 
L 128.970569 252.432149 
L 129.673045 244.617716 
L 131.474375 236.981352 
L 134.338297 229.67678 
L 138.207161 222.85104 
L 143.003085 216.641535 
L 148.629528 211.173265 
L 154.799143 206.21354 
L 160.925458 201.283424 
L 166.977068 196.269827 
L 173.050228 191.291678 
L 179.124497 186.315114 
L 185.194892 181.333864 
L 191.266074 176.35359 
L 197.144691 171.531922 
L 202.805703 166.888449 
L 208.256039 162.417747 
L 213.503565 158.113435 
L 218.555813 153.969303 
L 223.420048 149.979388 
L 228.103267 146.137951 
L 232.612207 142.439467 
L 236.953353 138.878617 
L 241.132951 135.450279 
L 245.157011 132.149521 
L 249.031321 128.971596 
L 252.761455 125.911932 
L 256.352777 122.96613 
L 259.810454 120.129951 
L 263.139459 117.399316 
L 266.344579 114.770298 
L 269.430426 112.239115 
L 272.401437 109.802126 
L 275.261887 107.455826 
L 278.015889 105.19684 
L 280.667406 103.021919 
L 283.22025 100.927934 
L 285.678093 98.911874 
L 288.044472 96.970839 
L 290.32279 95.102036 
L 292.516323 93.302778 
L 294.628227 91.570476 
L 296.66154 89.90264 
L 298.619186 88.29687 
L 300.503981 86.750856 
L 302.318637 85.262375 
L 304.065762 83.829285 
L 305.747871 82.449525 
L 307.367383 81.121112 
L 308.926627 79.842133 
L 310.427847 78.610749 
L 311.8732 77.42519 
L 313.264767 76.283749 
L 314.604549 75.184786 
L 315.894473 74.126719 
L 317.136394 73.108026 
L 318.332099 72.127242 
L 319.483307 71.182957 
L 320.591675 70.273812 
L 321.658797 69.398499 
L 322.686208 68.55576 
L 323.675384 67.744382 
L 324.627751 66.963198 
L 325.544676 66.211085 
L 326.427479 65.486961 
L 327.27743 64.789784 
L 328.095752 64.118551 
L 328.88362 63.472297 
L 329.64217 62.850093 
L 330.372491 62.251043 
L 331.075634 61.674285 
L 331.752611 61.118991 
L 332.404395 60.584362 
L 333.031924 60.069627 
L 333.636101 59.574048 
L 334.217794 59.096911 
L 334.77784 58.63753 
L 335.317044 58.195245 
L 335.836184 57.769418 
L 336.336004 57.359437 
L 336.817224 56.964714 
L 337.280536 56.58468 
L 337.726607 56.218788 
L 338.156077 55.866512 
L 338.569566 55.527345 
L 338.967668 55.2008 
L 339.350954 54.886407 
L 339.719977 54.583714 
L 340.075268 54.292285 
L 340.417337 54.011701 
L 340.746676 53.741559 
L 341.06376 53.481469 
L 341.369043 53.231058 
" style="fill:none;stroke:#0000ff;stroke-dasharray:1.85,0.8;stroke-dashoffset:0;stroke-width:0.5;"/>
   </g>
   <g id="patch_4">
    <path d="M 57.574244 324.80632 
L 57.574244 24.98208 
" style="fill:none;stroke:#000000;stroke-linecap:square;stroke-linejoin:miter;stroke-width:0.8;"/>
   </g>
   <g id="patch_5">
    <path d="M 357.398484 324.80632 
L 357.398484 24.98208 
" style="fill:none;stroke:#000000;stroke-linecap:square;stroke-linejoin:miter;stroke-width:0.8;"/>
   </g>
   <g id="patch_6">
    <path d="M 57.574244 324.80632 
L 357.398484 324.80632 
" style="fill:none;stroke:#000000;stroke-linecap:square;stroke-linejoin:miter;stroke-width:0.8;"/>
   </g>
   <g id="patch_7">
    <path d="M 57.574244 24.98208 
L 357.398484 24.98208 
" style="fill:none;stroke:#000000;stroke-linecap:square;stroke-linejoin:miter;stroke-width:0.8;"/>
   </g>
   <g id="text_21">
    <!-- Target -->
    <defs>
     <path d="M -0.296875 72.90625 
L 61.375 72.90625 
L 61.375 64.59375 
L 35.5 64.59375 
L 35.5 0 
L 25.59375 0 
L 25.59375 64.59375 
L -0.296875 64.59375 
z
" id="DejaVuSans-84"/>
     <path d="M 34.28125 27.484375 
Q 23.390625 27.484375 19.1875 25 
Q 14.984375 22.515625 14.984375 16.5 
Q 14.984375 11.71875 18.140625 8.90625 
Q 21.296875 6.109375 26.703125 6.109375 
Q 34.1875 6.109375 38.703125 11.40625 
Q 43.21875 16.703125 43.21875 25.484375 
L 43.21875 27.484375 
z
M 52.203125 31.203125 
L 52.203125 0 
L 43.21875 0 
L 43.21875 8.296875 
Q 40.140625 3.328125 35.546875 0.953125 
Q 30.953125 -1.421875 24.3125 -1.421875 
Q 15.921875 -1.421875 10.953125 3.296875 
Q 6 8.015625 6 15.921875 
Q 6 25.140625 12.171875 29.828125 
Q 18.359375 34.515625 30.609375 34.515625 
L 43.21875 34.515625 
L 43.21875 35.40625 
Q 43.21875 41.609375 39.140625 45 
Q 35.0625 48.390625 27.6875 48.390625 
Q 23 48.390625 18.546875 47.265625 
Q 14.109375 46.140625 10.015625 43.890625 
L 10.015625 52.203125 
Q 14.9375 54.109375 19.578125 55.046875 
Q 24.21875 56 28.609375 56 
Q 40.484375 56 46.34375 49.84375 
Q 52.203125 43.703125 52.203125 31.203125 
z
" id="DejaVuSans-97"/>
     <path d="M 41.109375 46.296875 
Q 39.59375 47.171875 37.8125 47.578125 
Q 36.03125 48 33.890625 48 
Q 26.265625 48 22.1875 43.046875 
Q 18.109375 38.09375 18.109375 28.8125 
L 18.109375 0 
L 9.078125 0 
L 9.078125 54.6875 
L 18.109375 54.6875 
L 18.109375 46.1875 
Q 20.953125 51.171875 25.484375 53.578125 
Q 30.03125 56 36.53125 56 
Q 37.453125 56 38.578125 55.875 
Q 39.703125 55.765625 41.0625 55.515625 
z
" id="DejaVuSans-114"/>
     <path d="M 45.40625 27.984375 
Q 45.40625 37.75 41.375 43.109375 
Q 37.359375 48.484375 30.078125 48.484375 
Q 22.859375 48.484375 18.828125 43.109375 
Q 14.796875 37.75 14.796875 27.984375 
Q 14.796875 18.265625 18.828125 12.890625 
Q 22.859375 7.515625 30.078125 7.515625 
Q 37.359375 7.515625 41.375 12.890625 
Q 45.40625 18.265625 45.40625 27.984375 
z
M 54.390625 6.78125 
Q 54.390625 -7.171875 48.1875 -13.984375 
Q 42 -20.796875 29.203125 -20.796875 
Q 24.46875 -20.796875 20.265625 -20.09375 
Q 16.0625 -19.390625 12.109375 -17.921875 
L 12.109375 -9.1875 
Q 16.0625 -11.328125 19.921875 -12.34375 
Q 23.78125 -13.375 27.78125 -13.375 
Q 36.625 -13.375 41.015625 -8.765625 
Q 45.40625 -4.15625 45.40625 5.171875 
L 45.40625 9.625 
Q 42.625 4.78125 38.28125 2.390625 
Q 33.9375 0 27.875 0 
Q 17.828125 0 11.671875 7.65625 
Q 5.515625 15.328125 5.515625 27.984375 
Q 5.515625 40.671875 11.671875 48.328125 
Q 17.828125 56 27.875 56 
Q 33.9375 56 38.28125 53.609375 
Q 42.625 51.21875 45.40625 46.390625 
L 45.40625 54.6875 
L 54.390625 54.6875 
z
" id="DejaVuSans-103"/>
     <path d="M 56.203125 29.59375 
L 56.203125 25.203125 
L 14.890625 25.203125 
Q 15.484375 15.921875 20.484375 11.0625 
Q 25.484375 6.203125 34.421875 6.203125 
Q 39.59375 6.203125 44.453125 7.46875 
Q 49.3125 8.734375 54.109375 11.28125 
L 54.109375 2.78125 
Q 49.265625 0.734375 44.1875 -0.34375 
Q 39.109375 -1.421875 33.890625 -1.421875 
Q 20.796875 -1.421875 13.15625 6.1875 
Q 5.515625 13.8125 5.515625 26.8125 
Q 5.515625 40.234375 12.765625 48.109375 
Q 20.015625 56 32.328125 56 
Q 43.359375 56 49.78125 48.890625 
Q 56.203125 41.796875 56.203125 29.59375 
z
M 47.21875 32.234375 
Q 47.125 39.59375 43.09375 43.984375 
Q 39.0625 48.390625 32.421875 48.390625 
Q 24.90625 48.390625 20.390625 44.140625 
Q 15.875 39.890625 15.1875 32.171875 
z
" id="DejaVuSans-101"/>
     <path d="M 18.3125 70.21875 
L 18.3125 54.6875 
L 36.8125 54.6875 
L 36.8125 47.703125 
L 18.3125 47.703125 
L 18.3125 18.015625 
Q 18.3125 11.328125 20.140625 9.421875 
Q 21.96875 7.515625 27.59375 7.515625 
L 36.8125 7.515625 
L 36.8125 0 
L 27.59375 0 
Q 17.1875 0 13.234375 3.875 
Q 9.28125 7.765625 9.28125 18.015625 
L 9.28125 47.703125 
L 2.6875 47.703125 
L 2.6875 54.6875 
L 9.28125 54.6875 
L 9.28125 70.21875 
z
" id="DejaVuSans-116"/>
    </defs>
    <g transform="translate(321.419575 57.723879)scale(0.1 -0.1)">
     <use xlink:href="#DejaVuSans-84"/>
     <use x="60.833984" xlink:href="#DejaVuSans-97"/>
     <use x="122.113281" xlink:href="#DejaVuSans-114"/>
     <use x="163.210938" xlink:href="#DejaVuSans-103"/>
     <use x="226.6875" xlink:href="#DejaVuSans-101"/>
     <use x="288.210938" xlink:href="#DejaVuSans-116"/>
    </g>
   </g>
   <g id="text_22">
    <!-- t = 4.606 -->
    <defs>
     <path d="M 10.59375 45.40625 
L 73.1875 45.40625 
L 73.1875 37.203125 
L 10.59375 37.203125 
z
M 10.59375 25.484375 
L 73.1875 25.484375 
L 73.1875 17.1875 
L 10.59375 17.1875 
z
" id="DejaVuSans-61"/>
     <path d="M 33.015625 40.375 
Q 26.375 40.375 22.484375 35.828125 
Q 18.609375 31.296875 18.609375 23.390625 
Q 18.609375 15.53125 22.484375 10.953125 
Q 26.375 6.390625 33.015625 6.390625 
Q 39.65625 6.390625 43.53125 10.953125 
Q 47.40625 15.53125 47.40625 23.390625 
Q 47.40625 31.296875 43.53125 35.828125 
Q 39.65625 40.375 33.015625 40.375 
z
M 52.59375 71.296875 
L 52.59375 62.3125 
Q 48.875 64.0625 45.09375 64.984375 
Q 41.3125 65.921875 37.59375 65.921875 
Q 27.828125 65.921875 22.671875 59.328125 
Q 17.53125 52.734375 16.796875 39.40625 
Q 19.671875 43.65625 24.015625 45.921875 
Q 28.375 48.1875 33.59375 48.1875 
Q 44.578125 48.1875 50.953125 41.515625 
Q 57.328125 34.859375 57.328125 23.390625 
Q 57.328125 12.15625 50.6875 5.359375 
Q 44.046875 -1.421875 33.015625 -1.421875 
Q 20.359375 -1.421875 13.671875 8.265625 
Q 6.984375 17.96875 6.984375 36.375 
Q 6.984375 53.65625 15.1875 63.9375 
Q 23.390625 74.21875 37.203125 74.21875 
Q 40.921875 74.21875 44.703125 73.484375 
Q 48.484375 72.75 52.59375 71.296875 
z
" id="DejaVuSans-54"/>
    </defs>
    <g transform="translate(72.565456 42.732667)scale(0.1 -0.1)">
     <use xlink:href="#DejaVuSans-116"/>
     <use x="39.208984" xlink:href="#DejaVuSans-32"/>
     <use x="70.996094" xlink:href="#DejaVuSans-61"/>
     <use x="154.785156" xlink:href="#DejaVuSans-32"/>
     <use x="186.572266" xlink:href="#DejaVuSans-52"/>
     <use x="250.195312" xlink:href="#DejaVuSans-46"/>
     <use x="281.982422" xlink:href="#DejaVuSans-54"/>
     <use x="345.605469" xlink:href="#DejaVuSans-48"/>
     <use x="409.228516" xlink:href="#DejaVuSans-54"/>
    </g>
   </g>
   <g id="text_23">
    <!-- Pause - space, q - quit, click - data cursor -->
    <defs>
     <path d="M 19.671875 64.796875 
L 19.671875 37.40625 
L 32.078125 37.40625 
Q 38.96875 37.40625 42.71875 40.96875 
Q 46.484375 44.53125 46.484375 51.125 
Q 46.484375 57.671875 42.71875 61.234375 
Q 38.96875 64.796875 32.078125 64.796875 
z
M 9.8125 72.90625 
L 32.078125 72.90625 
Q 44.34375 72.90625 50.609375 67.359375 
Q 56.890625 61.8125 56.890625 51.125 
Q 56.890625 40.328125 50.609375 34.8125 
Q 44.34375 29.296875 32.078125 29.296875 
L 19.671875 29.296875 
L 19.671875 0 
L 9.8125 0 
z
" id="DejaVuSans-80"/>
     <path d="M 8.5 21.578125 
L 8.5 54.6875 
L 17.484375 54.6875 
L 17.484375 21.921875 
Q 17.484375 14.15625 20.5 10.265625 
Q 23.53125 6.390625 29.59375 6.390625 
Q 36.859375 6.390625 41.078125 11.03125 
Q 45.3125 15.671875 45.3125 23.6875 
L 45.3125 54.6875 
L 54.296875 54.6875 
L 54.296875 0 
L 45.3125 0 
L 45.3125 8.40625 
Q 42.046875 3.421875 37.71875 1 
Q 33.40625 -1.421875 27.6875 -1.421875 
Q 18.265625 -1.421875 13.375 4.4375 
Q 8.5 10.296875 8.5 21.578125 
z
M 31.109375 56 
z
" id="DejaVuSans-117"/>
     <path d="M 44.28125 53.078125 
L 44.28125 44.578125 
Q 40.484375 46.53125 36.375 47.5 
Q 32.28125 48.484375 27.875 48.484375 
Q 21.1875 48.484375 17.84375 46.4375 
Q 14.5 44.390625 14.5 40.28125 
Q 14.5 37.15625 16.890625 35.375 
Q 19.28125 33.59375 26.515625 31.984375 
L 29.59375 31.296875 
Q 39.15625 29.25 43.1875 25.515625 
Q 47.21875 21.78125 47.21875 15.09375 
Q 47.21875 7.46875 41.1875 3.015625 
Q 35.15625 -1.421875 24.609375 -1.421875 
Q 20.21875 -1.421875 15.453125 -0.5625 
Q 10.6875 0.296875 5.421875 2 
L 5.421875 11.28125 
Q 10.40625 8.6875 15.234375 7.390625 
Q 20.0625 6.109375 24.8125 6.109375 
Q 31.15625 6.109375 34.5625 8.28125 
Q 37.984375 10.453125 37.984375 14.40625 
Q 37.984375 18.0625 35.515625 20.015625 
Q 33.0625 21.96875 24.703125 23.78125 
L 21.578125 24.515625 
Q 13.234375 26.265625 9.515625 29.90625 
Q 5.8125 33.546875 5.8125 39.890625 
Q 5.8125 47.609375 11.28125 51.796875 
Q 16.75 56 26.8125 56 
Q 31.78125 56 36.171875 55.265625 
Q 40.578125 54.546875 44.28125 53.078125 
z
" id="DejaVuSans-115"/>
     <path d="M 4.890625 31.390625 
L 31.203125 31.390625 
L 31.203125 23.390625 
L 4.890625 23.390625 
z
" id="DejaVuSans-45"/>
     <path d="M 18.109375 8.203125 
L 18.109375 -20.796875 
L 9.078125 -20.796875 
L 9.078125 54.6875 
L 18.109375 54.6875 
L 18.109375 46.390625 
Q 20.953125 51.265625 25.265625 53.625 
Q 29.59375 56 35.59375 56 
Q 45.5625 56 51.78125 48.09375 
Q 58.015625 40.1875 58.015625 27.296875 
Q 58.015625 14.40625 51.78125 6.484375 
Q 45.5625 -1.421875 35.59375 -1.421875 
Q 29.59375 -1.421875 25.265625 0.953125 
Q 20.953125 3.328125 18.109375 8.203125 
z
M 48.6875 27.296875 
Q 48.6875 37.203125 44.609375 42.84375 
Q 40.53125 48.484375 33.40625 48.484375 
Q 26.265625 48.484375 22.1875 42.84375 
Q 18.109375 37.203125 18.109375 27.296875 
Q 18.109375 17.390625 22.1875 11.75 
Q 26.265625 6.109375 33.40625 6.109375 
Q 40.53125 6.109375 44.609375 11.75 
Q 48.6875 17.390625 48.6875 27.296875 
z
" id="DejaVuSans-112"/>
     <path d="M 48.78125 52.59375 
L 48.78125 44.1875 
Q 44.96875 46.296875 41.140625 47.34375 
Q 37.3125 48.390625 33.40625 48.390625 
Q 24.65625 48.390625 19.8125 42.84375 
Q 14.984375 37.3125 14.984375 27.296875 
Q 14.984375 17.28125 19.8125 11.734375 
Q 24.65625 6.203125 33.40625 6.203125 
Q 37.3125 6.203125 41.140625 7.25 
Q 44.96875 8.296875 48.78125 10.40625 
L 48.78125 2.09375 
Q 45.015625 0.34375 40.984375 -0.53125 
Q 36.96875 -1.421875 32.421875 -1.421875 
Q 20.0625 -1.421875 12.78125 6.34375 
Q 5.515625 14.109375 5.515625 27.296875 
Q 5.515625 40.671875 12.859375 48.328125 
Q 20.21875 56 33.015625 56 
Q 37.15625 56 41.109375 55.140625 
Q 45.0625 54.296875 48.78125 52.59375 
z
" id="DejaVuSans-99"/>
     <path d="M 11.71875 12.40625 
L 22.015625 12.40625 
L 22.015625 4 
L 14.015625 -11.625 
L 7.71875 -11.625 
L 11.71875 4 
z
" id="DejaVuSans-44"/>
     <path d="M 14.796875 27.296875 
Q 14.796875 17.390625 18.875 11.75 
Q 22.953125 6.109375 30.078125 6.109375 
Q 37.203125 6.109375 41.296875 11.75 
Q 45.40625 17.390625 45.40625 27.296875 
Q 45.40625 37.203125 41.296875 42.84375 
Q 37.203125 48.484375 30.078125 48.484375 
Q 22.953125 48.484375 18.875 42.84375 
Q 14.796875 37.203125 14.796875 27.296875 
z
M 45.40625 8.203125 
Q 42.578125 3.328125 38.25 0.953125 
Q 33.9375 -1.421875 27.875 -1.421875 
Q 17.96875 -1.421875 11.734375 6.484375 
Q 5.515625 14.40625 5.515625 27.296875 
Q 5.515625 40.1875 11.734375 48.09375 
Q 17.96875 56 27.875 56 
Q 33.9375 56 38.25 53.625 
Q 42.578125 51.265625 45.40625 46.390625 
L 45.40625 54.6875 
L 54.390625 54.6875 
L 54.390625 -20.796875 
L 45.40625 -20.796875 
z
" id="DejaVuSans-113"/>
     <path d="M 9.421875 54.6875 
L 18.40625 54.6875 
L 18.40625 0 
L 9.421875 0 
z
M 9.421875 75.984375 
L 18.40625 75.984375 
L 18.40625 64.59375 
L 9.421875 64.59375 
z
" id="DejaVuSans-105"/>
     <path d="M 9.421875 75.984375 
L 18.40625 75.984375 
L 18.40625 0 
L 9.421875 0 
z
" id="DejaVuSans-108"/>
     <path d="M 9.078125 75.984375 
L 18.109375 75.984375 
L 18.109375 31.109375 
L 44.921875 54.6875 
L 56.390625 54.6875 
L 27.390625 29.109375 
L 57.625 0 
L 45.90625 0 
L 18.109375 26.703125 
L 18.109375 0 
L 9.078125 0 
z
" id="DejaVuSans-107"/>
     <path d="M 45.40625 46.390625 
L 45.40625 75.984375 
L 54.390625 75.984375 
L 54.390625 0 
L 45.40625 0 
L 45.40625 8.203125 
Q 42.578125 3.328125 38.25 0.953125 
Q 33.9375 -1.421875 27.875 -1.421875 
Q 17.96875 -1.421875 11.734375 6.484375 
Q 5.515625 14.40625 5.515625 27.296875 
Q 5.515625 40.1875 11.734375 48.09375 
Q 17.96875 56 27.875 56 
Q 33.9375 56 38.25 53.625 
Q 42.578125 51.265625 45.40625 46.390625 
z
M 14.796875 27.296875 
Q 14.796875 17.390625 18.875 11.75 
Q 22.953125 6.109375 30.078125 6.109375 
Q 37.203125 6.109375 41.296875 11.75 
Q 45.40625 17.390625 45.40625 27.296875 
Q 45.40625 37.203125 41.296875 42.84375 
Q 37.203125 48.484375 30.078125 48.484375 
Q 22.953125 48.484375 18.875 42.84375 
Q 14.796875 37.203125 14.796875 27.296875 
z
" id="DejaVuSans-100"/>
     <path d="M 30.609375 48.390625 
Q 23.390625 48.390625 19.1875 42.75 
Q 14.984375 37.109375 14.984375 27.296875 
Q 14.984375 17.484375 19.15625 11.84375 
Q 23.34375 6.203125 30.609375 6.203125 
Q 37.796875 6.203125 41.984375 11.859375 
Q 46.1875 17.53125 46.1875 27.296875 
Q 46.1875 37.015625 41.984375 42.703125 
Q 37.796875 48.390625 30.609375 48.390625 
z
M 30.609375 56 
Q 42.328125 56 49.015625 48.375 
Q 55.71875 40.765625 55.71875 27.296875 
Q 55.71875 13.875 49.015625 6.21875 
Q 42.328125 -1.421875 30.609375 -1.421875 
Q 18.84375 -1.421875 12.171875 6.21875 
Q 5.515625 13.875 5.515625 27.296875 
Q 5.515625 40.765625 12.171875 48.375 
Q 18.84375 56 30.609375 56 
z
" id="DejaVuSans-111"/>
    </defs>
    <g transform="translate(83.310739 18.98208)scale(0.12 -0.12)">
     <use xlink:href="#DejaVuSans-80"/>
     <use x="60.240234" xlink:href="#DejaVuSans-97"/>
     <use x="121.519531" xlink:href="#DejaVuSans-117"/>
     <use x="184.898438" xlink:href="#DejaVuSans-115"/>
     <use x="236.998047" xlink:href="#DejaVuSans-101"/>
     <use x="298.521484" xlink:href="#DejaVuSans-32"/>
     <use x="330.308594" xlink:href="#DejaVuSans-45"/>
     <use x="366.392578" xlink:href="#DejaVuSans-32"/>
     <use x="398.179688" xlink:href="#DejaVuSans-115"/>
     <use x="450.279297" xlink:href="#DejaVuSans-112"/>
     <use x="513.755859" xlink:href="#DejaVuSans-97"/>
     <use x="575.035156" xlink:href="#DejaVuSans-99"/>
     <use x="630.015625" xlink:href="#DejaVuSans-101"/>
     <use x="691.539062" xlink:href="#DejaVuSans-44"/>
     <use x="723.326172" xlink:href="#DejaVuSans-32"/>
     <use x="755.113281" xlink:href="#DejaVuSans-113"/>
     <use x="818.589844" xlink:href="#DejaVuSans-32"/>
     <use x="850.376953" xlink:href="#DejaVuSans-45"/>
     <use x="886.460938" xlink:href="#DejaVuSans-32"/>
     <use x="918.248047" xlink:href="#DejaVuSans-113"/>
     <use x="981.724609" xlink:href="#DejaVuSans-117"/>
     <use x="1045.103516" xlink:href="#DejaVuSans-105"/>
     <use x="1072.886719" xlink:href="#DejaVuSans-116"/>
     <use x="1112.095703" xlink:href="#DejaVuSans-44"/>
     <use x="1143.882812" xlink:href="#DejaVuSans-32"/>
     <use x="1175.669922" xlink:href="#DejaVuSans-99"/>
     <use x="1230.650391" xlink:href="#DejaVuSans-108"/>
     <use x="1258.433594" xlink:href="#DejaVuSans-105"/>
     <use x="1286.216797" xlink:href="#DejaVuSans-99"/>
     <use x="1341.197266" xlink:href="#DejaVuSans-107"/>
     <use x="1399.107422" xlink:href="#DejaVuSans-32"/>
     <use x="1430.894531" xlink:href="#DejaVuSans-45"/>
     <use x="1466.978516" xlink:href="#DejaVuSans-32"/>
     <use x="1498.765625" xlink:href="#DejaVuSans-100"/>
     <use x="1562.242188" xlink:href="#DejaVuSans-97"/>
     <use x="1623.521484" xlink:href="#DejaVuSans-116"/>
     <use x="1662.730469" xlink:href="#DejaVuSans-97"/>
     <use x="1724.009766" xlink:href="#DejaVuSans-32"/>
     <use x="1755.796875" xlink:href="#DejaVuSans-99"/>
     <use x="1810.777344" xlink:href="#DejaVuSans-117"/>
     <use x="1874.15625" xlink:href="#DejaVuSans-114"/>
     <use x="1915.269531" xlink:href="#DejaVuSans-115"/>
     <use x="1967.369141" xlink:href="#DejaVuSans-111"/>
     <use x="2028.550781" xlink:href="#DejaVuSans-114"/>
    </g>
   </g>
  </g>
  <g id="axes_2">
   <g id="patch_8">
    <path d="M 398.560909 324.80632 
L 702.81 324.80632 
L 702.81 24.98208 
L 398.560909 24.98208 
z
" style="fill:#ffffff;"/>
   </g>
   <g id="matplotlib.axis_3">
    <g id="xtick_10">
     <g id="line2d_22">
      <g>
       <use style="stroke:#000000;stroke-width:0.8;" x="398.560909" xlink:href="#md8f0eb626a" y="324.80632"/>
      </g>
     </g>
     <g id="text_24">
      <!-- 0 -->
      <g transform="translate(395.379659 339.404758)scale(0.1 -0.1)">
       <use xlink:href="#DejaVuSans-48"/>
      </g>
     </g>
    </g>
    <g id="xtick_11">
     <g id="line2d_23">
      <g>
       <use style="stroke:#000000;stroke-width:0.8;" x="449.269091" xlink:href="#md8f0eb626a" y="324.80632"/>
      </g>
     </g>
     <g id="text_25">
      <!-- 5 -->
      <g transform="translate(446.087841 339.404758)scale(0.1 -0.1)">
       <use xlink:href="#DejaVuSans-53"/>
      </g>
     </g>
    </g>
    <g id="xtick_12">
     <g id="line2d_24">
      <g>
       <use style="stroke:#000000;stroke-width:0.8;" x="499.977273" xlink:href="#md8f0eb626a" y="324.80632"/>
      </g>
     </g>
     <g id="text_26">
      <!-- 10 -->
      <g transform="translate(493.614773 339.404758)scale(0.1 -0.1)">
       <use xlink:href="#DejaVuSans-49"/>
       <use x="63.623047" xlink:href="#DejaVuSans-48"/>
      </g>
     </g>
    </g>
    <g id="xtick_13">
     <g id="line2d_25">
      <g>
       <use style="stroke:#000000;stroke-width:0.8;" x="550.685455" xlink:href="#md8f0eb626a" y="324.80632"/>
      </g>
     </g>
     <g id="text_27">
      <!-- 15 -->
      <g transform="translate(544.322955 339.404758)scale(0.1 -0.1)">
       <use xlink:href="#DejaVuSans-49"/>
       <use x="63.623047" xlink:href="#DejaVuSans-53"/>
      </g>
     </g>
    </g>
    <g id="xtick_14">
     <g id="line2d_26">
      <g>
       <use style="stroke:#000000;stroke-width:0.8;" x="601.393636" xlink:href="#md8f0eb626a" y="324.80632"/>
      </g>
     </g>
     <g id="text_28">
      <!-- 20 -->
      <g transform="translate(595.031136 339.404758)scale(0.1 -0.1)">
       <use xlink:href="#DejaVuSans-50"/>
       <use x="63.623047" xlink:href="#DejaVuSans-48"/>
      </g>
     </g>
    </g>
    <g id="xtick_15">
     <g id="line2d_27">
      <g>
       <use style="stroke:#000000;stroke-width:0.8;" x="652.101818" xlink:href="#md8f0eb626a" y="324.80632"/>
      </g>
     </g>
     <g id="text_29">
      <!-- 25 -->
      <g transform="translate(645.739318 339.404758)scale(0.1 -0.1)">
       <use xlink:href="#DejaVuSans-50"/>
       <use x="63.623047" xlink:href="#DejaVuSans-53"/>
      </g>
     </g>
    </g>
    <g id="xtick_16">
     <g id="line2d_28">
      <g>
       <use style="stroke:#000000;stroke-width:0.8;" x="702.81" xlink:href="#md8f0eb626a" y="324.80632"/>
      </g>
     </g>
     <g id="text_30">
      <!-- 30 -->
      <g transform="translate(696.4475 339.404758)scale(0.1 -0.1)">
       <use xlink:href="#DejaVuSans-51"/>
       <use x="63.623047" xlink:href="#DejaVuSans-48"/>
      </g>
     </g>
    </g>
    <g id="text_31">
     <!-- t [s] -->
     <g transform="translate(540.629986 353.082883)scale(0.1 -0.1)">
      <use xlink:href="#DejaVuSans-116"/>
      <use x="39.208984" xlink:href="#DejaVuSans-32"/>
      <use x="70.996094" xlink:href="#DejaVuSans-91"/>
      <use x="110.009766" xlink:href="#DejaVuSans-115"/>
      <use x="162.109375" xlink:href="#DejaVuSans-93"/>
     </g>
    </g>
   </g>
   <g id="matplotlib.axis_4">
    <g id="ytick_10">
     <g id="line2d_29">
      <g>
       <use style="stroke:#000000;stroke-width:0.8;" x="398.560909" xlink:href="#m5ac97fd4af" y="311.177945"/>
      </g>
     </g>
     <g id="text_32">
      <!-- −8 -->
      <defs>
       <path d="M 31.78125 34.625 
Q 24.75 34.625 20.71875 30.859375 
Q 16.703125 27.09375 16.703125 20.515625 
Q 16.703125 13.921875 20.71875 10.15625 
Q 24.75 6.390625 31.78125 6.390625 
Q 38.8125 6.390625 42.859375 10.171875 
Q 46.921875 13.96875 46.921875 20.515625 
Q 46.921875 27.09375 42.890625 30.859375 
Q 38.875 34.625 31.78125 34.625 
z
M 21.921875 38.8125 
Q 15.578125 40.375 12.03125 44.71875 
Q 8.5 49.078125 8.5 55.328125 
Q 8.5 64.0625 14.71875 69.140625 
Q 20.953125 74.21875 31.78125 74.21875 
Q 42.671875 74.21875 48.875 69.140625 
Q 55.078125 64.0625 55.078125 55.328125 
Q 55.078125 49.078125 51.53125 44.71875 
Q 48 40.375 41.703125 38.8125 
Q 48.828125 37.15625 52.796875 32.3125 
Q 56.78125 27.484375 56.78125 20.515625 
Q 56.78125 9.90625 50.3125 4.234375 
Q 43.84375 -1.421875 31.78125 -1.421875 
Q 19.734375 -1.421875 13.25 4.234375 
Q 6.78125 9.90625 6.78125 20.515625 
Q 6.78125 27.484375 10.78125 32.3125 
Q 14.796875 37.15625 21.921875 38.8125 
z
M 18.3125 54.390625 
Q 18.3125 48.734375 21.84375 45.5625 
Q 25.390625 42.390625 31.78125 42.390625 
Q 38.140625 42.390625 41.71875 45.5625 
Q 45.3125 48.734375 45.3125 54.390625 
Q 45.3125 60.0625 41.71875 63.234375 
Q 38.140625 66.40625 31.78125 66.40625 
Q 25.390625 66.40625 21.84375 63.234375 
Q 18.3125 60.0625 18.3125 54.390625 
z
" id="DejaVuSans-56"/>
      </defs>
      <g transform="translate(376.818722 314.977164)scale(0.1 -0.1)">
       <use xlink:href="#DejaVuSans-8722"/>
       <use x="83.789062" xlink:href="#DejaVuSans-56"/>
      </g>
     </g>
    </g>
    <g id="ytick_11">
     <g id="line2d_30">
      <g>
       <use style="stroke:#000000;stroke-width:0.8;" x="398.560909" xlink:href="#m5ac97fd4af" y="277.107009"/>
      </g>
     </g>
     <g id="text_33">
      <!-- −6 -->
      <g transform="translate(376.818722 280.906228)scale(0.1 -0.1)">
       <use xlink:href="#DejaVuSans-8722"/>
       <use x="83.789062" xlink:href="#DejaVuSans-54"/>
      </g>
     </g>
    </g>
    <g id="ytick_12">
     <g id="line2d_31">
      <g>
       <use style="stroke:#000000;stroke-width:0.8;" x="398.560909" xlink:href="#m5ac97fd4af" y="243.036073"/>
      </g>
     </g>
     <g id="text_34">
      <!-- −4 -->
      <g transform="translate(376.818722 246.835291)scale(0.1 -0.1)">
       <use xlink:href="#DejaVuSans-8722"/>
       <use x="83.789062" xlink:href="#DejaVuSans-52"/>
      </g>
     </g>
    </g>
    <g id="ytick_13">
     <g id="line2d_32">
      <g>
       <use style="stroke:#000000;stroke-width:0.8;" x="398.560909" xlink:href="#m5ac97fd4af" y="208.965136"/>
      </g>
     </g>
     <g id="text_35">
      <!-- −2 -->
      <g transform="translate(376.818722 212.764355)scale(0.1 -0.1)">
       <use xlink:href="#DejaVuSans-8722"/>
       <use x="83.789062" xlink:href="#DejaVuSans-50"/>
      </g>
     </g>
    </g>
    <g id="ytick_14">
     <g id="line2d_33">
      <g>
       <use style="stroke:#000000;stroke-width:0.8;" x="398.560909" xlink:href="#m5ac97fd4af" y="174.8942"/>
      </g>
     </g>
     <g id="text_36">
      <!-- 0 -->
      <g transform="translate(385.198409 178.693419)scale(0.1 -0.1)">
       <use xlink:href="#DejaVuSans-48"/>
      </g>
     </g>
    </g>
    <g id="ytick_15">
     <g id="line2d_34">
      <g>
       <use style="stroke:#000000;stroke-width:0.8;" x="398.560909" xlink:href="#m5ac97fd4af" y="140.823264"/>
      </g>
     </g>
     <g id="text_37">
      <!-- 2 -->
      <g transform="translate(385.198409 144.622482)scale(0.1 -0.1)">
       <use xlink:href="#DejaVuSans-50"/>
      </g>
     </g>
    </g>
    <g id="ytick_16">
     <g id="line2d_35">
      <g>
       <use style="stroke:#000000;stroke-width:0.8;" x="398.560909" xlink:href="#m5ac97fd4af" y="106.752327"/>
      </g>
     </g>
     <g id="text_38">
      <!-- 4 -->
      <g transform="translate(385.198409 110.551546)scale(0.1 -0.1)">
       <use xlink:href="#DejaVuSans-52"/>
      </g>
     </g>
    </g>
    <g id="ytick_17">
     <g id="line2d_36">
      <g>
       <use style="stroke:#000000;stroke-width:0.8;" x="398.560909" xlink:href="#m5ac97fd4af" y="72.681391"/>
      </g>
     </g>
     <g id="text_39">
      <!-- 6 -->
      <g transform="translate(385.198409 76.48061)scale(0.1 -0.1)">
       <use xlink:href="#DejaVuSans-54"/>
      </g>
     </g>
    </g>
    <g id="ytick_18">
     <g id="line2d_37">
      <g>
       <use style="stroke:#000000;stroke-width:0.8;" x="398.560909" xlink:href="#m5ac97fd4af" y="38.610455"/>
      </g>
     </g>
     <g id="text_40">
      <!-- 8 -->
      <g transform="translate(385.198409 42.409673)scale(0.1 -0.1)">
       <use xlink:href="#DejaVuSans-56"/>
      </g>
     </g>
    </g>
   </g>
   <g id="line2d_38">
    <path clip-path="url(#p96d2cc9817)" d="M 398.560909 174.8942 
L 702.81 174.8942 
" style="fill:none;stroke:#000000;stroke-dasharray:2.775,1.2;stroke-dashoffset:0;stroke-width:0.75;"/>
   </g>
   <g id="line2d_39">
    <path clip-path="url(#p96d2cc9817)" d="M 398.560909 102.61883 
L 398.561923 102.61883 
L 398.572065 102.642961 
L 398.626616 102.786884 
L 399.133698 104.211045 
L 399.64078 105.776806 
L 400.147862 107.461355 
L 400.654944 109.238567 
L 401.162025 111.07887 
L 401.669107 112.949166 
L 402.176189 114.836083 
L 402.683271 116.710444 
L 403.190353 118.584614 
L 403.697435 120.456898 
L 404.204516 122.329009 
L 404.711598 124.201048 
L 405.21868 126.072926 
L 405.725762 127.885176 
L 406.232844 129.630229 
L 406.739925 131.310179 
L 407.247007 132.927438 
L 407.754089 134.484335 
L 408.261171 135.983107 
L 408.768253 137.425912 
L 409.275335 138.814824 
L 409.782416 140.151842 
L 410.289498 141.438887 
L 410.79658 142.677813 
L 411.303662 143.870401 
L 411.810744 145.018367 
L 412.317825 146.123361 
L 412.824907 147.186974 
L 413.331989 148.210736 
L 413.839071 149.196119 
L 414.346153 150.144541 
L 414.853235 151.057367 
L 415.360316 151.935909 
L 415.867398 152.781433 
L 416.37448 153.595153 
L 416.881562 154.378242 
L 417.388644 155.131826 
L 417.895725 155.85699 
L 418.402807 156.554777 
L 418.909889 157.226192 
L 419.416971 157.872202 
L 419.924053 158.493735 
L 420.431135 159.091688 
L 420.938216 159.666922 
L 421.445298 160.220265 
L 421.95238 160.752514 
L 422.459462 161.264437 
L 422.966544 161.756771 
L 423.473625 162.230227 
L 423.980707 162.685488 
L 424.487789 163.123211 
L 424.994871 163.544027 
L 425.501953 163.948547 
L 426.009035 164.337354 
L 426.516116 164.711011 
L 427.023198 165.07006 
L 427.53028 165.415021 
L 428.037362 165.746397 
L 428.544444 166.064668 
L 429.051525 166.370299 
L 429.558607 166.663735 
L 430.065689 166.945408 
L 430.572771 167.215729 
L 431.079853 167.475096 
L 431.586935 167.723893 
L 432.094016 167.962488 
L 432.601098 168.191236 
L 433.10818 168.410479 
L 433.615262 168.620548 
L 434.122344 168.821759 
L 434.629425 169.01442 
L 435.136507 169.198827 
L 435.643589 169.375264 
L 436.150671 169.544007 
L 436.657753 169.705324 
L 437.164835 169.859473 
L 437.671916 170.006701 
L 438.178998 170.147253 
L 438.68608 170.281361 
L 439.193162 170.409254 
L 439.700244 170.531153 
L 440.207325 170.647271 
L 440.714407 170.757818 
L 441.221489 170.862996 
L 441.728571 170.963005 
L 442.235653 171.058037 
L 442.742735 171.14828 
L 443.249816 171.233918 
L 443.756898 171.31513 
L 444.26398 171.392092 
L 444.771062 171.464975 
L 445.278144 171.533946 
" style="fill:none;stroke:#0000ff;stroke-linecap:square;stroke-width:0.5;"/>
   </g>
   <g id="line2d_40">
    <path clip-path="url(#p96d2cc9817)" d="M 398.560909 148.148515 
L 398.561923 148.148515 
L 398.572065 148.192486 
L 398.626616 148.452724 
L 399.133698 150.871761 
L 399.64078 153.290797 
L 400.147862 155.709834 
L 400.654944 158.12887 
L 401.162025 160.547907 
L 401.669107 162.966943 
L 402.176189 163.519799 
L 402.683271 163.09966 
L 403.190353 163.175113 
L 403.697435 163.208989 
L 404.204516 163.189041 
L 404.711598 163.189497 
L 405.21868 163.191942 
L 405.725762 163.191485 
L 406.232844 163.191251 
L 406.739925 163.191323 
L 407.247007 163.191346 
L 407.754089 163.191338 
L 408.261171 163.191335 
L 408.768253 163.191336 
L 409.275335 163.191336 
L 409.782416 163.191336 
L 410.289498 163.191336 
L 410.79658 163.191336 
L 411.303662 163.191336 
L 411.810744 163.191336 
L 412.317825 163.191336 
L 412.824907 163.191336 
L 413.331989 163.191336 
L 413.839071 163.191336 
L 414.346153 163.191336 
L 414.853235 163.191336 
L 415.360316 163.191336 
L 415.867398 163.191336 
L 416.37448 163.191336 
L 416.881562 163.191336 
L 417.388644 163.191336 
L 417.895725 163.191336 
L 418.402807 163.191336 
L 418.909889 163.191336 
L 419.416971 163.191336 
L 419.924053 163.191336 
L 420.431135 163.191336 
L 420.938216 163.191336 
L 421.445298 163.191336 
L 421.95238 163.191336 
L 422.459462 163.191336 
L 422.966544 163.191336 
L 423.473625 163.191336 
L 423.980707 163.191336 
L 424.487789 163.191336 
L 424.994871 163.191336 
L 425.501953 163.191336 
L 426.009035 163.191336 
L 426.516116 163.191336 
L 427.023198 163.191336 
L 427.53028 163.191336 
L 428.037362 163.191336 
L 428.544444 163.191336 
L 429.051525 163.191336 
L 429.558607 163.191336 
L 430.065689 163.191336 
L 430.572771 163.191336 
L 431.079853 163.191336 
L 431.586935 163.191336 
L 432.094016 163.191336 
L 432.601098 163.191336 
L 433.10818 163.191336 
L 433.615262 163.191336 
L 434.122344 163.191336 
L 434.629425 163.191336 
L 435.136507 163.191336 
L 435.643589 163.191336 
L 436.150671 163.191336 
L 436.657753 163.191336 
L 437.164835 163.191336 
L 437.671916 163.191336 
L 438.178998 163.191336 
L 438.68608 163.191336 
L 439.193162 163.191336 
L 439.700244 163.191336 
L 440.207325 163.191336 
L 440.714407 163.191336 
L 441.221489 163.191336 
L 441.728571 163.191336 
L 442.235653 163.191336 
L 442.742735 163.191336 
L 443.249816 163.191336 
L 443.756898 163.191336 
L 444.26398 163.191336 
L 444.771062 163.191336 
L 445.278144 163.191336 
" style="fill:none;stroke:#ff0000;stroke-linecap:square;stroke-width:0.5;"/>
   </g>
   <g id="patch_9">
    <path d="M 398.560909 324.80632 
L 398.560909 24.98208 
" style="fill:none;stroke:#000000;stroke-linecap:square;stroke-linejoin:miter;stroke-width:0.8;"/>
   </g>
   <g id="patch_10">
    <path d="M 702.81 324.80632 
L 702.81 24.98208 
" style="fill:none;stroke:#000000;stroke-linecap:square;stroke-linejoin:miter;stroke-width:0.8;"/>
   </g>
   <g id="patch_11">
    <path d="M 398.560909 324.80632 
L 702.81 324.80632 
" style="fill:none;stroke:#000000;stroke-linecap:square;stroke-linejoin:miter;stroke-width:0.8;"/>
   </g>
   <g id="patch_12">
    <path d="M 398.560909 24.98208 
L 702.81 24.98208 
" style="fill:none;stroke:#000000;stroke-linecap:square;stroke-linejoin:miter;stroke-width:0.8;"/>
   </g>
   <g id="legend_1">
    <g id="patch_13">
     <path d="M 608.31 62.760205 
L 695.81 62.760205 
Q 697.81 62.760205 697.81 60.760205 
L 697.81 31.98208 
Q 697.81 29.98208 695.81 29.98208 
L 608.31 29.98208 
Q 606.31 29.98208 606.31 31.98208 
L 606.31 60.760205 
Q 606.31 62.760205 608.31 62.760205 
z
" style="fill:#ffffff;opacity:0.8;stroke:#cccccc;stroke-linejoin:miter;"/>
    </g>
    <g id="line2d_41">
     <path d="M 610.31 38.18208 
L 630.31 38.18208 
" style="fill:none;stroke:#0000ff;stroke-linecap:square;stroke-width:0.5;"/>
    </g>
    <g id="line2d_42"/>
    <g id="text_41">
     <!-- $\Vert(x,y)\Vert$ [m] -->
     <defs>
      <path d="M 21 76.421875 
L 21 -23.578125 
L 12.703125 -23.578125 
L 12.703125 76.421875 
z
M 37.109375 76.421875 
L 37.109375 -23.578125 
L 28.8125 -23.578125 
L 28.8125 76.421875 
z
" id="DejaVuSans-8214"/>
      <path d="M 31 75.875 
Q 24.46875 64.65625 21.28125 53.65625 
Q 18.109375 42.671875 18.109375 31.390625 
Q 18.109375 20.125 21.3125 9.0625 
Q 24.515625 -2 31 -13.1875 
L 23.1875 -13.1875 
Q 15.875 -1.703125 12.234375 9.375 
Q 8.59375 20.453125 8.59375 31.390625 
Q 8.59375 42.28125 12.203125 53.3125 
Q 15.828125 64.359375 23.1875 75.875 
z
" id="DejaVuSans-40"/>
      <path d="M 60.015625 54.6875 
L 34.90625 27.875 
L 50.296875 0 
L 39.984375 0 
L 28.421875 21.6875 
L 8.296875 0 
L -2.59375 0 
L 24.3125 28.8125 
L 10.015625 54.6875 
L 20.3125 54.6875 
L 30.8125 34.90625 
L 49.125 54.6875 
z
" id="DejaVuSans-Oblique-120"/>
      <path d="M 24.8125 -5.078125 
Q 18.5625 -15.578125 14.625 -18.1875 
Q 10.6875 -20.796875 4.59375 -20.796875 
L -2.484375 -20.796875 
L -0.984375 -13.28125 
L 4.203125 -13.28125 
Q 7.953125 -13.28125 10.59375 -11.234375 
Q 13.234375 -9.1875 16.5 -3.21875 
L 19.28125 2 
L 7.171875 54.6875 
L 16.703125 54.6875 
L 25.78125 12.796875 
L 50.875 54.6875 
L 60.296875 54.6875 
z
" id="DejaVuSans-Oblique-121"/>
      <path d="M 8.015625 75.875 
L 15.828125 75.875 
Q 23.140625 64.359375 26.78125 53.3125 
Q 30.421875 42.28125 30.421875 31.390625 
Q 30.421875 20.453125 26.78125 9.375 
Q 23.140625 -1.703125 15.828125 -13.1875 
L 8.015625 -13.1875 
Q 14.5 -2 17.703125 9.0625 
Q 20.90625 20.125 20.90625 31.390625 
Q 20.90625 42.671875 17.703125 53.65625 
Q 14.5 64.65625 8.015625 75.875 
z
" id="DejaVuSans-41"/>
     </defs>
     <g transform="translate(638.31 41.68208)scale(0.1 -0.1)">
      <use transform="translate(0 0.578125)" xlink:href="#DejaVuSans-8214"/>
      <use transform="translate(50 0.578125)" xlink:href="#DejaVuSans-40"/>
      <use transform="translate(89.013672 0.578125)" xlink:href="#DejaVuSans-Oblique-120"/>
      <use transform="translate(148.193359 0.578125)" xlink:href="#DejaVuSans-44"/>
      <use transform="translate(199.462891 0.578125)" xlink:href="#DejaVuSans-Oblique-121"/>
      <use transform="translate(258.642578 0.578125)" xlink:href="#DejaVuSans-41"/>
      <use transform="translate(297.65625 0.578125)" xlink:href="#DejaVuSans-8214"/>
      <use transform="translate(347.65625 0.578125)" xlink:href="#DejaVuSans-32"/>
      <use transform="translate(379.443359 0.578125)" xlink:href="#DejaVuSans-91"/>
      <use transform="translate(418.457031 0.578125)" xlink:href="#DejaVuSans-109"/>
      <use transform="translate(515.869141 0.578125)" xlink:href="#DejaVuSans-93"/>
     </g>
    </g>
    <g id="line2d_43">
     <path d="M 610.31 53.180518 
L 630.31 53.180518 
" style="fill:none;stroke:#ff0000;stroke-linecap:square;stroke-width:0.5;"/>
    </g>
    <g id="line2d_44"/>
    <g id="text_42">
     <!-- $\alpha$ [rad] -->
     <defs>
      <path d="M 40.921875 25.4375 
L 40.96875 36.71875 
Q 41.015625 48.25 32.328125 48.296875 
Q 25.828125 48.34375 21.78125 42.921875 
Q 16.703125 36.234375 14.984375 27.296875 
Q 12.890625 16.546875 15.53125 11.421875 
Q 18.265625 6.203125 24.171875 6.203125 
Q 30.71875 6.203125 36.234375 16.609375 
z
M 33.84375 55.90625 
Q 49.078125 56.15625 48.875 40.375 
Q 48.875 40.375 56.5 54.6875 
L 64.5 54.6875 
L 48.734375 25.046875 
L 48.578125 14.359375 
Q 48.578125 11.96875 49.90625 9.96875 
Q 51.421875 7.625 52.984375 7.625 
L 57.328125 7.625 
L 55.859375 0 
L 50.4375 0 
Q 45.84375 0 42.53125 4.109375 
Q 40.96875 6.15625 40.921875 10.453125 
Q 37.75 5.21875 32.28125 0.78125 
Q 29.6875 -1.265625 22.703125 -1.21875 
Q 11.28125 -1.125 7.125 6.203125 
Q 2.875 13.8125 5.515625 27.296875 
Q 8.34375 41.796875 15.765625 48.390625 
Q 24.125 55.765625 33.84375 55.90625 
z
" id="DejaVuSans-Oblique-945"/>
     </defs>
     <g transform="translate(638.31 56.680518)scale(0.1 -0.1)">
      <use transform="translate(0 0.015625)" xlink:href="#DejaVuSans-Oblique-945"/>
      <use transform="translate(65.917969 0.015625)" xlink:href="#DejaVuSans-32"/>
      <use transform="translate(97.705078 0.015625)" xlink:href="#DejaVuSans-91"/>
      <use transform="translate(136.71875 0.015625)" xlink:href="#DejaVuSans-114"/>
      <use transform="translate(177.832031 0.015625)" xlink:href="#DejaVuSans-97"/>
      <use transform="translate(239.111328 0.015625)" xlink:href="#DejaVuSans-100"/>
      <use transform="translate(302.587891 0.015625)" xlink:href="#DejaVuSans-93"/>
     </g>
    </g>
   </g>
  </g>
  <g id="axes_3">
   <g id="patch_14">
    <path d="M 55.361818 665.83528 
L 359.610909 665.83528 
L 359.610909 366.01104 
L 55.361818 366.01104 
z
" style="fill:#ffffff;"/>
   </g>
   <g id="matplotlib.axis_5">
    <g id="xtick_17">
     <g id="line2d_45">
      <g>
       <use style="stroke:#000000;stroke-width:0.8;" x="55.361818" xlink:href="#md8f0eb626a" y="665.83528"/>
      </g>
     </g>
     <g id="text_43">
      <!-- 0 -->
      <g transform="translate(52.180568 680.433718)scale(0.1 -0.1)">
       <use xlink:href="#DejaVuSans-48"/>
      </g>
     </g>
    </g>
    <g id="xtick_18">
     <g id="line2d_46">
      <g>
       <use style="stroke:#000000;stroke-width:0.8;" x="106.07" xlink:href="#md8f0eb626a" y="665.83528"/>
      </g>
     </g>
     <g id="text_44">
      <!-- 5 -->
      <g transform="translate(102.88875 680.433718)scale(0.1 -0.1)">
       <use xlink:href="#DejaVuSans-53"/>
      </g>
     </g>
    </g>
    <g id="xtick_19">
     <g id="line2d_47">
      <g>
       <use style="stroke:#000000;stroke-width:0.8;" x="156.778182" xlink:href="#md8f0eb626a" y="665.83528"/>
      </g>
     </g>
     <g id="text_45">
      <!-- 10 -->
      <g transform="translate(150.415682 680.433718)scale(0.1 -0.1)">
       <use xlink:href="#DejaVuSans-49"/>
       <use x="63.623047" xlink:href="#DejaVuSans-48"/>
      </g>
     </g>
    </g>
    <g id="xtick_20">
     <g id="line2d_48">
      <g>
       <use style="stroke:#000000;stroke-width:0.8;" x="207.486364" xlink:href="#md8f0eb626a" y="665.83528"/>
      </g>
     </g>
     <g id="text_46">
      <!-- 15 -->
      <g transform="translate(201.123864 680.433718)scale(0.1 -0.1)">
       <use xlink:href="#DejaVuSans-49"/>
       <use x="63.623047" xlink:href="#DejaVuSans-53"/>
      </g>
     </g>
    </g>
    <g id="xtick_21">
     <g id="line2d_49">
      <g>
       <use style="stroke:#000000;stroke-width:0.8;" x="258.194545" xlink:href="#md8f0eb626a" y="665.83528"/>
      </g>
     </g>
     <g id="text_47">
      <!-- 20 -->
      <g transform="translate(251.832045 680.433718)scale(0.1 -0.1)">
       <use xlink:href="#DejaVuSans-50"/>
       <use x="63.623047" xlink:href="#DejaVuSans-48"/>
      </g>
     </g>
    </g>
    <g id="xtick_22">
     <g id="line2d_50">
      <g>
       <use style="stroke:#000000;stroke-width:0.8;" x="308.902727" xlink:href="#md8f0eb626a" y="665.83528"/>
      </g>
     </g>
     <g id="text_48">
      <!-- 25 -->
      <g transform="translate(302.540227 680.433718)scale(0.1 -0.1)">
       <use xlink:href="#DejaVuSans-50"/>
       <use x="63.623047" xlink:href="#DejaVuSans-53"/>
      </g>
     </g>
    </g>
    <g id="xtick_23">
     <g id="line2d_51">
      <g>
       <use style="stroke:#000000;stroke-width:0.8;" x="359.610909" xlink:href="#md8f0eb626a" y="665.83528"/>
      </g>
     </g>
     <g id="text_49">
      <!-- 30 -->
      <g transform="translate(353.248409 680.433718)scale(0.1 -0.1)">
       <use xlink:href="#DejaVuSans-51"/>
       <use x="63.623047" xlink:href="#DejaVuSans-48"/>
      </g>
     </g>
    </g>
    <g id="text_50">
     <!-- t [s] -->
     <g transform="translate(197.430895 694.111843)scale(0.1 -0.1)">
      <use xlink:href="#DejaVuSans-116"/>
      <use x="39.208984" xlink:href="#DejaVuSans-32"/>
      <use x="70.996094" xlink:href="#DejaVuSans-91"/>
      <use x="110.009766" xlink:href="#DejaVuSans-115"/>
      <use x="162.109375" xlink:href="#DejaVuSans-93"/>
     </g>
    </g>
   </g>
   <g id="matplotlib.axis_6">
    <g id="ytick_19">
     <g id="line2d_52">
      <g>
       <use style="stroke:#000000;stroke-width:0.8;" x="55.361818" xlink:href="#m5ac97fd4af" y="665.83528"/>
      </g>
     </g>
     <g id="text_51">
      <!-- $\mathdefault{0}$ -->
      <g transform="translate(41.961818 669.634499)scale(0.1 -0.1)">
       <use transform="translate(0 0.78125)" xlink:href="#DejaVuSans-48"/>
      </g>
     </g>
    </g>
    <g id="ytick_20">
     <g id="line2d_53">
      <g>
       <use style="stroke:#000000;stroke-width:0.8;" x="55.361818" xlink:href="#m5ac97fd4af" y="643.523939"/>
      </g>
     </g>
     <g id="text_52">
      <!-- $\mathdefault{10^{0}}$ -->
      <g transform="translate(30.761818 647.323157)scale(0.1 -0.1)">
       <use transform="translate(0 0.765625)" xlink:href="#DejaVuSans-49"/>
       <use transform="translate(63.623047 0.765625)" xlink:href="#DejaVuSans-48"/>
       <use transform="translate(128.203125 39.046875)scale(0.7)" xlink:href="#DejaVuSans-48"/>
      </g>
     </g>
    </g>
    <g id="ytick_21">
     <g id="line2d_54">
      <g>
       <use style="stroke:#000000;stroke-width:0.8;" x="55.361818" xlink:href="#m5ac97fd4af" y="593.141672"/>
      </g>
     </g>
     <g id="text_53">
      <!-- $\mathdefault{10^{1}}$ -->
      <g transform="translate(30.761818 596.940891)scale(0.1 -0.1)">
       <use transform="translate(0 0.684375)" xlink:href="#DejaVuSans-49"/>
       <use transform="translate(63.623047 0.684375)" xlink:href="#DejaVuSans-48"/>
       <use transform="translate(128.203125 38.965625)scale(0.7)" xlink:href="#DejaVuSans-49"/>
      </g>
     </g>
    </g>
    <g id="ytick_22">
     <g id="line2d_55">
      <g>
       <use style="stroke:#000000;stroke-width:0.8;" x="55.361818" xlink:href="#m5ac97fd4af" y="552.981258"/>
      </g>
     </g>
     <g id="text_54">
      <!-- $\mathdefault{10^{2}}$ -->
      <g transform="translate(30.761818 556.780477)scale(0.1 -0.1)">
       <use transform="translate(0 0.765625)" xlink:href="#DejaVuSans-49"/>
       <use transform="translate(63.623047 0.765625)" xlink:href="#DejaVuSans-48"/>
       <use transform="translate(128.203125 39.046875)scale(0.7)" xlink:href="#DejaVuSans-50"/>
      </g>
     </g>
    </g>
    <g id="ytick_23">
     <g id="line2d_56">
      <g>
       <use style="stroke:#000000;stroke-width:0.8;" x="55.361818" xlink:href="#m5ac97fd4af" y="512.820844"/>
      </g>
     </g>
     <g id="text_55">
      <!-- $\mathdefault{10^{3}}$ -->
      <g transform="translate(30.761818 516.620063)scale(0.1 -0.1)">
       <use transform="translate(0 0.765625)" xlink:href="#DejaVuSans-49"/>
       <use transform="translate(63.623047 0.765625)" xlink:href="#DejaVuSans-48"/>
       <use transform="translate(128.203125 39.046875)scale(0.7)" xlink:href="#DejaVuSans-51"/>
      </g>
     </g>
    </g>
    <g id="ytick_24">
     <g id="line2d_57">
      <g>
       <use style="stroke:#000000;stroke-width:0.8;" x="55.361818" xlink:href="#m5ac97fd4af" y="472.66043"/>
      </g>
     </g>
     <g id="text_56">
      <!-- $\mathdefault{10^{4}}$ -->
      <g transform="translate(30.761818 476.459648)scale(0.1 -0.1)">
       <use transform="translate(0 0.684375)" xlink:href="#DejaVuSans-49"/>
       <use transform="translate(63.623047 0.684375)" xlink:href="#DejaVuSans-48"/>
       <use transform="translate(128.203125 38.965625)scale(0.7)" xlink:href="#DejaVuSans-52"/>
      </g>
     </g>
    </g>
    <g id="ytick_25">
     <g id="line2d_58">
      <g>
       <use style="stroke:#000000;stroke-width:0.8;" x="55.361818" xlink:href="#m5ac97fd4af" y="432.500015"/>
      </g>
     </g>
     <g id="text_57">
      <!-- $\mathdefault{10^{5}}$ -->
      <g transform="translate(30.761818 436.299234)scale(0.1 -0.1)">
       <use transform="translate(0 0.684375)" xlink:href="#DejaVuSans-49"/>
       <use transform="translate(63.623047 0.684375)" xlink:href="#DejaVuSans-48"/>
       <use transform="translate(128.203125 38.965625)scale(0.7)" xlink:href="#DejaVuSans-53"/>
      </g>
     </g>
    </g>
    <g id="ytick_26">
     <g id="line2d_59">
      <g>
       <use style="stroke:#000000;stroke-width:0.8;" x="55.361818" xlink:href="#m5ac97fd4af" y="392.339601"/>
      </g>
     </g>
     <g id="text_58">
      <!-- $\mathdefault{10^{6}}$ -->
      <g transform="translate(30.761818 396.13882)scale(0.1 -0.1)">
       <use transform="translate(0 0.765625)" xlink:href="#DejaVuSans-49"/>
       <use transform="translate(63.623047 0.765625)" xlink:href="#DejaVuSans-48"/>
       <use transform="translate(128.203125 39.046875)scale(0.7)" xlink:href="#DejaVuSans-54"/>
      </g>
     </g>
    </g>
   </g>
   <g id="line2d_60">
    <path clip-path="url(#pfce924458b)" d="M 55.361818 526.652697 
L 55.362832 509.650167 
L 55.372974 509.708338 
L 55.427525 510.055975 
L 55.934607 513.556165 
L 56.441689 517.497138 
L 56.948771 521.732734 
L 57.455853 525.937006 
L 57.962935 529.522299 
L 58.470016 531.714 
L 58.977098 532.785638 
L 59.48418 533.90468 
L 59.991262 535.046814 
L 60.498344 536.224604 
L 61.005425 537.443021 
L 61.512507 538.705507 
L 62.019589 540.015209 
L 62.526671 541.331696 
L 63.033753 542.648006 
L 63.540835 543.963805 
L 64.047916 545.279049 
L 64.554998 546.593694 
L 65.06208 547.907693 
L 65.569162 549.220998 
L 66.076244 550.533554 
L 66.583325 551.845303 
L 67.090407 553.156182 
L 67.597489 554.466124 
L 68.104571 555.775058 
L 68.611653 557.082904 
L 69.118735 558.38958 
L 69.625816 559.694996 
L 70.132898 560.999054 
L 70.63998 562.301652 
L 71.147062 563.602678 
L 71.654144 564.902012 
L 72.161225 566.199526 
L 72.668307 567.495082 
L 73.175389 568.788532 
L 73.682471 570.079719 
L 74.189553 571.368472 
L 74.696635 572.654611 
L 75.203716 573.93794 
L 75.710798 575.218253 
L 76.21788 576.495328 
L 76.724962 577.768928 
L 77.232044 579.038799 
L 77.739125 580.304674 
L 78.246207 581.566264 
L 78.753289 582.823265 
L 79.260371 584.075353 
L 79.767453 585.322183 
L 80.274535 586.56339 
L 80.781616 587.798587 
L 81.288698 589.027367 
L 81.79578 590.249298 
L 82.302862 591.463925 
L 82.809944 592.67077 
L 83.317025 593.869331 
L 83.824107 595.059082 
L 84.331189 596.239473 
L 84.838271 597.409929 
L 85.345353 598.569855 
L 85.852435 599.718631 
L 86.359516 600.855615 
L 86.866598 601.980149 
L 87.37368 603.091552 
L 87.880762 604.18913 
L 88.387844 605.272174 
L 88.894925 606.339965 
L 89.402007 607.391775 
L 89.909089 608.426873 
L 90.416171 609.444528 
L 90.923253 610.444013 
L 91.430335 611.42461 
L 91.937416 612.385616 
L 92.444498 613.326346 
L 92.95158 614.24614 
L 93.458662 615.144371 
L 93.965744 616.020444 
L 94.472825 616.873807 
L 94.979907 617.703957 
L 95.486989 618.510439 
L 95.994071 619.292857 
L 96.501153 620.050876 
L 97.008235 620.784223 
L 97.515316 621.923481 
L 98.022398 623.610933 
L 98.52948 625.17513 
L 99.036562 626.625074 
L 99.543644 627.969112 
L 100.050725 629.214978 
L 100.557807 630.369843 
L 101.064889 631.440354 
L 101.571971 632.432673 
L 102.079053 633.352511 
" style="fill:none;stroke:#ff0000;stroke-linecap:square;stroke-width:0.5;"/>
   </g>
   <g id="line2d_61">
    <path clip-path="url(#pfce924458b)" d="M 55.361818 665.83528 
L 55.362832 549.810581 
L 55.372974 537.750153 
L 55.427525 530.802936 
L 55.934607 526.650472 
L 56.441689 523.926824 
L 56.948771 522.053209 
L 57.455853 520.710294 
L 57.962935 519.688464 
L 58.470016 518.834443 
L 58.977098 518.06776 
L 59.48418 517.378114 
L 59.991262 516.756012 
L 60.498344 516.193936 
L 61.005425 515.685621 
L 61.512507 515.225739 
L 62.019589 514.809703 
L 62.526671 514.432585 
L 63.033753 514.09002 
L 63.540835 513.778251 
L 64.047916 513.494024 
L 64.554998 513.23451 
L 65.06208 512.997232 
L 65.569162 512.780012 
L 66.076244 512.58093 
L 66.583325 512.398281 
L 67.090407 512.230549 
L 67.597489 512.076382 
L 68.104571 511.934571 
L 68.611653 511.804027 
L 69.118735 511.683773 
L 69.625816 511.572928 
L 70.132898 511.470695 
L 70.63998 511.376352 
L 71.147062 511.289245 
L 71.654144 511.208779 
L 72.161225 511.134412 
L 72.668307 511.065652 
L 73.175389 511.002048 
L 73.682471 510.94319 
L 74.189553 510.888701 
L 74.696635 510.838238 
L 75.203716 510.791485 
L 75.710798 510.748153 
L 76.21788 510.707977 
L 76.724962 510.670713 
L 77.232044 510.636137 
L 77.739125 510.604042 
L 78.246207 510.574241 
L 78.753289 510.546557 
L 79.260371 510.52083 
L 79.767453 510.496912 
L 80.274535 510.474667 
L 80.781616 510.453968 
L 81.288698 510.434699 
L 81.79578 510.416753 
L 82.302862 510.400031 
L 82.809944 510.384442 
L 83.317025 510.3699 
L 83.824107 510.356328 
L 84.331189 510.343654 
L 84.838271 510.331811 
L 85.345353 510.320737 
L 85.852435 510.310375 
L 86.359516 510.300673 
L 86.866598 510.291581 
L 87.37368 510.283055 
L 87.880762 510.275053 
L 88.387844 510.267536 
L 88.894925 510.260468 
L 89.402007 510.253817 
L 89.909089 510.247551 
L 90.416171 510.241642 
L 90.923253 510.236064 
L 91.430335 510.230793 
L 91.937416 510.225806 
L 92.444498 510.221082 
L 92.95158 510.216602 
L 93.458662 510.212348 
L 93.965744 510.208303 
L 94.472825 510.204452 
L 94.979907 510.200781 
L 95.486989 510.197277 
L 95.994071 510.193927 
L 96.501153 510.19072 
L 97.008235 510.187646 
L 97.515316 510.184694 
L 98.022398 510.181857 
L 98.52948 510.179125 
L 99.036562 510.176491 
L 99.543644 510.173947 
L 100.050725 510.171488 
L 100.557807 510.169106 
L 101.064889 510.166797 
L 101.571971 510.164554 
L 102.079053 510.162374 
" style="fill:none;stroke:#008000;stroke-linecap:square;stroke-width:0.5;"/>
   </g>
   <g id="patch_15">
    <path d="M 55.361818 665.83528 
L 55.361818 366.01104 
" style="fill:none;stroke:#000000;stroke-linecap:square;stroke-linejoin:miter;stroke-width:0.8;"/>
   </g>
   <g id="patch_16">
    <path d="M 359.610909 665.83528 
L 359.610909 366.01104 
" style="fill:none;stroke:#000000;stroke-linecap:square;stroke-linejoin:miter;stroke-width:0.8;"/>
   </g>
   <g id="patch_17">
    <path d="M 55.361818 665.83528 
L 359.610909 665.83528 
" style="fill:none;stroke:#000000;stroke-linecap:square;stroke-linejoin:miter;stroke-width:0.8;"/>
   </g>
   <g id="patch_18">
    <path d="M 55.361818 366.01104 
L 359.610909 366.01104 
" style="fill:none;stroke:#000000;stroke-linecap:square;stroke-linejoin:miter;stroke-width:0.8;"/>
   </g>
   <g id="legend_2">
    <g id="patch_19">
     <path d="M 254.510909 407.589165 
L 352.610909 407.589165 
Q 354.610909 407.589165 354.610909 405.589165 
L 354.610909 373.01104 
Q 354.610909 371.01104 352.610909 371.01104 
L 254.510909 371.01104 
Q 252.510909 371.01104 252.510909 373.01104 
L 252.510909 405.589165 
Q 252.510909 407.589165 254.510909 407.589165 
z
" style="fill:#ffffff;opacity:0.8;stroke:#cccccc;stroke-linejoin:miter;"/>
    </g>
    <g id="line2d_62">
     <path d="M 256.510909 379.109478 
L 276.510909 379.109478 
" style="fill:none;stroke:#ff0000;stroke-linecap:square;stroke-width:0.5;"/>
    </g>
    <g id="line2d_63"/>
    <g id="text_59">
     <!-- Run. obj. -->
     <defs>
      <path d="M 44.390625 34.1875 
Q 47.5625 33.109375 50.5625 29.59375 
Q 53.5625 26.078125 56.59375 19.921875 
L 66.609375 0 
L 56 0 
L 46.6875 18.703125 
Q 43.0625 26.03125 39.671875 28.421875 
Q 36.28125 30.8125 30.421875 30.8125 
L 19.671875 30.8125 
L 19.671875 0 
L 9.8125 0 
L 9.8125 72.90625 
L 32.078125 72.90625 
Q 44.578125 72.90625 50.734375 67.671875 
Q 56.890625 62.453125 56.890625 51.90625 
Q 56.890625 45.015625 53.6875 40.46875 
Q 50.484375 35.9375 44.390625 34.1875 
z
M 19.671875 64.796875 
L 19.671875 38.921875 
L 32.078125 38.921875 
Q 39.203125 38.921875 42.84375 42.21875 
Q 46.484375 45.515625 46.484375 51.90625 
Q 46.484375 58.296875 42.84375 61.546875 
Q 39.203125 64.796875 32.078125 64.796875 
z
" id="DejaVuSans-82"/>
      <path d="M 54.890625 33.015625 
L 54.890625 0 
L 45.90625 0 
L 45.90625 32.71875 
Q 45.90625 40.484375 42.875 44.328125 
Q 39.84375 48.1875 33.796875 48.1875 
Q 26.515625 48.1875 22.3125 43.546875 
Q 18.109375 38.921875 18.109375 30.90625 
L 18.109375 0 
L 9.078125 0 
L 9.078125 54.6875 
L 18.109375 54.6875 
L 18.109375 46.1875 
Q 21.34375 51.125 25.703125 53.5625 
Q 30.078125 56 35.796875 56 
Q 45.21875 56 50.046875 50.171875 
Q 54.890625 44.34375 54.890625 33.015625 
z
" id="DejaVuSans-110"/>
      <path d="M 48.6875 27.296875 
Q 48.6875 37.203125 44.609375 42.84375 
Q 40.53125 48.484375 33.40625 48.484375 
Q 26.265625 48.484375 22.1875 42.84375 
Q 18.109375 37.203125 18.109375 27.296875 
Q 18.109375 17.390625 22.1875 11.75 
Q 26.265625 6.109375 33.40625 6.109375 
Q 40.53125 6.109375 44.609375 11.75 
Q 48.6875 17.390625 48.6875 27.296875 
z
M 18.109375 46.390625 
Q 20.953125 51.265625 25.265625 53.625 
Q 29.59375 56 35.59375 56 
Q 45.5625 56 51.78125 48.09375 
Q 58.015625 40.1875 58.015625 27.296875 
Q 58.015625 14.40625 51.78125 6.484375 
Q 45.5625 -1.421875 35.59375 -1.421875 
Q 29.59375 -1.421875 25.265625 0.953125 
Q 20.953125 3.328125 18.109375 8.203125 
L 18.109375 0 
L 9.078125 0 
L 9.078125 75.984375 
L 18.109375 75.984375 
z
" id="DejaVuSans-98"/>
      <path d="M 9.421875 54.6875 
L 18.40625 54.6875 
L 18.40625 -0.984375 
Q 18.40625 -11.421875 14.421875 -16.109375 
Q 10.453125 -20.796875 1.609375 -20.796875 
L -1.8125 -20.796875 
L -1.8125 -13.1875 
L 0.59375 -13.1875 
Q 5.71875 -13.1875 7.5625 -10.8125 
Q 9.421875 -8.453125 9.421875 -0.984375 
z
M 9.421875 75.984375 
L 18.40625 75.984375 
L 18.40625 64.59375 
L 9.421875 64.59375 
z
" id="DejaVuSans-106"/>
     </defs>
     <g transform="translate(284.510909 382.609478)scale(0.1 -0.1)">
      <use xlink:href="#DejaVuSans-82"/>
      <use x="69.419922" xlink:href="#DejaVuSans-117"/>
      <use x="132.798828" xlink:href="#DejaVuSans-110"/>
      <use x="196.177734" xlink:href="#DejaVuSans-46"/>
      <use x="227.964844" xlink:href="#DejaVuSans-32"/>
      <use x="259.751953" xlink:href="#DejaVuSans-111"/>
      <use x="320.933594" xlink:href="#DejaVuSans-98"/>
      <use x="384.410156" xlink:href="#DejaVuSans-106"/>
      <use x="412.193359" xlink:href="#DejaVuSans-46"/>
     </g>
    </g>
    <g id="line2d_64">
     <path d="M 256.510909 396.989165 
L 276.510909 396.989165 
" style="fill:none;stroke:#008000;stroke-linecap:square;stroke-width:0.5;"/>
    </g>
    <g id="line2d_65"/>
    <g id="text_60">
     <!-- $\int \mathrm{Run.\,obj.} \,\mathrm{d}t$ -->
     <defs>
      <path d="M 33.34375 86.328125 
Q 33.9375 97.859375 39.5 102.4375 
Q 45.0625 107.03125 50.28125 107.03125 
Q 55.515625 107.03125 59.890625 102.734375 
Q 64.265625 98.4375 65.625 88.71875 
L 55.375 87.703125 
Q 54.203125 96.6875 50.296875 96.6875 
Q 45.40625 96.6875 44.828125 84.578125 
L 40.328125 -9.328125 
Q 39.796875 -20.84375 34.171875 -25.4375 
Q 28.5625 -30.03125 23.390625 -30.03125 
Q 18.171875 -30.03125 13.796875 -25.734375 
Q 9.421875 -21.4375 8.0625 -11.71875 
L 18.3125 -10.6875 
Q 19.484375 -19.671875 23.390625 -19.671875 
Q 28.265625 -19.671875 28.859375 -7.625 
z
" id="DejaVuSansDisplay-8747"/>
      <path d="M 42.28125 54.6875 
L 40.921875 47.703125 
L 23 47.703125 
L 17.1875 18.015625 
Q 16.890625 16.359375 16.75 15.234375 
Q 16.609375 14.109375 16.609375 13.484375 
Q 16.609375 10.359375 18.484375 8.9375 
Q 20.359375 7.515625 24.515625 7.515625 
L 33.59375 7.515625 
L 32.078125 0 
L 23.484375 0 
Q 15.484375 0 11.546875 3.125 
Q 7.625 6.25 7.625 12.59375 
Q 7.625 13.71875 7.765625 15.0625 
Q 7.90625 16.40625 8.203125 18.015625 
L 14.015625 47.703125 
L 6.390625 47.703125 
L 7.8125 54.6875 
L 15.28125 54.6875 
L 18.3125 70.21875 
L 27.296875 70.21875 
L 24.3125 54.6875 
z
" id="DejaVuSans-Oblique-116"/>
     </defs>
     <g transform="translate(284.510909 400.489165)scale(0.1 -0.1)">
      <use transform="translate(0 0.96875)" xlink:href="#DejaVuSansDisplay-8747"/>
      <use transform="translate(73.632812 0.96875)" xlink:href="#DejaVuSans-82"/>
      <use transform="translate(143.115234 0.96875)" xlink:href="#DejaVuSans-117"/>
      <use transform="translate(206.494141 0.96875)" xlink:href="#DejaVuSans-110"/>
      <use transform="translate(269.873047 0.96875)" xlink:href="#DejaVuSans-46"/>
      <use transform="translate(337.378254 0.96875)" xlink:href="#DejaVuSans-111"/>
      <use transform="translate(398.559895 0.96875)" xlink:href="#DejaVuSans-98"/>
      <use transform="translate(462.036458 0.96875)" xlink:href="#DejaVuSans-106"/>
      <use transform="translate(489.819661 0.96875)" xlink:href="#DejaVuSans-46"/>
      <use transform="translate(557.324868 0.96875)" xlink:href="#DejaVuSans-100"/>
      <use transform="translate(620.801431 0.96875)" xlink:href="#DejaVuSans-Oblique-116"/>
     </g>
    </g>
   </g>
  </g>
  <g id="axes_4">
   <g id="patch_20">
    <path d="M 398.560909 665.83528 
L 702.81 665.83528 
L 702.81 366.01104 
L 398.560909 366.01104 
z
" style="fill:#ffffff;"/>
   </g>
   <g id="matplotlib.axis_7">
    <g id="xtick_24">
     <g id="line2d_66">
      <g>
       <use style="stroke:#000000;stroke-width:0.8;" x="398.560909" xlink:href="#md8f0eb626a" y="665.83528"/>
      </g>
     </g>
     <g id="text_61">
      <!-- 0 -->
      <g transform="translate(395.379659 680.433718)scale(0.1 -0.1)">
       <use xlink:href="#DejaVuSans-48"/>
      </g>
     </g>
    </g>
    <g id="xtick_25">
     <g id="line2d_67">
      <g>
       <use style="stroke:#000000;stroke-width:0.8;" x="449.269091" xlink:href="#md8f0eb626a" y="665.83528"/>
      </g>
     </g>
     <g id="text_62">
      <!-- 5 -->
      <g transform="translate(446.087841 680.433718)scale(0.1 -0.1)">
       <use xlink:href="#DejaVuSans-53"/>
      </g>
     </g>
    </g>
    <g id="xtick_26">
     <g id="line2d_68">
      <g>
       <use style="stroke:#000000;stroke-width:0.8;" x="499.977273" xlink:href="#md8f0eb626a" y="665.83528"/>
      </g>
     </g>
     <g id="text_63">
      <!-- 10 -->
      <g transform="translate(493.614773 680.433718)scale(0.1 -0.1)">
       <use xlink:href="#DejaVuSans-49"/>
       <use x="63.623047" xlink:href="#DejaVuSans-48"/>
      </g>
     </g>
    </g>
    <g id="xtick_27">
     <g id="line2d_69">
      <g>
       <use style="stroke:#000000;stroke-width:0.8;" x="550.685455" xlink:href="#md8f0eb626a" y="665.83528"/>
      </g>
     </g>
     <g id="text_64">
      <!-- 15 -->
      <g transform="translate(544.322955 680.433718)scale(0.1 -0.1)">
       <use xlink:href="#DejaVuSans-49"/>
       <use x="63.623047" xlink:href="#DejaVuSans-53"/>
      </g>
     </g>
    </g>
    <g id="xtick_28">
     <g id="line2d_70">
      <g>
       <use style="stroke:#000000;stroke-width:0.8;" x="601.393636" xlink:href="#md8f0eb626a" y="665.83528"/>
      </g>
     </g>
     <g id="text_65">
      <!-- 20 -->
      <g transform="translate(595.031136 680.433718)scale(0.1 -0.1)">
       <use xlink:href="#DejaVuSans-50"/>
       <use x="63.623047" xlink:href="#DejaVuSans-48"/>
      </g>
     </g>
    </g>
    <g id="xtick_29">
     <g id="line2d_71">
      <g>
       <use style="stroke:#000000;stroke-width:0.8;" x="652.101818" xlink:href="#md8f0eb626a" y="665.83528"/>
      </g>
     </g>
     <g id="text_66">
      <!-- 25 -->
      <g transform="translate(645.739318 680.433718)scale(0.1 -0.1)">
       <use xlink:href="#DejaVuSans-50"/>
       <use x="63.623047" xlink:href="#DejaVuSans-53"/>
      </g>
     </g>
    </g>
    <g id="xtick_30">
     <g id="line2d_72">
      <g>
       <use style="stroke:#000000;stroke-width:0.8;" x="702.81" xlink:href="#md8f0eb626a" y="665.83528"/>
      </g>
     </g>
     <g id="text_67">
      <!-- 30 -->
      <g transform="translate(696.4475 680.433718)scale(0.1 -0.1)">
       <use xlink:href="#DejaVuSans-51"/>
       <use x="63.623047" xlink:href="#DejaVuSans-48"/>
      </g>
     </g>
    </g>
    <g id="text_68">
     <!-- t [s] -->
     <g transform="translate(540.629986 694.111843)scale(0.1 -0.1)">
      <use xlink:href="#DejaVuSans-116"/>
      <use x="39.208984" xlink:href="#DejaVuSans-32"/>
      <use x="70.996094" xlink:href="#DejaVuSans-91"/>
      <use x="110.009766" xlink:href="#DejaVuSans-115"/>
      <use x="162.109375" xlink:href="#DejaVuSans-93"/>
     </g>
    </g>
   </g>
   <g id="matplotlib.axis_8">
    <g id="ytick_27">
     <g id="line2d_73">
      <g>
       <use style="stroke:#000000;stroke-width:0.8;" x="398.560909" xlink:href="#m5ac97fd4af" y="659.884863"/>
      </g>
     </g>
     <g id="text_69">
      <!-- −3 -->
      <g transform="translate(376.818722 663.684082)scale(0.1 -0.1)">
       <use xlink:href="#DejaVuSans-8722"/>
       <use x="83.789062" xlink:href="#DejaVuSans-51"/>
      </g>
     </g>
    </g>
    <g id="ytick_28">
     <g id="line2d_74">
      <g>
       <use style="stroke:#000000;stroke-width:0.8;" x="398.560909" xlink:href="#m5ac97fd4af" y="611.897629"/>
      </g>
     </g>
     <g id="text_70">
      <!-- −2 -->
      <g transform="translate(376.818722 615.696847)scale(0.1 -0.1)">
       <use xlink:href="#DejaVuSans-8722"/>
       <use x="83.789062" xlink:href="#DejaVuSans-50"/>
      </g>
     </g>
    </g>
    <g id="ytick_29">
     <g id="line2d_75">
      <g>
       <use style="stroke:#000000;stroke-width:0.8;" x="398.560909" xlink:href="#m5ac97fd4af" y="563.910394"/>
      </g>
     </g>
     <g id="text_71">
      <!-- −1 -->
      <g transform="translate(376.818722 567.709613)scale(0.1 -0.1)">
       <use xlink:href="#DejaVuSans-8722"/>
       <use x="83.789062" xlink:href="#DejaVuSans-49"/>
      </g>
     </g>
    </g>
    <g id="ytick_30">
     <g id="line2d_76">
      <g>
       <use style="stroke:#000000;stroke-width:0.8;" x="398.560909" xlink:href="#m5ac97fd4af" y="515.92316"/>
      </g>
     </g>
     <g id="text_72">
      <!-- 0 -->
      <g transform="translate(385.198409 519.722379)scale(0.1 -0.1)">
       <use xlink:href="#DejaVuSans-48"/>
      </g>
     </g>
    </g>
    <g id="ytick_31">
     <g id="line2d_77">
      <g>
       <use style="stroke:#000000;stroke-width:0.8;" x="398.560909" xlink:href="#m5ac97fd4af" y="467.935926"/>
      </g>
     </g>
     <g id="text_73">
      <!-- 1 -->
      <g transform="translate(385.198409 471.735144)scale(0.1 -0.1)">
       <use xlink:href="#DejaVuSans-49"/>
      </g>
     </g>
    </g>
    <g id="ytick_32">
     <g id="line2d_78">
      <g>
       <use style="stroke:#000000;stroke-width:0.8;" x="398.560909" xlink:href="#m5ac97fd4af" y="419.948691"/>
      </g>
     </g>
     <g id="text_74">
      <!-- 2 -->
      <g transform="translate(385.198409 423.74791)scale(0.1 -0.1)">
       <use xlink:href="#DejaVuSans-50"/>
      </g>
     </g>
    </g>
    <g id="ytick_33">
     <g id="line2d_79">
      <g>
       <use style="stroke:#000000;stroke-width:0.8;" x="398.560909" xlink:href="#m5ac97fd4af" y="371.961457"/>
      </g>
     </g>
     <g id="text_75">
      <!-- 3 -->
      <g transform="translate(385.198409 375.760676)scale(0.1 -0.1)">
       <use xlink:href="#DejaVuSans-51"/>
      </g>
     </g>
    </g>
   </g>
   <g id="line2d_80">
    <path clip-path="url(#p3faca03a8e)" d="M 398.560909 515.92316 
L 702.81 515.92316 
" style="fill:none;stroke:#000000;stroke-dasharray:2.775,1.2;stroke-dashoffset:0;stroke-width:0.75;"/>
   </g>
   <g id="line2d_81">
    <path clip-path="url(#p3faca03a8e)" d="M 398.560909 515.92316 
L 398.561923 409.067909 
L 398.572065 408.864058 
L 398.626616 407.672226 
L 399.133698 397.836927 
L 399.64078 390.378719 
L 400.147862 385.447739 
L 400.654944 383.143248 
L 401.162025 383.511635 
L 401.669107 386.545484 
L 402.176189 390.65955 
L 402.683271 394.439454 
L 403.190353 398.377141 
L 403.697435 402.301752 
L 404.204516 406.210962 
L 404.711598 410.126006 
L 405.21868 414.041609 
L 405.725762 417.832013 
L 406.232844 421.482259 
L 406.739925 424.996757 
L 407.247007 428.380454 
L 407.754089 431.638223 
L 408.261171 434.774761 
L 408.768253 437.794578 
L 409.275335 440.702017 
L 409.782416 443.501259 
L 410.289498 446.196333 
L 410.79658 448.791113 
L 411.303662 451.289332 
L 411.810744 453.694583 
L 412.317825 456.010327 
L 412.824907 458.239894 
L 413.331989 460.386491 
L 413.839071 462.453205 
L 414.346153 464.44301 
L 414.853235 466.358767 
L 415.360316 468.203232 
L 415.867398 469.979058 
L 416.37448 471.6888 
L 416.881562 473.334915 
L 417.388644 474.919774 
L 417.895725 476.445654 
L 418.402807 477.91475 
L 418.909889 479.329177 
L 419.416971 480.690967 
L 419.924053 482.002081 
L 420.431135 483.264403 
L 420.938216 484.47975 
L 421.445298 485.64987 
L 421.95238 486.776445 
L 422.459462 487.861097 
L 422.966544 488.905385 
L 423.473625 489.910811 
L 423.980707 490.878822 
L 424.487789 491.81081 
L 424.994871 492.708115 
L 425.501953 493.572028 
L 426.009035 494.403792 
L 426.516116 495.204603 
L 427.023198 495.975614 
L 427.53028 496.717932 
L 428.037362 497.432626 
L 428.544444 498.120724 
L 429.051525 498.783215 
L 429.558607 499.421052 
L 430.065689 500.035154 
L 430.572771 500.626402 
L 431.079853 501.195648 
L 431.586935 501.743711 
L 432.094016 502.271378 
L 432.601098 502.779408 
L 433.10818 503.268534 
L 433.615262 503.739457 
L 434.122344 504.192855 
L 434.629425 504.629381 
L 435.136507 505.049662 
L 435.643589 505.454303 
L 436.150671 505.843886 
L 436.657753 506.218971 
L 437.164835 506.580098 
L 437.671916 506.927786 
L 438.178998 507.262536 
L 438.68608 507.584828 
L 439.193162 507.895126 
L 439.700244 508.193878 
L 440.207325 508.481512 
L 440.714407 508.758441 
L 441.221489 509.025066 
L 441.728571 509.281768 
L 442.235653 509.528918 
L 442.742735 509.76687 
L 443.249816 509.995967 
L 443.756898 510.216539 
L 444.26398 510.428902 
L 444.771062 510.633363 
L 445.278144 510.830215 
" style="fill:none;stroke:#1f77b4;stroke-linecap:square;stroke-width:0.5;"/>
   </g>
   <g id="line2d_82">
    <path clip-path="url(#p3faca03a8e)" d="M 398.560909 515.92316 
L 398.561058 708.04 
M 401.269796 708.04 
L 401.669107 536.526185 
L 402.176189 487.813338 
L 402.683271 523.41943 
L 403.190353 517.271268 
L 403.697435 514.551393 
L 404.204516 516.089043 
L 404.711598 516.058046 
L 405.21868 515.88135 
L 405.725762 515.91282 
L 406.232844 515.928664 
L 406.739925 515.92401 
L 407.247007 515.922583 
L 407.754089 515.923061 
L 408.261171 515.92321 
L 408.768253 515.923174 
L 409.275335 515.923157 
L 409.782416 515.923158 
L 410.289498 515.92316 
L 410.79658 515.92316 
L 411.303662 515.92316 
L 411.810744 515.92316 
L 412.317825 515.92316 
L 412.824907 515.92316 
L 413.331989 515.92316 
L 413.839071 515.92316 
L 414.346153 515.92316 
L 414.853235 515.92316 
L 415.360316 515.92316 
L 415.867398 515.92316 
L 416.37448 515.92316 
L 416.881562 515.92316 
L 417.388644 515.92316 
L 417.895725 515.92316 
L 418.402807 515.92316 
L 418.909889 515.92316 
L 419.416971 515.92316 
L 419.924053 515.92316 
L 420.431135 515.92316 
L 420.938216 515.92316 
L 421.445298 515.92316 
L 421.95238 515.92316 
L 422.459462 515.92316 
L 422.966544 515.92316 
L 423.473625 515.92316 
L 423.980707 515.92316 
L 424.487789 515.92316 
L 424.994871 515.92316 
L 425.501953 515.92316 
L 426.009035 515.92316 
L 426.516116 515.92316 
L 427.023198 515.92316 
L 427.53028 515.92316 
L 428.037362 515.92316 
L 428.544444 515.92316 
L 429.051525 515.92316 
L 429.558607 515.92316 
L 430.065689 515.92316 
L 430.572771 515.92316 
L 431.079853 515.92316 
L 431.586935 515.92316 
L 432.094016 515.92316 
L 432.601098 515.92316 
L 433.10818 515.92316 
L 433.615262 515.92316 
L 434.122344 515.92316 
L 434.629425 515.92316 
L 435.136507 515.92316 
L 435.643589 515.92316 
L 436.150671 515.92316 
L 436.657753 515.92316 
L 437.164835 515.92316 
L 437.671916 515.92316 
L 438.178998 515.92316 
L 438.68608 515.92316 
L 439.193162 515.92316 
L 439.700244 515.92316 
L 440.207325 515.92316 
L 440.714407 515.92316 
L 441.221489 515.92316 
L 441.728571 515.92316 
L 442.235653 515.92316 
L 442.742735 515.92316 
L 443.249816 515.92316 
L 443.756898 515.92316 
L 444.26398 515.92316 
L 444.771062 515.92316 
L 445.278144 515.92316 
" style="fill:none;stroke:#ff7f0e;stroke-linecap:square;stroke-width:0.5;"/>
   </g>
   <g id="patch_21">
    <path d="M 398.560909 665.83528 
L 398.560909 366.01104 
" style="fill:none;stroke:#000000;stroke-linecap:square;stroke-linejoin:miter;stroke-width:0.8;"/>
   </g>
   <g id="patch_22">
    <path d="M 702.81 665.83528 
L 702.81 366.01104 
" style="fill:none;stroke:#000000;stroke-linecap:square;stroke-linejoin:miter;stroke-width:0.8;"/>
   </g>
   <g id="patch_23">
    <path d="M 398.560909 665.83528 
L 702.81 665.83528 
" style="fill:none;stroke:#000000;stroke-linecap:square;stroke-linejoin:miter;stroke-width:0.8;"/>
   </g>
   <g id="patch_24">
    <path d="M 398.560909 366.01104 
L 702.81 366.01104 
" style="fill:none;stroke:#000000;stroke-linecap:square;stroke-linejoin:miter;stroke-width:0.8;"/>
   </g>
   <g id="legend_3">
    <g id="patch_25">
     <path d="M 619.21 403.36729 
L 695.81 403.36729 
Q 697.81 403.36729 697.81 401.36729 
L 697.81 373.01104 
Q 697.81 371.01104 695.81 371.01104 
L 619.21 371.01104 
Q 617.21 371.01104 617.21 373.01104 
L 617.21 401.36729 
Q 617.21 403.36729 619.21 403.36729 
z
" style="fill:#ffffff;opacity:0.8;stroke:#cccccc;stroke-linejoin:miter;"/>
    </g>
    <g id="line2d_83">
     <path d="M 621.21 379.109478 
L 641.21 379.109478 
" style="fill:none;stroke:#1f77b4;stroke-linecap:square;stroke-width:0.5;"/>
    </g>
    <g id="line2d_84"/>
    <g id="text_76">
     <!-- v [m/s] -->
     <defs>
      <path d="M 2.984375 54.6875 
L 12.5 54.6875 
L 29.59375 8.796875 
L 46.6875 54.6875 
L 56.203125 54.6875 
L 35.6875 0 
L 23.484375 0 
z
" id="DejaVuSans-118"/>
      <path d="M 25.390625 72.90625 
L 33.6875 72.90625 
L 8.296875 -9.28125 
L 0 -9.28125 
z
" id="DejaVuSans-47"/>
     </defs>
     <g transform="translate(649.21 382.609478)scale(0.1 -0.1)">
      <use xlink:href="#DejaVuSans-118"/>
      <use x="59.179688" xlink:href="#DejaVuSans-32"/>
      <use x="90.966797" xlink:href="#DejaVuSans-91"/>
      <use x="129.980469" xlink:href="#DejaVuSans-109"/>
      <use x="227.392578" xlink:href="#DejaVuSans-47"/>
      <use x="261.083984" xlink:href="#DejaVuSans-115"/>
      <use x="313.183594" xlink:href="#DejaVuSans-93"/>
     </g>
    </g>
    <g id="line2d_85">
     <path d="M 621.21 393.787603 
L 641.21 393.787603 
" style="fill:none;stroke:#ff7f0e;stroke-linecap:square;stroke-width:0.5;"/>
    </g>
    <g id="line2d_86"/>
    <g id="text_77">
     <!-- $\omega$ [rad/s] -->
     <defs>
      <path d="M 21.390625 -1.421875 
Q 1.125 -1.421875 6.78125 27.59375 
Q 8.984375 39.0625 19.625 54.6875 
L 29.296875 54.6875 
Q 19.234375 39.0625 17 27.34375 
Q 12.796875 6.203125 23.734375 6.203125 
Q 33.84375 6.203125 38.71875 32.46875 
L 47.015625 32.46875 
Q 41.703125 6.0625 51.8125 6.203125 
Q 62.703125 6.296875 66.796875 27.34375 
Q 69.046875 39.0625 65.140625 54.6875 
L 74.8125 54.6875 
Q 79.296875 39.0625 77.09375 27.59375 
Q 71.53125 -1.46875 51.21875 -1.421875 
Q 37.9375 -1.375 39.109375 13.1875 
Q 34.28125 -1.421875 21.390625 -1.421875 
z
" id="DejaVuSans-Oblique-969"/>
     </defs>
     <g transform="translate(649.21 397.287603)scale(0.1 -0.1)">
      <use transform="translate(0 0.015625)" xlink:href="#DejaVuSans-Oblique-969"/>
      <use transform="translate(83.740234 0.015625)" xlink:href="#DejaVuSans-32"/>
      <use transform="translate(115.527344 0.015625)" xlink:href="#DejaVuSans-91"/>
      <use transform="translate(154.541016 0.015625)" xlink:href="#DejaVuSans-114"/>
      <use transform="translate(195.654297 0.015625)" xlink:href="#DejaVuSans-97"/>
      <use transform="translate(256.933594 0.015625)" xlink:href="#DejaVuSans-100"/>
      <use transform="translate(320.410156 0.015625)" xlink:href="#DejaVuSans-47"/>
      <use transform="translate(354.101562 0.015625)" xlink:href="#DejaVuSans-115"/>
      <use transform="translate(406.201172 0.015625)" xlink:href="#DejaVuSans-93"/>
     </g>
    </g>
   </g>
  </g>
  <g id="text_78">
   <!-- $\int \mathrm{Run.\,obj.} \,\mathrm{d}t$ = 1164.7 -->
   <defs>
    <path d="M 8.203125 72.90625 
L 55.078125 72.90625 
L 55.078125 68.703125 
L 28.609375 0 
L 18.3125 0 
L 43.21875 64.59375 
L 8.203125 64.59375 
z
" id="DejaVuSans-55"/>
   </defs>
   <g transform="translate(36 357.37)scale(0.1 -0.1)">
    <use transform="translate(0 0.96875)" xlink:href="#DejaVuSansDisplay-8747"/>
    <use transform="translate(73.632812 0.96875)" xlink:href="#DejaVuSans-82"/>
    <use transform="translate(143.115234 0.96875)" xlink:href="#DejaVuSans-117"/>
    <use transform="translate(206.494141 0.96875)" xlink:href="#DejaVuSans-110"/>
    <use transform="translate(269.873047 0.96875)" xlink:href="#DejaVuSans-46"/>
    <use transform="translate(337.378254 0.96875)" xlink:href="#DejaVuSans-111"/>
    <use transform="translate(398.559895 0.96875)" xlink:href="#DejaVuSans-98"/>
    <use transform="translate(462.036458 0.96875)" xlink:href="#DejaVuSans-106"/>
    <use transform="translate(489.819661 0.96875)" xlink:href="#DejaVuSans-46"/>
    <use transform="translate(557.324868 0.96875)" xlink:href="#DejaVuSans-100"/>
    <use transform="translate(620.801431 0.96875)" xlink:href="#DejaVuSans-Oblique-116"/>
    <use transform="translate(660.010415 0.96875)" xlink:href="#DejaVuSans-32"/>
    <use transform="translate(691.797524 0.96875)" xlink:href="#DejaVuSans-61"/>
    <use transform="translate(775.586587 0.96875)" xlink:href="#DejaVuSans-32"/>
    <use transform="translate(807.373696 0.96875)" xlink:href="#DejaVuSans-49"/>
    <use transform="translate(870.996743 0.96875)" xlink:href="#DejaVuSans-49"/>
    <use transform="translate(934.61979 0.96875)" xlink:href="#DejaVuSans-54"/>
    <use transform="translate(998.242837 0.96875)" xlink:href="#DejaVuSans-52"/>
    <use transform="translate(1061.865884 0.96875)" xlink:href="#DejaVuSans-46"/>
    <use transform="translate(1093.543618 0.96875)" xlink:href="#DejaVuSans-55"/>
   </g>
  </g>
 </g>
 <defs>
  <clipPath id="p02a831f20d">
   <rect height="299.82424" width="299.82424" x="57.574244" y="24.98208"/>
  </clipPath>
  <clipPath id="p96d2cc9817">
   <rect height="299.82424" width="304.249091" x="398.560909" y="24.98208"/>
  </clipPath>
  <clipPath id="pfce924458b">
   <rect height="299.82424" width="304.249091" x="55.361818" y="366.01104"/>
  </clipPath>
  <clipPath id="p3faca03a8e">
   <rect height="299.82424" width="304.249091" x="398.560909" y="366.01104"/>
  </clipPath>
 </defs>
</svg>
