<?xml version="1.0" encoding="utf-8" standalone="no"?>
<!DOCTYPE svg PUBLIC "-//W3C//DTD SVG 1.1//EN"
  "http://www.w3.org/Graphics/SVG/1.1/DTD/svg11.dtd">
<!-- Created with matplotlib (https://matplotlib.org/) -->
<svg height="707.04pt" version="1.1" viewBox="0 0 720 707.04" width="720pt" xmlns="http://www.w3.org/2000/svg" xmlns:xlink="http://www.w3.org/1999/xlink">
 <defs>
  <style type="text/css">
*{stroke-linecap:butt;stroke-linejoin:round;}
  </style>
 </defs>
 <g id="figure_1">
  <g id="patch_1">
   <path d="M 0 707.04 
L 720 707.04 
L 720 0 
L 0 0 
z
" style="fill:#ffffff;"/>
  </g>
  <g id="axes_1">
   <g id="patch_2">
    <path d="M 57.574244 324.80632 
L 357.398484 324.80632 
L 357.398484 24.98208 
L 57.574244 24.98208 
z
" style="fill:#ffffff;"/>
   </g>
   <g id="PathCollection_1">
    <defs>
     <path d="M -9.917821 1.955676 
L -3.694662 1.657772 
L -3.745548 0.594766 
L -1.829994 0.503068 
L -1.616686 4.958783 
L 2.647279 4.754678 
L 2.726994 6.419894 
L 0.137037 6.543864 
L 0.288751 9.713146 
L 6.511922 9.415253 
L 6.360207 6.245959 
L 3.770262 6.369941 
L 3.690548 4.704725 
L 7.954513 4.500608 
L 7.477951 -5.454684 
L 3.213985 -5.250578 
L 3.1347 -6.906828 
L 5.724645 -7.030809 
L 5.572902 -10.200693 
L -0.650257 -9.902789 
L -0.498525 -6.732904 
L 2.091431 -6.856886 
L 2.170717 -5.200625 
L -2.093248 -4.996508 
L -1.879952 -0.540792 
L -3.79553 -0.449093 
L -3.846404 -1.5121 
L -10.069575 -1.214195 
L -9.917821 1.955676 
z
" id="m7aeaf193c9" style="stroke:#0000ff;"/>
    </defs>
    <g clip-path="url(#p148c8689a1)">
     <use style="fill:#0000ff;stroke:#0000ff;" x="328.953793" xlink:href="#m7aeaf193c9" y="39.519457"/>
    </g>
   </g>
   <g id="patch_3">
    <path clip-path="url(#p148c8689a1)" d="M 343.121139 53.53677 
C 346.907535 53.53677 350.53936 52.032418 353.216746 49.355032 
C 355.894133 46.677646 357.398484 43.045821 357.398484 39.259425 
C 357.398484 35.473029 355.894133 31.841204 353.216746 29.163817 
C 350.53936 26.486431 346.907535 24.98208 343.121139 24.98208 
C 339.334743 24.98208 335.702918 26.486431 333.025532 29.163817 
C 330.348145 31.841204 328.843794 35.473029 328.843794 39.259425 
C 328.843794 43.045821 330.348145 46.677646 333.025532 49.355032 
C 335.702918 52.032418 339.334743 53.53677 343.121139 53.53677 
z
" style="fill:#bfbf00;stroke:#bfbf00;stroke-linejoin:miter;stroke-width:2;"/>
   </g>
   <g id="matplotlib.axis_1">
    <g id="xtick_1">
     <g id="line2d_1">
      <defs>
       <path d="M 0 0 
L 0 3.5 
" id="mc13c641c0c" style="stroke:#000000;stroke-width:0.8;"/>
      </defs>
      <g>
       <use style="stroke:#000000;stroke-width:0.8;" x="57.574244" xlink:href="#mc13c641c0c" y="324.80632"/>
      </g>
     </g>
     <g id="text_1">
      <!-- −4.0 -->
      <defs>
       <path d="M 10.59375 35.5 
L 73.1875 35.5 
L 73.1875 27.203125 
L 10.59375 27.203125 
z
" id="DejaVuSans-8722"/>
       <path d="M 37.796875 64.3125 
L 12.890625 25.390625 
L 37.796875 25.390625 
z
M 35.203125 72.90625 
L 47.609375 72.90625 
L 47.609375 25.390625 
L 58.015625 25.390625 
L 58.015625 17.1875 
L 47.609375 17.1875 
L 47.609375 0 
L 37.796875 0 
L 37.796875 17.1875 
L 4.890625 17.1875 
L 4.890625 26.703125 
z
" id="DejaVuSans-52"/>
       <path d="M 10.6875 12.40625 
L 21 12.40625 
L 21 0 
L 10.6875 0 
z
" id="DejaVuSans-46"/>
       <path d="M 31.78125 66.40625 
Q 24.171875 66.40625 20.328125 58.90625 
Q 16.5 51.421875 16.5 36.375 
Q 16.5 21.390625 20.328125 13.890625 
Q 24.171875 6.390625 31.78125 6.390625 
Q 39.453125 6.390625 43.28125 13.890625 
Q 47.125 21.390625 47.125 36.375 
Q 47.125 51.421875 43.28125 58.90625 
Q 39.453125 66.40625 31.78125 66.40625 
z
M 31.78125 74.21875 
Q 44.046875 74.21875 50.515625 64.515625 
Q 56.984375 54.828125 56.984375 36.375 
Q 56.984375 17.96875 50.515625 8.265625 
Q 44.046875 -1.421875 31.78125 -1.421875 
Q 19.53125 -1.421875 13.0625 8.265625 
Q 6.59375 17.96875 6.59375 36.375 
Q 6.59375 54.828125 13.0625 64.515625 
Q 19.53125 74.21875 31.78125 74.21875 
z
" id="DejaVuSans-48"/>
      </defs>
      <g transform="translate(45.432837 339.404758)scale(0.1 -0.1)">
       <use xlink:href="#DejaVuSans-8722"/>
       <use x="83.789062" xlink:href="#DejaVuSans-52"/>
       <use x="147.412109" xlink:href="#DejaVuSans-46"/>
       <use x="179.199219" xlink:href="#DejaVuSans-48"/>
      </g>
     </g>
    </g>
    <g id="xtick_2">
     <g id="line2d_2">
      <g>
       <use style="stroke:#000000;stroke-width:0.8;" x="93.267606" xlink:href="#mc13c641c0c" y="324.80632"/>
      </g>
     </g>
     <g id="text_2">
      <!-- −3.5 -->
      <defs>
       <path d="M 40.578125 39.3125 
Q 47.65625 37.796875 51.625 33 
Q 55.609375 28.21875 55.609375 21.1875 
Q 55.609375 10.40625 48.1875 4.484375 
Q 40.765625 -1.421875 27.09375 -1.421875 
Q 22.515625 -1.421875 17.65625 -0.515625 
Q 12.796875 0.390625 7.625 2.203125 
L 7.625 11.71875 
Q 11.71875 9.328125 16.59375 8.109375 
Q 21.484375 6.890625 26.8125 6.890625 
Q 36.078125 6.890625 40.9375 10.546875 
Q 45.796875 14.203125 45.796875 21.1875 
Q 45.796875 27.640625 41.28125 31.265625 
Q 36.765625 34.90625 28.71875 34.90625 
L 20.21875 34.90625 
L 20.21875 43.015625 
L 29.109375 43.015625 
Q 36.375 43.015625 40.234375 45.921875 
Q 44.09375 48.828125 44.09375 54.296875 
Q 44.09375 59.90625 40.109375 62.90625 
Q 36.140625 65.921875 28.71875 65.921875 
Q 24.65625 65.921875 20.015625 65.03125 
Q 15.375 64.15625 9.8125 62.3125 
L 9.8125 71.09375 
Q 15.4375 72.65625 20.34375 73.4375 
Q 25.25 74.21875 29.59375 74.21875 
Q 40.828125 74.21875 47.359375 69.109375 
Q 53.90625 64.015625 53.90625 55.328125 
Q 53.90625 49.265625 50.4375 45.09375 
Q 46.96875 40.921875 40.578125 39.3125 
z
" id="DejaVuSans-51"/>
       <path d="M 10.796875 72.90625 
L 49.515625 72.90625 
L 49.515625 64.59375 
L 19.828125 64.59375 
L 19.828125 46.734375 
Q 21.96875 47.46875 24.109375 47.828125 
Q 26.265625 48.1875 28.421875 48.1875 
Q 40.625 48.1875 47.75 41.5 
Q 54.890625 34.8125 54.890625 23.390625 
Q 54.890625 11.625 47.5625 5.09375 
Q 40.234375 -1.421875 26.90625 -1.421875 
Q 22.3125 -1.421875 17.546875 -0.640625 
Q 12.796875 0.140625 7.71875 1.703125 
L 7.71875 11.625 
Q 12.109375 9.234375 16.796875 8.0625 
Q 21.484375 6.890625 26.703125 6.890625 
Q 35.15625 6.890625 40.078125 11.328125 
Q 45.015625 15.765625 45.015625 23.390625 
Q 45.015625 31 40.078125 35.4375 
Q 35.15625 39.890625 26.703125 39.890625 
Q 22.75 39.890625 18.8125 39.015625 
Q 14.890625 38.140625 10.796875 36.28125 
z
" id="DejaVuSans-53"/>
      </defs>
      <g transform="translate(81.126199 339.404758)scale(0.1 -0.1)">
       <use xlink:href="#DejaVuSans-8722"/>
       <use x="83.789062" xlink:href="#DejaVuSans-51"/>
       <use x="147.412109" xlink:href="#DejaVuSans-46"/>
       <use x="179.199219" xlink:href="#DejaVuSans-53"/>
      </g>
     </g>
    </g>
    <g id="xtick_3">
     <g id="line2d_3">
      <g>
       <use style="stroke:#000000;stroke-width:0.8;" x="128.960967" xlink:href="#mc13c641c0c" y="324.80632"/>
      </g>
     </g>
     <g id="text_3">
      <!-- −3.0 -->
      <g transform="translate(116.819561 339.404758)scale(0.1 -0.1)">
       <use xlink:href="#DejaVuSans-8722"/>
       <use x="83.789062" xlink:href="#DejaVuSans-51"/>
       <use x="147.412109" xlink:href="#DejaVuSans-46"/>
       <use x="179.199219" xlink:href="#DejaVuSans-48"/>
      </g>
     </g>
    </g>
    <g id="xtick_4">
     <g id="line2d_4">
      <g>
       <use style="stroke:#000000;stroke-width:0.8;" x="164.654329" xlink:href="#mc13c641c0c" y="324.80632"/>
      </g>
     </g>
     <g id="text_4">
      <!-- −2.5 -->
      <defs>
       <path d="M 19.1875 8.296875 
L 53.609375 8.296875 
L 53.609375 0 
L 7.328125 0 
L 7.328125 8.296875 
Q 12.9375 14.109375 22.625 23.890625 
Q 32.328125 33.6875 34.8125 36.53125 
Q 39.546875 41.84375 41.421875 45.53125 
Q 43.3125 49.21875 43.3125 52.78125 
Q 43.3125 58.59375 39.234375 62.25 
Q 35.15625 65.921875 28.609375 65.921875 
Q 23.96875 65.921875 18.8125 64.3125 
Q 13.671875 62.703125 7.8125 59.421875 
L 7.8125 69.390625 
Q 13.765625 71.78125 18.9375 73 
Q 24.125 74.21875 28.421875 74.21875 
Q 39.75 74.21875 46.484375 68.546875 
Q 53.21875 62.890625 53.21875 53.421875 
Q 53.21875 48.921875 51.53125 44.890625 
Q 49.859375 40.875 45.40625 35.40625 
Q 44.1875 33.984375 37.640625 27.21875 
Q 31.109375 20.453125 19.1875 8.296875 
z
" id="DejaVuSans-50"/>
      </defs>
      <g transform="translate(152.512923 339.404758)scale(0.1 -0.1)">
       <use xlink:href="#DejaVuSans-8722"/>
       <use x="83.789062" xlink:href="#DejaVuSans-50"/>
       <use x="147.412109" xlink:href="#DejaVuSans-46"/>
       <use x="179.199219" xlink:href="#DejaVuSans-53"/>
      </g>
     </g>
    </g>
    <g id="xtick_5">
     <g id="line2d_5">
      <g>
       <use style="stroke:#000000;stroke-width:0.8;" x="200.347691" xlink:href="#mc13c641c0c" y="324.80632"/>
      </g>
     </g>
     <g id="text_5">
      <!-- −2.0 -->
      <g transform="translate(188.206285 339.404758)scale(0.1 -0.1)">
       <use xlink:href="#DejaVuSans-8722"/>
       <use x="83.789062" xlink:href="#DejaVuSans-50"/>
       <use x="147.412109" xlink:href="#DejaVuSans-46"/>
       <use x="179.199219" xlink:href="#DejaVuSans-48"/>
      </g>
     </g>
    </g>
    <g id="xtick_6">
     <g id="line2d_6">
      <g>
       <use style="stroke:#000000;stroke-width:0.8;" x="236.041053" xlink:href="#mc13c641c0c" y="324.80632"/>
      </g>
     </g>
     <g id="text_6">
      <!-- −1.5 -->
      <defs>
       <path d="M 12.40625 8.296875 
L 28.515625 8.296875 
L 28.515625 63.921875 
L 10.984375 60.40625 
L 10.984375 69.390625 
L 28.421875 72.90625 
L 38.28125 72.90625 
L 38.28125 8.296875 
L 54.390625 8.296875 
L 54.390625 0 
L 12.40625 0 
z
" id="DejaVuSans-49"/>
      </defs>
      <g transform="translate(223.899647 339.404758)scale(0.1 -0.1)">
       <use xlink:href="#DejaVuSans-8722"/>
       <use x="83.789062" xlink:href="#DejaVuSans-49"/>
       <use x="147.412109" xlink:href="#DejaVuSans-46"/>
       <use x="179.199219" xlink:href="#DejaVuSans-53"/>
      </g>
     </g>
    </g>
    <g id="xtick_7">
     <g id="line2d_7">
      <g>
       <use style="stroke:#000000;stroke-width:0.8;" x="271.734415" xlink:href="#mc13c641c0c" y="324.80632"/>
      </g>
     </g>
     <g id="text_7">
      <!-- −1.0 -->
      <g transform="translate(259.593009 339.404758)scale(0.1 -0.1)">
       <use xlink:href="#DejaVuSans-8722"/>
       <use x="83.789062" xlink:href="#DejaVuSans-49"/>
       <use x="147.412109" xlink:href="#DejaVuSans-46"/>
       <use x="179.199219" xlink:href="#DejaVuSans-48"/>
      </g>
     </g>
    </g>
    <g id="xtick_8">
     <g id="line2d_8">
      <g>
       <use style="stroke:#000000;stroke-width:0.8;" x="307.427777" xlink:href="#mc13c641c0c" y="324.80632"/>
      </g>
     </g>
     <g id="text_8">
      <!-- −0.5 -->
      <g transform="translate(295.286371 339.404758)scale(0.1 -0.1)">
       <use xlink:href="#DejaVuSans-8722"/>
       <use x="83.789062" xlink:href="#DejaVuSans-48"/>
       <use x="147.412109" xlink:href="#DejaVuSans-46"/>
       <use x="179.199219" xlink:href="#DejaVuSans-53"/>
      </g>
     </g>
    </g>
    <g id="xtick_9">
     <g id="line2d_9">
      <g>
       <use style="stroke:#000000;stroke-width:0.8;" x="343.121139" xlink:href="#mc13c641c0c" y="324.80632"/>
      </g>
     </g>
     <g id="text_9">
      <!-- 0.0 -->
      <g transform="translate(335.169576 339.404758)scale(0.1 -0.1)">
       <use xlink:href="#DejaVuSans-48"/>
       <use x="63.623047" xlink:href="#DejaVuSans-46"/>
       <use x="95.410156" xlink:href="#DejaVuSans-48"/>
      </g>
     </g>
    </g>
    <g id="text_10">
     <!-- x [m] -->
     <defs>
      <path d="M 54.890625 54.6875 
L 35.109375 28.078125 
L 55.90625 0 
L 45.3125 0 
L 29.390625 21.484375 
L 13.484375 0 
L 2.875 0 
L 24.125 28.609375 
L 4.6875 54.6875 
L 15.28125 54.6875 
L 29.78125 35.203125 
L 44.28125 54.6875 
z
" id="DejaVuSans-120"/>
      <path id="DejaVuSans-32"/>
      <path d="M 8.59375 75.984375 
L 29.296875 75.984375 
L 29.296875 69 
L 17.578125 69 
L 17.578125 -6.203125 
L 29.296875 -6.203125 
L 29.296875 -13.1875 
L 8.59375 -13.1875 
z
" id="DejaVuSans-91"/>
      <path d="M 52 44.1875 
Q 55.375 50.25 60.0625 53.125 
Q 64.75 56 71.09375 56 
Q 79.640625 56 84.28125 50.015625 
Q 88.921875 44.046875 88.921875 33.015625 
L 88.921875 0 
L 79.890625 0 
L 79.890625 32.71875 
Q 79.890625 40.578125 77.09375 44.375 
Q 74.3125 48.1875 68.609375 48.1875 
Q 61.625 48.1875 57.5625 43.546875 
Q 53.515625 38.921875 53.515625 30.90625 
L 53.515625 0 
L 44.484375 0 
L 44.484375 32.71875 
Q 44.484375 40.625 41.703125 44.40625 
Q 38.921875 48.1875 33.109375 48.1875 
Q 26.21875 48.1875 22.15625 43.53125 
Q 18.109375 38.875 18.109375 30.90625 
L 18.109375 0 
L 9.078125 0 
L 9.078125 54.6875 
L 18.109375 54.6875 
L 18.109375 46.1875 
Q 21.1875 51.21875 25.484375 53.609375 
Q 29.78125 56 35.6875 56 
Q 41.65625 56 45.828125 52.96875 
Q 50 49.953125 52 44.1875 
z
" id="DejaVuSans-109"/>
      <path d="M 30.421875 75.984375 
L 30.421875 -13.1875 
L 9.71875 -13.1875 
L 9.71875 -6.203125 
L 21.390625 -6.203125 
L 21.390625 69 
L 9.71875 69 
L 9.71875 75.984375 
z
" id="DejaVuSans-93"/>
     </defs>
     <g transform="translate(194.166051 353.082883)scale(0.1 -0.1)">
      <use xlink:href="#DejaVuSans-120"/>
      <use x="59.179688" xlink:href="#DejaVuSans-32"/>
      <use x="90.966797" xlink:href="#DejaVuSans-91"/>
      <use x="129.980469" xlink:href="#DejaVuSans-109"/>
      <use x="227.392578" xlink:href="#DejaVuSans-93"/>
     </g>
    </g>
   </g>
   <g id="matplotlib.axis_2">
    <g id="ytick_1">
     <g id="line2d_10">
      <defs>
       <path d="M 0 0 
L -3.5 0 
" id="m4b528ffb0a" style="stroke:#000000;stroke-width:0.8;"/>
      </defs>
      <g>
       <use style="stroke:#000000;stroke-width:0.8;" x="57.574244" xlink:href="#m4b528ffb0a" y="324.80632"/>
      </g>
     </g>
     <g id="text_11">
      <!-- −4.0 -->
      <g transform="translate(26.291431 328.605539)scale(0.1 -0.1)">
       <use xlink:href="#DejaVuSans-8722"/>
       <use x="83.789062" xlink:href="#DejaVuSans-52"/>
       <use x="147.412109" xlink:href="#DejaVuSans-46"/>
       <use x="179.199219" xlink:href="#DejaVuSans-48"/>
      </g>
     </g>
    </g>
    <g id="ytick_2">
     <g id="line2d_11">
      <g>
       <use style="stroke:#000000;stroke-width:0.8;" x="57.574244" xlink:href="#m4b528ffb0a" y="289.112958"/>
      </g>
     </g>
     <g id="text_12">
      <!-- −3.5 -->
      <g transform="translate(26.291431 292.912177)scale(0.1 -0.1)">
       <use xlink:href="#DejaVuSans-8722"/>
       <use x="83.789062" xlink:href="#DejaVuSans-51"/>
       <use x="147.412109" xlink:href="#DejaVuSans-46"/>
       <use x="179.199219" xlink:href="#DejaVuSans-53"/>
      </g>
     </g>
    </g>
    <g id="ytick_3">
     <g id="line2d_12">
      <g>
       <use style="stroke:#000000;stroke-width:0.8;" x="57.574244" xlink:href="#m4b528ffb0a" y="253.419596"/>
      </g>
     </g>
     <g id="text_13">
      <!-- −3.0 -->
      <g transform="translate(26.291431 257.218815)scale(0.1 -0.1)">
       <use xlink:href="#DejaVuSans-8722"/>
       <use x="83.789062" xlink:href="#DejaVuSans-51"/>
       <use x="147.412109" xlink:href="#DejaVuSans-46"/>
       <use x="179.199219" xlink:href="#DejaVuSans-48"/>
      </g>
     </g>
    </g>
    <g id="ytick_4">
     <g id="line2d_13">
      <g>
       <use style="stroke:#000000;stroke-width:0.8;" x="57.574244" xlink:href="#m4b528ffb0a" y="217.726234"/>
      </g>
     </g>
     <g id="text_14">
      <!-- −2.5 -->
      <g transform="translate(26.291431 221.525453)scale(0.1 -0.1)">
       <use xlink:href="#DejaVuSans-8722"/>
       <use x="83.789062" xlink:href="#DejaVuSans-50"/>
       <use x="147.412109" xlink:href="#DejaVuSans-46"/>
       <use x="179.199219" xlink:href="#DejaVuSans-53"/>
      </g>
     </g>
    </g>
    <g id="ytick_5">
     <g id="line2d_14">
      <g>
       <use style="stroke:#000000;stroke-width:0.8;" x="57.574244" xlink:href="#m4b528ffb0a" y="182.032872"/>
      </g>
     </g>
     <g id="text_15">
      <!-- −2.0 -->
      <g transform="translate(26.291431 185.832091)scale(0.1 -0.1)">
       <use xlink:href="#DejaVuSans-8722"/>
       <use x="83.789062" xlink:href="#DejaVuSans-50"/>
       <use x="147.412109" xlink:href="#DejaVuSans-46"/>
       <use x="179.199219" xlink:href="#DejaVuSans-48"/>
      </g>
     </g>
    </g>
    <g id="ytick_6">
     <g id="line2d_15">
      <g>
       <use style="stroke:#000000;stroke-width:0.8;" x="57.574244" xlink:href="#m4b528ffb0a" y="146.33951"/>
      </g>
     </g>
     <g id="text_16">
      <!-- −1.5 -->
      <g transform="translate(26.291431 150.138729)scale(0.1 -0.1)">
       <use xlink:href="#DejaVuSans-8722"/>
       <use x="83.789062" xlink:href="#DejaVuSans-49"/>
       <use x="147.412109" xlink:href="#DejaVuSans-46"/>
       <use x="179.199219" xlink:href="#DejaVuSans-53"/>
      </g>
     </g>
    </g>
    <g id="ytick_7">
     <g id="line2d_16">
      <g>
       <use style="stroke:#000000;stroke-width:0.8;" x="57.574244" xlink:href="#m4b528ffb0a" y="110.646149"/>
      </g>
     </g>
     <g id="text_17">
      <!-- −1.0 -->
      <g transform="translate(26.291431 114.445367)scale(0.1 -0.1)">
       <use xlink:href="#DejaVuSans-8722"/>
       <use x="83.789062" xlink:href="#DejaVuSans-49"/>
       <use x="147.412109" xlink:href="#DejaVuSans-46"/>
       <use x="179.199219" xlink:href="#DejaVuSans-48"/>
      </g>
     </g>
    </g>
    <g id="ytick_8">
     <g id="line2d_17">
      <g>
       <use style="stroke:#000000;stroke-width:0.8;" x="57.574244" xlink:href="#m4b528ffb0a" y="74.952787"/>
      </g>
     </g>
     <g id="text_18">
      <!-- −0.5 -->
      <g transform="translate(26.291431 78.752005)scale(0.1 -0.1)">
       <use xlink:href="#DejaVuSans-8722"/>
       <use x="83.789062" xlink:href="#DejaVuSans-48"/>
       <use x="147.412109" xlink:href="#DejaVuSans-46"/>
       <use x="179.199219" xlink:href="#DejaVuSans-53"/>
      </g>
     </g>
    </g>
    <g id="ytick_9">
     <g id="line2d_18">
      <g>
       <use style="stroke:#000000;stroke-width:0.8;" x="57.574244" xlink:href="#m4b528ffb0a" y="39.259425"/>
      </g>
     </g>
     <g id="text_19">
      <!-- 0.0 -->
      <g transform="translate(34.671119 43.058644)scale(0.1 -0.1)">
       <use xlink:href="#DejaVuSans-48"/>
       <use x="63.623047" xlink:href="#DejaVuSans-46"/>
       <use x="95.410156" xlink:href="#DejaVuSans-48"/>
      </g>
     </g>
    </g>
    <g id="text_20">
     <!-- y [m] -->
     <defs>
      <path d="M 32.171875 -5.078125 
Q 28.375 -14.84375 24.75 -17.8125 
Q 21.140625 -20.796875 15.09375 -20.796875 
L 7.90625 -20.796875 
L 7.90625 -13.28125 
L 13.1875 -13.28125 
Q 16.890625 -13.28125 18.9375 -11.515625 
Q 21 -9.765625 23.484375 -3.21875 
L 25.09375 0.875 
L 2.984375 54.6875 
L 12.5 54.6875 
L 29.59375 11.921875 
L 46.6875 54.6875 
L 56.203125 54.6875 
z
" id="DejaVuSans-121"/>
     </defs>
     <g transform="translate(20.211744 188.214513)rotate(-90)scale(0.1 -0.1)">
      <use xlink:href="#DejaVuSans-121"/>
      <use x="59.179688" xlink:href="#DejaVuSans-32"/>
      <use x="90.966797" xlink:href="#DejaVuSans-91"/>
      <use x="129.980469" xlink:href="#DejaVuSans-109"/>
      <use x="227.392578" xlink:href="#DejaVuSans-93"/>
     </g>
    </g>
   </g>
   <g id="line2d_19">
    <path clip-path="url(#p148c8689a1)" d="M 57.574244 39.259425 
L 357.398484 39.259425 
" style="fill:none;stroke:#000000;stroke-dasharray:2.775,1.2;stroke-dashoffset:0;stroke-width:0.75;"/>
   </g>
   <g id="line2d_20">
    <path clip-path="url(#p148c8689a1)" d="M 343.121139 324.80632 
L 343.121139 24.98208 
" style="fill:none;stroke:#000000;stroke-dasharray:2.775,1.2;stroke-dashoffset:0;stroke-width:0.75;"/>
   </g>
   <g id="line2d_21">
    <path clip-path="url(#p148c8689a1)" d="M 128.960967 253.419596 
L 128.960967 253.419596 
L 128.961136 253.27686 
L 128.96532 252.297023 
L 129.188482 244.448257 
L 129.742969 236.615868 
L 130.61582 228.812503 
L 131.794602 221.049427 
L 133.267489 213.336713 
L 135.023272 205.683415 
L 137.05135 198.097704 
L 139.329166 190.627924 
L 141.801003 183.406597 
L 144.44313 176.446283 
L 147.236626 169.745511 
L 150.163645 163.301833 
L 153.207396 157.111968 
L 156.352117 151.171924 
L 159.58305 145.47709 
L 162.886418 140.022337 
L 166.249383 134.802098 
L 169.660019 129.810449 
L 173.107273 125.041174 
L 176.580927 120.487832 
L 180.071561 116.14381 
L 183.570513 112.002377 
L 187.069842 108.056725 
L 190.56229 104.300011 
L 194.041242 100.725395 
L 197.500694 97.326065 
L 200.935211 94.095268 
L 204.339898 91.026335 
L 207.71036 88.112697 
L 211.042675 85.347906 
L 214.33336 82.725648 
L 217.57934 80.239755 
L 220.777923 77.884216 
L 223.926768 75.653185 
L 227.023863 73.540986 
L 230.067496 71.54212 
L 233.056236 69.651265 
L 235.98891 67.863282 
L 238.864578 66.173212 
L 241.682519 64.576278 
L 244.442209 63.067886 
L 247.143306 61.643619 
L 249.78563 60.299236 
L 252.369154 59.030674 
L 254.893982 57.834038 
L 257.360345 56.705599 
L 259.768579 55.641795 
L 262.119122 54.63922 
L 264.412498 53.694621 
L 266.64931 52.8049 
L 268.830228 51.967098 
L 270.955986 51.178399 
L 273.027369 50.436123 
L 275.045206 49.737719 
L 277.010369 49.080762 
L 278.923761 48.462947 
L 280.786313 47.882086 
L 282.59898 47.3361 
L 284.362733 46.823019 
L 286.07856 46.340973 
L 287.747458 45.88819 
L 289.37043 45.462992 
L 290.948483 45.063789 
L 292.482627 44.689076 
L 293.973868 44.337429 
L 295.423209 44.007501 
L 296.831649 43.698018 
L 298.200176 43.407777 
L 299.529772 43.135639 
L 300.821406 42.880532 
L 302.076038 42.641439 
L 303.294612 42.417404 
L 304.47806 42.207523 
L 305.627299 42.010944 
L 306.74323 41.826862 
L 307.826739 41.654519 
L 308.878696 41.493202 
L 309.899953 41.342237 
L 310.891346 41.200989 
L 311.853693 41.068862 
L 312.787795 40.945293 
L 313.694436 40.829752 
L 314.574381 40.721742 
L 315.428378 40.620794 
L 316.257159 40.526466 
L 317.061437 40.438345 
L 317.841907 40.356039 
L 318.599249 40.279183 
L 319.334125 40.207432 
L 320.047179 40.140462 
L 320.739041 40.077969 
L 321.410322 40.019668 
L 322.061619 39.965291 
L 322.693513 39.914584 
L 323.306569 39.867314 
L 323.901335 39.823257 
L 324.478348 39.782205 
L 325.038127 39.743963 
L 325.581178 39.708348 
L 326.107994 39.675189 
L 326.619051 39.644325 
L 327.114816 39.615603 
L 327.59574 39.588884 
L 328.062262 39.564035 
L 328.514808 39.540932 
L 328.953793 39.519457 
" style="fill:none;stroke:#0000ff;stroke-dasharray:1.85,0.8;stroke-dashoffset:0;stroke-width:0.5;"/>
   </g>
   <g id="patch_4">
    <path d="M 57.574244 324.80632 
L 57.574244 24.98208 
" style="fill:none;stroke:#000000;stroke-linecap:square;stroke-linejoin:miter;stroke-width:0.8;"/>
   </g>
   <g id="patch_5">
    <path d="M 357.398484 324.80632 
L 357.398484 24.98208 
" style="fill:none;stroke:#000000;stroke-linecap:square;stroke-linejoin:miter;stroke-width:0.8;"/>
   </g>
   <g id="patch_6">
    <path d="M 57.574244 324.80632 
L 357.398484 324.80632 
" style="fill:none;stroke:#000000;stroke-linecap:square;stroke-linejoin:miter;stroke-width:0.8;"/>
   </g>
   <g id="patch_7">
    <path d="M 57.574244 24.98208 
L 357.398484 24.98208 
" style="fill:none;stroke:#000000;stroke-linecap:square;stroke-linejoin:miter;stroke-width:0.8;"/>
   </g>
   <g id="text_21">
    <!-- Target -->
    <defs>
     <path d="M -0.296875 72.90625 
L 61.375 72.90625 
L 61.375 64.59375 
L 35.5 64.59375 
L 35.5 0 
L 25.59375 0 
L 25.59375 64.59375 
L -0.296875 64.59375 
z
" id="DejaVuSans-84"/>
     <path d="M 34.28125 27.484375 
Q 23.390625 27.484375 19.1875 25 
Q 14.984375 22.515625 14.984375 16.5 
Q 14.984375 11.71875 18.140625 8.90625 
Q 21.296875 6.109375 26.703125 6.109375 
Q 34.1875 6.109375 38.703125 11.40625 
Q 43.21875 16.703125 43.21875 25.484375 
L 43.21875 27.484375 
z
M 52.203125 31.203125 
L 52.203125 0 
L 43.21875 0 
L 43.21875 8.296875 
Q 40.140625 3.328125 35.546875 0.953125 
Q 30.953125 -1.421875 24.3125 -1.421875 
Q 15.921875 -1.421875 10.953125 3.296875 
Q 6 8.015625 6 15.921875 
Q 6 25.140625 12.171875 29.828125 
Q 18.359375 34.515625 30.609375 34.515625 
L 43.21875 34.515625 
L 43.21875 35.40625 
Q 43.21875 41.609375 39.140625 45 
Q 35.0625 48.390625 27.6875 48.390625 
Q 23 48.390625 18.546875 47.265625 
Q 14.109375 46.140625 10.015625 43.890625 
L 10.015625 52.203125 
Q 14.9375 54.109375 19.578125 55.046875 
Q 24.21875 56 28.609375 56 
Q 40.484375 56 46.34375 49.84375 
Q 52.203125 43.703125 52.203125 31.203125 
z
" id="DejaVuSans-97"/>
     <path d="M 41.109375 46.296875 
Q 39.59375 47.171875 37.8125 47.578125 
Q 36.03125 48 33.890625 48 
Q 26.265625 48 22.1875 43.046875 
Q 18.109375 38.09375 18.109375 28.8125 
L 18.109375 0 
L 9.078125 0 
L 9.078125 54.6875 
L 18.109375 54.6875 
L 18.109375 46.1875 
Q 20.953125 51.171875 25.484375 53.578125 
Q 30.03125 56 36.53125 56 
Q 37.453125 56 38.578125 55.875 
Q 39.703125 55.765625 41.0625 55.515625 
z
" id="DejaVuSans-114"/>
     <path d="M 45.40625 27.984375 
Q 45.40625 37.75 41.375 43.109375 
Q 37.359375 48.484375 30.078125 48.484375 
Q 22.859375 48.484375 18.828125 43.109375 
Q 14.796875 37.75 14.796875 27.984375 
Q 14.796875 18.265625 18.828125 12.890625 
Q 22.859375 7.515625 30.078125 7.515625 
Q 37.359375 7.515625 41.375 12.890625 
Q 45.40625 18.265625 45.40625 27.984375 
z
M 54.390625 6.78125 
Q 54.390625 -7.171875 48.1875 -13.984375 
Q 42 -20.796875 29.203125 -20.796875 
Q 24.46875 -20.796875 20.265625 -20.09375 
Q 16.0625 -19.390625 12.109375 -17.921875 
L 12.109375 -9.1875 
Q 16.0625 -11.328125 19.921875 -12.34375 
Q 23.78125 -13.375 27.78125 -13.375 
Q 36.625 -13.375 41.015625 -8.765625 
Q 45.40625 -4.15625 45.40625 5.171875 
L 45.40625 9.625 
Q 42.625 4.78125 38.28125 2.390625 
Q 33.9375 0 27.875 0 
Q 17.828125 0 11.671875 7.65625 
Q 5.515625 15.328125 5.515625 27.984375 
Q 5.515625 40.671875 11.671875 48.328125 
Q 17.828125 56 27.875 56 
Q 33.9375 56 38.28125 53.609375 
Q 42.625 51.21875 45.40625 46.390625 
L 45.40625 54.6875 
L 54.390625 54.6875 
z
" id="DejaVuSans-103"/>
     <path d="M 56.203125 29.59375 
L 56.203125 25.203125 
L 14.890625 25.203125 
Q 15.484375 15.921875 20.484375 11.0625 
Q 25.484375 6.203125 34.421875 6.203125 
Q 39.59375 6.203125 44.453125 7.46875 
Q 49.3125 8.734375 54.109375 11.28125 
L 54.109375 2.78125 
Q 49.265625 0.734375 44.1875 -0.34375 
Q 39.109375 -1.421875 33.890625 -1.421875 
Q 20.796875 -1.421875 13.15625 6.1875 
Q 5.515625 13.8125 5.515625 26.8125 
Q 5.515625 40.234375 12.765625 48.109375 
Q 20.015625 56 32.328125 56 
Q 43.359375 56 49.78125 48.890625 
Q 56.203125 41.796875 56.203125 29.59375 
z
M 47.21875 32.234375 
Q 47.125 39.59375 43.09375 43.984375 
Q 39.0625 48.390625 32.421875 48.390625 
Q 24.90625 48.390625 20.390625 44.140625 
Q 15.875 39.890625 15.1875 32.171875 
z
" id="DejaVuSans-101"/>
     <path d="M 18.3125 70.21875 
L 18.3125 54.6875 
L 36.8125 54.6875 
L 36.8125 47.703125 
L 18.3125 47.703125 
L 18.3125 18.015625 
Q 18.3125 11.328125 20.140625 9.421875 
Q 21.96875 7.515625 27.59375 7.515625 
L 36.8125 7.515625 
L 36.8125 0 
L 27.59375 0 
Q 17.1875 0 13.234375 3.875 
Q 9.28125 7.765625 9.28125 18.015625 
L 9.28125 47.703125 
L 2.6875 47.703125 
L 2.6875 54.6875 
L 9.28125 54.6875 
L 9.28125 70.21875 
z
" id="DejaVuSans-116"/>
    </defs>
    <g transform="translate(321.419575 57.723879)scale(0.1 -0.1)">
     <use xlink:href="#DejaVuSans-84"/>
     <use x="60.833984" xlink:href="#DejaVuSans-97"/>
     <use x="122.113281" xlink:href="#DejaVuSans-114"/>
     <use x="163.210938" xlink:href="#DejaVuSans-103"/>
     <use x="226.6875" xlink:href="#DejaVuSans-101"/>
     <use x="288.210938" xlink:href="#DejaVuSans-116"/>
    </g>
   </g>
   <g id="text_22">
    <!-- t = 5.307 -->
    <defs>
     <path d="M 10.59375 45.40625 
L 73.1875 45.40625 
L 73.1875 37.203125 
L 10.59375 37.203125 
z
M 10.59375 25.484375 
L 73.1875 25.484375 
L 73.1875 17.1875 
L 10.59375 17.1875 
z
" id="DejaVuSans-61"/>
     <path d="M 8.203125 72.90625 
L 55.078125 72.90625 
L 55.078125 68.703125 
L 28.609375 0 
L 18.3125 0 
L 43.21875 64.59375 
L 8.203125 64.59375 
z
" id="DejaVuSans-55"/>
    </defs>
    <g transform="translate(72.565456 42.732667)scale(0.1 -0.1)">
     <use xlink:href="#DejaVuSans-116"/>
     <use x="39.208984" xlink:href="#DejaVuSans-32"/>
     <use x="70.996094" xlink:href="#DejaVuSans-61"/>
     <use x="154.785156" xlink:href="#DejaVuSans-32"/>
     <use x="186.572266" xlink:href="#DejaVuSans-53"/>
     <use x="250.195312" xlink:href="#DejaVuSans-46"/>
     <use x="281.982422" xlink:href="#DejaVuSans-51"/>
     <use x="345.605469" xlink:href="#DejaVuSans-48"/>
     <use x="409.228516" xlink:href="#DejaVuSans-55"/>
    </g>
   </g>
   <g id="text_23">
    <!-- Pause - space, q - quit, click - data cursor -->
    <defs>
     <path d="M 19.671875 64.796875 
L 19.671875 37.40625 
L 32.078125 37.40625 
Q 38.96875 37.40625 42.71875 40.96875 
Q 46.484375 44.53125 46.484375 51.125 
Q 46.484375 57.671875 42.71875 61.234375 
Q 38.96875 64.796875 32.078125 64.796875 
z
M 9.8125 72.90625 
L 32.078125 72.90625 
Q 44.34375 72.90625 50.609375 67.359375 
Q 56.890625 61.8125 56.890625 51.125 
Q 56.890625 40.328125 50.609375 34.8125 
Q 44.34375 29.296875 32.078125 29.296875 
L 19.671875 29.296875 
L 19.671875 0 
L 9.8125 0 
z
" id="DejaVuSans-80"/>
     <path d="M 8.5 21.578125 
L 8.5 54.6875 
L 17.484375 54.6875 
L 17.484375 21.921875 
Q 17.484375 14.15625 20.5 10.265625 
Q 23.53125 6.390625 29.59375 6.390625 
Q 36.859375 6.390625 41.078125 11.03125 
Q 45.3125 15.671875 45.3125 23.6875 
L 45.3125 54.6875 
L 54.296875 54.6875 
L 54.296875 0 
L 45.3125 0 
L 45.3125 8.40625 
Q 42.046875 3.421875 37.71875 1 
Q 33.40625 -1.421875 27.6875 -1.421875 
Q 18.265625 -1.421875 13.375 4.4375 
Q 8.5 10.296875 8.5 21.578125 
z
M 31.109375 56 
z
" id="DejaVuSans-117"/>
     <path d="M 44.28125 53.078125 
L 44.28125 44.578125 
Q 40.484375 46.53125 36.375 47.5 
Q 32.28125 48.484375 27.875 48.484375 
Q 21.1875 48.484375 17.84375 46.4375 
Q 14.5 44.390625 14.5 40.28125 
Q 14.5 37.15625 16.890625 35.375 
Q 19.28125 33.59375 26.515625 31.984375 
L 29.59375 31.296875 
Q 39.15625 29.25 43.1875 25.515625 
Q 47.21875 21.78125 47.21875 15.09375 
Q 47.21875 7.46875 41.1875 3.015625 
Q 35.15625 -1.421875 24.609375 -1.421875 
Q 20.21875 -1.421875 15.453125 -0.5625 
Q 10.6875 0.296875 5.421875 2 
L 5.421875 11.28125 
Q 10.40625 8.6875 15.234375 7.390625 
Q 20.0625 6.109375 24.8125 6.109375 
Q 31.15625 6.109375 34.5625 8.28125 
Q 37.984375 10.453125 37.984375 14.40625 
Q 37.984375 18.0625 35.515625 20.015625 
Q 33.0625 21.96875 24.703125 23.78125 
L 21.578125 24.515625 
Q 13.234375 26.265625 9.515625 29.90625 
Q 5.8125 33.546875 5.8125 39.890625 
Q 5.8125 47.609375 11.28125 51.796875 
Q 16.75 56 26.8125 56 
Q 31.78125 56 36.171875 55.265625 
Q 40.578125 54.546875 44.28125 53.078125 
z
" id="DejaVuSans-115"/>
     <path d="M 4.890625 31.390625 
L 31.203125 31.390625 
L 31.203125 23.390625 
L 4.890625 23.390625 
z
" id="DejaVuSans-45"/>
     <path d="M 18.109375 8.203125 
L 18.109375 -20.796875 
L 9.078125 -20.796875 
L 9.078125 54.6875 
L 18.109375 54.6875 
L 18.109375 46.390625 
Q 20.953125 51.265625 25.265625 53.625 
Q 29.59375 56 35.59375 56 
Q 45.5625 56 51.78125 48.09375 
Q 58.015625 40.1875 58.015625 27.296875 
Q 58.015625 14.40625 51.78125 6.484375 
Q 45.5625 -1.421875 35.59375 -1.421875 
Q 29.59375 -1.421875 25.265625 0.953125 
Q 20.953125 3.328125 18.109375 8.203125 
z
M 48.6875 27.296875 
Q 48.6875 37.203125 44.609375 42.84375 
Q 40.53125 48.484375 33.40625 48.484375 
Q 26.265625 48.484375 22.1875 42.84375 
Q 18.109375 37.203125 18.109375 27.296875 
Q 18.109375 17.390625 22.1875 11.75 
Q 26.265625 6.109375 33.40625 6.109375 
Q 40.53125 6.109375 44.609375 11.75 
Q 48.6875 17.390625 48.6875 27.296875 
z
" id="DejaVuSans-112"/>
     <path d="M 48.78125 52.59375 
L 48.78125 44.1875 
Q 44.96875 46.296875 41.140625 47.34375 
Q 37.3125 48.390625 33.40625 48.390625 
Q 24.65625 48.390625 19.8125 42.84375 
Q 14.984375 37.3125 14.984375 27.296875 
Q 14.984375 17.28125 19.8125 11.734375 
Q 24.65625 6.203125 33.40625 6.203125 
Q 37.3125 6.203125 41.140625 7.25 
Q 44.96875 8.296875 48.78125 10.40625 
L 48.78125 2.09375 
Q 45.015625 0.34375 40.984375 -0.53125 
Q 36.96875 -1.421875 32.421875 -1.421875 
Q 20.0625 -1.421875 12.78125 6.34375 
Q 5.515625 14.109375 5.515625 27.296875 
Q 5.515625 40.671875 12.859375 48.328125 
Q 20.21875 56 33.015625 56 
Q 37.15625 56 41.109375 55.140625 
Q 45.0625 54.296875 48.78125 52.59375 
z
" id="DejaVuSans-99"/>
     <path d="M 11.71875 12.40625 
L 22.015625 12.40625 
L 22.015625 4 
L 14.015625 -11.625 
L 7.71875 -11.625 
L 11.71875 4 
z
" id="DejaVuSans-44"/>
     <path d="M 14.796875 27.296875 
Q 14.796875 17.390625 18.875 11.75 
Q 22.953125 6.109375 30.078125 6.109375 
Q 37.203125 6.109375 41.296875 11.75 
Q 45.40625 17.390625 45.40625 27.296875 
Q 45.40625 37.203125 41.296875 42.84375 
Q 37.203125 48.484375 30.078125 48.484375 
Q 22.953125 48.484375 18.875 42.84375 
Q 14.796875 37.203125 14.796875 27.296875 
z
M 45.40625 8.203125 
Q 42.578125 3.328125 38.25 0.953125 
Q 33.9375 -1.421875 27.875 -1.421875 
Q 17.96875 -1.421875 11.734375 6.484375 
Q 5.515625 14.40625 5.515625 27.296875 
Q 5.515625 40.1875 11.734375 48.09375 
Q 17.96875 56 27.875 56 
Q 33.9375 56 38.25 53.625 
Q 42.578125 51.265625 45.40625 46.390625 
L 45.40625 54.6875 
L 54.390625 54.6875 
L 54.390625 -20.796875 
L 45.40625 -20.796875 
z
" id="DejaVuSans-113"/>
     <path d="M 9.421875 54.6875 
L 18.40625 54.6875 
L 18.40625 0 
L 9.421875 0 
z
M 9.421875 75.984375 
L 18.40625 75.984375 
L 18.40625 64.59375 
L 9.421875 64.59375 
z
" id="DejaVuSans-105"/>
     <path d="M 9.421875 75.984375 
L 18.40625 75.984375 
L 18.40625 0 
L 9.421875 0 
z
" id="DejaVuSans-108"/>
     <path d="M 9.078125 75.984375 
L 18.109375 75.984375 
L 18.109375 31.109375 
L 44.921875 54.6875 
L 56.390625 54.6875 
L 27.390625 29.109375 
L 57.625 0 
L 45.90625 0 
L 18.109375 26.703125 
L 18.109375 0 
L 9.078125 0 
z
" id="DejaVuSans-107"/>
     <path d="M 45.40625 46.390625 
L 45.40625 75.984375 
L 54.390625 75.984375 
L 54.390625 0 
L 45.40625 0 
L 45.40625 8.203125 
Q 42.578125 3.328125 38.25 0.953125 
Q 33.9375 -1.421875 27.875 -1.421875 
Q 17.96875 -1.421875 11.734375 6.484375 
Q 5.515625 14.40625 5.515625 27.296875 
Q 5.515625 40.1875 11.734375 48.09375 
Q 17.96875 56 27.875 56 
Q 33.9375 56 38.25 53.625 
Q 42.578125 51.265625 45.40625 46.390625 
z
M 14.796875 27.296875 
Q 14.796875 17.390625 18.875 11.75 
Q 22.953125 6.109375 30.078125 6.109375 
Q 37.203125 6.109375 41.296875 11.75 
Q 45.40625 17.390625 45.40625 27.296875 
Q 45.40625 37.203125 41.296875 42.84375 
Q 37.203125 48.484375 30.078125 48.484375 
Q 22.953125 48.484375 18.875 42.84375 
Q 14.796875 37.203125 14.796875 27.296875 
z
" id="DejaVuSans-100"/>
     <path d="M 30.609375 48.390625 
Q 23.390625 48.390625 19.1875 42.75 
Q 14.984375 37.109375 14.984375 27.296875 
Q 14.984375 17.484375 19.15625 11.84375 
Q 23.34375 6.203125 30.609375 6.203125 
Q 37.796875 6.203125 41.984375 11.859375 
Q 46.1875 17.53125 46.1875 27.296875 
Q 46.1875 37.015625 41.984375 42.703125 
Q 37.796875 48.390625 30.609375 48.390625 
z
M 30.609375 56 
Q 42.328125 56 49.015625 48.375 
Q 55.71875 40.765625 55.71875 27.296875 
Q 55.71875 13.875 49.015625 6.21875 
Q 42.328125 -1.421875 30.609375 -1.421875 
Q 18.84375 -1.421875 12.171875 6.21875 
Q 5.515625 13.875 5.515625 27.296875 
Q 5.515625 40.765625 12.171875 48.375 
Q 18.84375 56 30.609375 56 
z
" id="DejaVuSans-111"/>
    </defs>
    <g transform="translate(83.310739 18.98208)scale(0.12 -0.12)">
     <use xlink:href="#DejaVuSans-80"/>
     <use x="60.240234" xlink:href="#DejaVuSans-97"/>
     <use x="121.519531" xlink:href="#DejaVuSans-117"/>
     <use x="184.898438" xlink:href="#DejaVuSans-115"/>
     <use x="236.998047" xlink:href="#DejaVuSans-101"/>
     <use x="298.521484" xlink:href="#DejaVuSans-32"/>
     <use x="330.308594" xlink:href="#DejaVuSans-45"/>
     <use x="366.392578" xlink:href="#DejaVuSans-32"/>
     <use x="398.179688" xlink:href="#DejaVuSans-115"/>
     <use x="450.279297" xlink:href="#DejaVuSans-112"/>
     <use x="513.755859" xlink:href="#DejaVuSans-97"/>
     <use x="575.035156" xlink:href="#DejaVuSans-99"/>
     <use x="630.015625" xlink:href="#DejaVuSans-101"/>
     <use x="691.539062" xlink:href="#DejaVuSans-44"/>
     <use x="723.326172" xlink:href="#DejaVuSans-32"/>
     <use x="755.113281" xlink:href="#DejaVuSans-113"/>
     <use x="818.589844" xlink:href="#DejaVuSans-32"/>
     <use x="850.376953" xlink:href="#DejaVuSans-45"/>
     <use x="886.460938" xlink:href="#DejaVuSans-32"/>
     <use x="918.248047" xlink:href="#DejaVuSans-113"/>
     <use x="981.724609" xlink:href="#DejaVuSans-117"/>
     <use x="1045.103516" xlink:href="#DejaVuSans-105"/>
     <use x="1072.886719" xlink:href="#DejaVuSans-116"/>
     <use x="1112.095703" xlink:href="#DejaVuSans-44"/>
     <use x="1143.882812" xlink:href="#DejaVuSans-32"/>
     <use x="1175.669922" xlink:href="#DejaVuSans-99"/>
     <use x="1230.650391" xlink:href="#DejaVuSans-108"/>
     <use x="1258.433594" xlink:href="#DejaVuSans-105"/>
     <use x="1286.216797" xlink:href="#DejaVuSans-99"/>
     <use x="1341.197266" xlink:href="#DejaVuSans-107"/>
     <use x="1399.107422" xlink:href="#DejaVuSans-32"/>
     <use x="1430.894531" xlink:href="#DejaVuSans-45"/>
     <use x="1466.978516" xlink:href="#DejaVuSans-32"/>
     <use x="1498.765625" xlink:href="#DejaVuSans-100"/>
     <use x="1562.242188" xlink:href="#DejaVuSans-97"/>
     <use x="1623.521484" xlink:href="#DejaVuSans-116"/>
     <use x="1662.730469" xlink:href="#DejaVuSans-97"/>
     <use x="1724.009766" xlink:href="#DejaVuSans-32"/>
     <use x="1755.796875" xlink:href="#DejaVuSans-99"/>
     <use x="1810.777344" xlink:href="#DejaVuSans-117"/>
     <use x="1874.15625" xlink:href="#DejaVuSans-114"/>
     <use x="1915.269531" xlink:href="#DejaVuSans-115"/>
     <use x="1967.369141" xlink:href="#DejaVuSans-111"/>
     <use x="2028.550781" xlink:href="#DejaVuSans-114"/>
    </g>
   </g>
  </g>
  <g id="axes_2">
   <g id="patch_8">
    <path d="M 398.560909 324.80632 
L 702.81 324.80632 
L 702.81 24.98208 
L 398.560909 24.98208 
z
" style="fill:#ffffff;"/>
   </g>
   <g id="matplotlib.axis_3">
    <g id="xtick_10">
     <g id="line2d_22">
      <g>
       <use style="stroke:#000000;stroke-width:0.8;" x="398.560909" xlink:href="#mc13c641c0c" y="324.80632"/>
      </g>
     </g>
     <g id="text_24">
      <!-- 0 -->
      <g transform="translate(395.379659 339.404758)scale(0.1 -0.1)">
       <use xlink:href="#DejaVuSans-48"/>
      </g>
     </g>
    </g>
    <g id="xtick_11">
     <g id="line2d_23">
      <g>
       <use style="stroke:#000000;stroke-width:0.8;" x="449.269091" xlink:href="#mc13c641c0c" y="324.80632"/>
      </g>
     </g>
     <g id="text_25">
      <!-- 5 -->
      <g transform="translate(446.087841 339.404758)scale(0.1 -0.1)">
       <use xlink:href="#DejaVuSans-53"/>
      </g>
     </g>
    </g>
    <g id="xtick_12">
     <g id="line2d_24">
      <g>
       <use style="stroke:#000000;stroke-width:0.8;" x="499.977273" xlink:href="#mc13c641c0c" y="324.80632"/>
      </g>
     </g>
     <g id="text_26">
      <!-- 10 -->
      <g transform="translate(493.614773 339.404758)scale(0.1 -0.1)">
       <use xlink:href="#DejaVuSans-49"/>
       <use x="63.623047" xlink:href="#DejaVuSans-48"/>
      </g>
     </g>
    </g>
    <g id="xtick_13">
     <g id="line2d_25">
      <g>
       <use style="stroke:#000000;stroke-width:0.8;" x="550.685455" xlink:href="#mc13c641c0c" y="324.80632"/>
      </g>
     </g>
     <g id="text_27">
      <!-- 15 -->
      <g transform="translate(544.322955 339.404758)scale(0.1 -0.1)">
       <use xlink:href="#DejaVuSans-49"/>
       <use x="63.623047" xlink:href="#DejaVuSans-53"/>
      </g>
     </g>
    </g>
    <g id="xtick_14">
     <g id="line2d_26">
      <g>
       <use style="stroke:#000000;stroke-width:0.8;" x="601.393636" xlink:href="#mc13c641c0c" y="324.80632"/>
      </g>
     </g>
     <g id="text_28">
      <!-- 20 -->
      <g transform="translate(595.031136 339.404758)scale(0.1 -0.1)">
       <use xlink:href="#DejaVuSans-50"/>
       <use x="63.623047" xlink:href="#DejaVuSans-48"/>
      </g>
     </g>
    </g>
    <g id="xtick_15">
     <g id="line2d_27">
      <g>
       <use style="stroke:#000000;stroke-width:0.8;" x="652.101818" xlink:href="#mc13c641c0c" y="324.80632"/>
      </g>
     </g>
     <g id="text_29">
      <!-- 25 -->
      <g transform="translate(645.739318 339.404758)scale(0.1 -0.1)">
       <use xlink:href="#DejaVuSans-50"/>
       <use x="63.623047" xlink:href="#DejaVuSans-53"/>
      </g>
     </g>
    </g>
    <g id="xtick_16">
     <g id="line2d_28">
      <g>
       <use style="stroke:#000000;stroke-width:0.8;" x="702.81" xlink:href="#mc13c641c0c" y="324.80632"/>
      </g>
     </g>
     <g id="text_30">
      <!-- 30 -->
      <g transform="translate(696.4475 339.404758)scale(0.1 -0.1)">
       <use xlink:href="#DejaVuSans-51"/>
       <use x="63.623047" xlink:href="#DejaVuSans-48"/>
      </g>
     </g>
    </g>
    <g id="text_31">
     <!-- t [s] -->
     <g transform="translate(540.629986 353.082883)scale(0.1 -0.1)">
      <use xlink:href="#DejaVuSans-116"/>
      <use x="39.208984" xlink:href="#DejaVuSans-32"/>
      <use x="70.996094" xlink:href="#DejaVuSans-91"/>
      <use x="110.009766" xlink:href="#DejaVuSans-115"/>
      <use x="162.109375" xlink:href="#DejaVuSans-93"/>
     </g>
    </g>
   </g>
   <g id="matplotlib.axis_4">
    <g id="ytick_10">
     <g id="line2d_29">
      <g>
       <use style="stroke:#000000;stroke-width:0.8;" x="398.560909" xlink:href="#m4b528ffb0a" y="311.177945"/>
      </g>
     </g>
     <g id="text_32">
      <!-- −8 -->
      <defs>
       <path d="M 31.78125 34.625 
Q 24.75 34.625 20.71875 30.859375 
Q 16.703125 27.09375 16.703125 20.515625 
Q 16.703125 13.921875 20.71875 10.15625 
Q 24.75 6.390625 31.78125 6.390625 
Q 38.8125 6.390625 42.859375 10.171875 
Q 46.921875 13.96875 46.921875 20.515625 
Q 46.921875 27.09375 42.890625 30.859375 
Q 38.875 34.625 31.78125 34.625 
z
M 21.921875 38.8125 
Q 15.578125 40.375 12.03125 44.71875 
Q 8.5 49.078125 8.5 55.328125 
Q 8.5 64.0625 14.71875 69.140625 
Q 20.953125 74.21875 31.78125 74.21875 
Q 42.671875 74.21875 48.875 69.140625 
Q 55.078125 64.0625 55.078125 55.328125 
Q 55.078125 49.078125 51.53125 44.71875 
Q 48 40.375 41.703125 38.8125 
Q 48.828125 37.15625 52.796875 32.3125 
Q 56.78125 27.484375 56.78125 20.515625 
Q 56.78125 9.90625 50.3125 4.234375 
Q 43.84375 -1.421875 31.78125 -1.421875 
Q 19.734375 -1.421875 13.25 4.234375 
Q 6.78125 9.90625 6.78125 20.515625 
Q 6.78125 27.484375 10.78125 32.3125 
Q 14.796875 37.15625 21.921875 38.8125 
z
M 18.3125 54.390625 
Q 18.3125 48.734375 21.84375 45.5625 
Q 25.390625 42.390625 31.78125 42.390625 
Q 38.140625 42.390625 41.71875 45.5625 
Q 45.3125 48.734375 45.3125 54.390625 
Q 45.3125 60.0625 41.71875 63.234375 
Q 38.140625 66.40625 31.78125 66.40625 
Q 25.390625 66.40625 21.84375 63.234375 
Q 18.3125 60.0625 18.3125 54.390625 
z
" id="DejaVuSans-56"/>
      </defs>
      <g transform="translate(376.818722 314.977164)scale(0.1 -0.1)">
       <use xlink:href="#DejaVuSans-8722"/>
       <use x="83.789062" xlink:href="#DejaVuSans-56"/>
      </g>
     </g>
    </g>
    <g id="ytick_11">
     <g id="line2d_30">
      <g>
       <use style="stroke:#000000;stroke-width:0.8;" x="398.560909" xlink:href="#m4b528ffb0a" y="277.107009"/>
      </g>
     </g>
     <g id="text_33">
      <!-- −6 -->
      <defs>
       <path d="M 33.015625 40.375 
Q 26.375 40.375 22.484375 35.828125 
Q 18.609375 31.296875 18.609375 23.390625 
Q 18.609375 15.53125 22.484375 10.953125 
Q 26.375 6.390625 33.015625 6.390625 
Q 39.65625 6.390625 43.53125 10.953125 
Q 47.40625 15.53125 47.40625 23.390625 
Q 47.40625 31.296875 43.53125 35.828125 
Q 39.65625 40.375 33.015625 40.375 
z
M 52.59375 71.296875 
L 52.59375 62.3125 
Q 48.875 64.0625 45.09375 64.984375 
Q 41.3125 65.921875 37.59375 65.921875 
Q 27.828125 65.921875 22.671875 59.328125 
Q 17.53125 52.734375 16.796875 39.40625 
Q 19.671875 43.65625 24.015625 45.921875 
Q 28.375 48.1875 33.59375 48.1875 
Q 44.578125 48.1875 50.953125 41.515625 
Q 57.328125 34.859375 57.328125 23.390625 
Q 57.328125 12.15625 50.6875 5.359375 
Q 44.046875 -1.421875 33.015625 -1.421875 
Q 20.359375 -1.421875 13.671875 8.265625 
Q 6.984375 17.96875 6.984375 36.375 
Q 6.984375 53.65625 15.1875 63.9375 
Q 23.390625 74.21875 37.203125 74.21875 
Q 40.921875 74.21875 44.703125 73.484375 
Q 48.484375 72.75 52.59375 71.296875 
z
" id="DejaVuSans-54"/>
      </defs>
      <g transform="translate(376.818722 280.906228)scale(0.1 -0.1)">
       <use xlink:href="#DejaVuSans-8722"/>
       <use x="83.789062" xlink:href="#DejaVuSans-54"/>
      </g>
     </g>
    </g>
    <g id="ytick_12">
     <g id="line2d_31">
      <g>
       <use style="stroke:#000000;stroke-width:0.8;" x="398.560909" xlink:href="#m4b528ffb0a" y="243.036073"/>
      </g>
     </g>
     <g id="text_34">
      <!-- −4 -->
      <g transform="translate(376.818722 246.835291)scale(0.1 -0.1)">
       <use xlink:href="#DejaVuSans-8722"/>
       <use x="83.789062" xlink:href="#DejaVuSans-52"/>
      </g>
     </g>
    </g>
    <g id="ytick_13">
     <g id="line2d_32">
      <g>
       <use style="stroke:#000000;stroke-width:0.8;" x="398.560909" xlink:href="#m4b528ffb0a" y="208.965136"/>
      </g>
     </g>
     <g id="text_35">
      <!-- −2 -->
      <g transform="translate(376.818722 212.764355)scale(0.1 -0.1)">
       <use xlink:href="#DejaVuSans-8722"/>
       <use x="83.789062" xlink:href="#DejaVuSans-50"/>
      </g>
     </g>
    </g>
    <g id="ytick_14">
     <g id="line2d_33">
      <g>
       <use style="stroke:#000000;stroke-width:0.8;" x="398.560909" xlink:href="#m4b528ffb0a" y="174.8942"/>
      </g>
     </g>
     <g id="text_36">
      <!-- 0 -->
      <g transform="translate(385.198409 178.693419)scale(0.1 -0.1)">
       <use xlink:href="#DejaVuSans-48"/>
      </g>
     </g>
    </g>
    <g id="ytick_15">
     <g id="line2d_34">
      <g>
       <use style="stroke:#000000;stroke-width:0.8;" x="398.560909" xlink:href="#m4b528ffb0a" y="140.823264"/>
      </g>
     </g>
     <g id="text_37">
      <!-- 2 -->
      <g transform="translate(385.198409 144.622482)scale(0.1 -0.1)">
       <use xlink:href="#DejaVuSans-50"/>
      </g>
     </g>
    </g>
    <g id="ytick_16">
     <g id="line2d_35">
      <g>
       <use style="stroke:#000000;stroke-width:0.8;" x="398.560909" xlink:href="#m4b528ffb0a" y="106.752327"/>
      </g>
     </g>
     <g id="text_38">
      <!-- 4 -->
      <g transform="translate(385.198409 110.551546)scale(0.1 -0.1)">
       <use xlink:href="#DejaVuSans-52"/>
      </g>
     </g>
    </g>
    <g id="ytick_17">
     <g id="line2d_36">
      <g>
       <use style="stroke:#000000;stroke-width:0.8;" x="398.560909" xlink:href="#m4b528ffb0a" y="72.681391"/>
      </g>
     </g>
     <g id="text_39">
      <!-- 6 -->
      <g transform="translate(385.198409 76.48061)scale(0.1 -0.1)">
       <use xlink:href="#DejaVuSans-54"/>
      </g>
     </g>
    </g>
    <g id="ytick_18">
     <g id="line2d_37">
      <g>
       <use style="stroke:#000000;stroke-width:0.8;" x="398.560909" xlink:href="#m4b528ffb0a" y="38.610455"/>
      </g>
     </g>
     <g id="text_40">
      <!-- 8 -->
      <g transform="translate(385.198409 42.409673)scale(0.1 -0.1)">
       <use xlink:href="#DejaVuSans-56"/>
      </g>
     </g>
    </g>
   </g>
   <g id="line2d_38">
    <path clip-path="url(#pcfae86db71)" d="M 398.560909 174.8942 
L 702.81 174.8942 
" style="fill:none;stroke:#000000;stroke-dasharray:2.775,1.2;stroke-dashoffset:0;stroke-width:0.75;"/>
   </g>
   <g id="line2d_39">
    <path clip-path="url(#pcfae86db71)" d="M 398.560909 102.61883 
L 398.561923 102.61883 
L 398.572065 102.64294 
L 398.635339 102.808742 
L 399.142421 104.155668 
L 399.649503 105.533561 
L 400.156584 106.939848 
L 400.663666 108.372196 
L 401.170748 109.828493 
L 401.67783 111.306825 
L 402.184912 112.805459 
L 402.691994 114.314588 
L 403.199075 115.806658 
L 403.706157 117.27788 
L 404.213239 118.727208 
L 404.720321 120.153747 
L 405.227403 121.55673 
L 405.734484 122.935509 
L 406.241566 124.289547 
L 406.748648 125.618409 
L 407.25573 126.921749 
L 407.762812 128.199309 
L 408.269894 129.450904 
L 408.776975 130.676423 
L 409.284057 131.875818 
L 409.791139 133.049098 
L 410.298221 134.196326 
L 410.805303 135.317612 
L 411.312384 136.413111 
L 411.819466 137.483013 
L 412.326548 138.527547 
L 412.83363 139.54697 
L 413.340712 140.541568 
L 413.847794 141.511652 
L 414.354875 142.457553 
L 414.861957 143.379622 
L 415.369039 144.278227 
L 415.876121 145.153748 
L 416.383203 146.006578 
L 416.890284 146.83712 
L 417.397366 147.645786 
L 417.904448 148.432994 
L 418.41153 149.199166 
L 418.918612 149.944729 
L 419.425694 150.670112 
L 419.932775 151.375746 
L 420.439857 152.062061 
L 420.946939 152.729487 
L 421.454021 153.378452 
L 421.961103 154.009383 
L 422.468184 154.622703 
L 422.975266 155.218831 
L 423.482348 155.798183 
L 423.98943 156.36117 
L 424.496512 156.908197 
L 425.003594 157.439665 
L 425.510675 157.955968 
L 426.017757 158.457494 
L 426.524839 158.944626 
L 427.031921 159.417738 
L 427.539003 159.877201 
L 428.046084 160.323375 
L 428.553166 160.756615 
L 429.060248 161.17727 
L 429.56733 161.585681 
L 430.074412 161.98218 
L 430.581494 162.367094 
L 431.088575 162.740743 
L 431.595657 163.103437 
L 432.102739 163.455483 
L 432.609821 163.797178 
L 433.116903 164.128812 
L 433.623984 164.450669 
L 434.131066 164.763026 
L 434.638148 165.066152 
L 435.14523 165.360311 
L 435.652312 165.645759 
L 436.159394 165.922746 
L 436.666475 166.191514 
L 437.173557 166.452302 
L 437.680639 166.70534 
L 438.187721 166.950851 
L 438.694803 167.189056 
L 439.201884 167.420167 
L 439.708966 167.64439 
L 440.216048 167.861927 
L 440.72313 168.072974 
L 441.230212 168.27772 
L 441.737294 168.476351 
L 442.244375 168.669047 
L 442.751457 168.855983 
L 443.258539 169.037328 
L 443.765621 169.213247 
L 444.272703 169.383902 
L 444.779784 169.549447 
L 445.286866 169.710034 
L 445.793948 169.865811 
L 446.30103 170.016919 
L 446.808112 170.163498 
L 447.315194 170.305683 
L 447.822275 170.443603 
L 448.329357 170.577387 
L 448.836439 170.707157 
L 449.343521 170.833033 
L 449.850603 170.955131 
L 450.357684 171.073564 
L 450.864766 171.188441 
L 451.371848 171.299869 
L 451.87893 171.407951 
L 452.386012 171.512787 
" style="fill:none;stroke:#0000ff;stroke-linecap:square;stroke-width:0.5;"/>
   </g>
   <g id="line2d_40">
    <path clip-path="url(#pcfae86db71)" d="M 398.560909 148.148515 
L 398.561923 148.148515 
L 398.572065 148.161869 
L 398.635339 148.253484 
L 399.142421 148.984578 
L 399.649503 149.690866 
L 400.156584 150.37201 
L 400.663666 151.030071 
L 401.170748 151.666994 
L 401.67783 152.284594 
L 402.184912 152.884573 
L 402.691994 153.468531 
L 403.199075 154.03778 
L 403.706157 154.592929 
L 404.213239 155.134424 
L 404.720321 155.662675 
L 405.227403 156.178069 
L 405.734484 156.680971 
L 406.241566 157.171727 
L 406.748648 157.650665 
L 407.25573 158.118095 
L 407.762812 158.574313 
L 408.269894 159.019601 
L 408.776975 159.454228 
L 409.284057 159.878452 
L 409.791139 160.292519 
L 410.298221 160.696666 
L 410.805303 161.091121 
L 411.312384 161.476103 
L 411.819466 161.851824 
L 412.326548 162.218488 
L 412.83363 162.576293 
L 413.340712 162.925431 
L 413.847794 163.266087 
L 414.354875 163.598442 
L 414.861957 163.922673 
L 415.369039 164.238949 
L 415.876121 164.547438 
L 416.383203 164.848303 
L 416.890284 165.141702 
L 417.397366 165.42779 
L 417.904448 165.706721 
L 418.41153 165.978642 
L 418.918612 166.243699 
L 419.425694 166.502036 
L 419.932775 166.753791 
L 420.439857 166.999104 
L 420.946939 167.238108 
L 421.454021 167.470937 
L 421.961103 167.69772 
L 422.468184 167.918586 
L 422.975266 168.13366 
L 423.482348 168.343066 
L 423.98943 168.546926 
L 424.496512 168.745359 
L 425.003594 168.938484 
L 425.510675 169.126415 
L 426.017757 169.309266 
L 426.524839 169.487151 
L 427.031921 169.660178 
L 427.539003 169.828456 
L 428.046084 169.992092 
L 428.553166 170.151191 
L 429.060248 170.305856 
L 429.56733 170.456188 
L 430.074412 170.602288 
L 430.581494 170.744253 
L 431.088575 170.882179 
L 431.595657 171.016163 
L 432.102739 171.146297 
L 432.609821 171.272672 
L 433.116903 171.395379 
L 433.623984 171.514506 
L 434.131066 171.63014 
L 434.638148 171.742367 
L 435.14523 171.851269 
L 435.652312 171.956931 
L 436.159394 172.059431 
L 436.666475 172.15885 
L 437.173557 172.255264 
L 437.680639 172.348752 
L 438.187721 172.439386 
L 438.694803 172.527241 
L 439.201884 172.612389 
L 439.708966 172.694899 
L 440.216048 172.774842 
L 440.72313 172.852284 
L 441.230212 172.927292 
L 441.737294 172.999931 
L 442.244375 173.070264 
L 442.751457 173.138354 
L 443.258539 173.204261 
L 443.765621 173.268046 
L 444.272703 173.329766 
L 444.779784 173.389479 
L 445.286866 173.447239 
L 445.793948 173.503103 
L 446.30103 173.557122 
L 446.808112 173.60935 
L 447.315194 173.659836 
L 447.822275 173.708632 
L 448.329357 173.755784 
L 448.836439 173.801342 
L 449.343521 173.84535 
L 449.850603 173.887855 
L 450.357684 173.9289 
L 450.864766 173.968529 
L 451.371848 174.006783 
L 451.87893 174.043703 
L 452.386012 174.07933 
" style="fill:none;stroke:#ff0000;stroke-linecap:square;stroke-width:0.5;"/>
   </g>
   <g id="patch_9">
    <path d="M 398.560909 324.80632 
L 398.560909 24.98208 
" style="fill:none;stroke:#000000;stroke-linecap:square;stroke-linejoin:miter;stroke-width:0.8;"/>
   </g>
   <g id="patch_10">
    <path d="M 702.81 324.80632 
L 702.81 24.98208 
" style="fill:none;stroke:#000000;stroke-linecap:square;stroke-linejoin:miter;stroke-width:0.8;"/>
   </g>
   <g id="patch_11">
    <path d="M 398.560909 324.80632 
L 702.81 324.80632 
" style="fill:none;stroke:#000000;stroke-linecap:square;stroke-linejoin:miter;stroke-width:0.8;"/>
   </g>
   <g id="patch_12">
    <path d="M 398.560909 24.98208 
L 702.81 24.98208 
" style="fill:none;stroke:#000000;stroke-linecap:square;stroke-linejoin:miter;stroke-width:0.8;"/>
   </g>
   <g id="legend_1">
    <g id="patch_13">
     <path d="M 608.31 62.760205 
L 695.81 62.760205 
Q 697.81 62.760205 697.81 60.760205 
L 697.81 31.98208 
Q 697.81 29.98208 695.81 29.98208 
L 608.31 29.98208 
Q 606.31 29.98208 606.31 31.98208 
L 606.31 60.760205 
Q 606.31 62.760205 608.31 62.760205 
z
" style="fill:#ffffff;opacity:0.8;stroke:#cccccc;stroke-linejoin:miter;"/>
    </g>
    <g id="line2d_41">
     <path d="M 610.31 38.18208 
L 630.31 38.18208 
" style="fill:none;stroke:#0000ff;stroke-linecap:square;stroke-width:0.5;"/>
    </g>
    <g id="line2d_42"/>
    <g id="text_41">
     <!-- $\Vert(x,y)\Vert$ [m] -->
     <defs>
      <path d="M 21 76.421875 
L 21 -23.578125 
L 12.703125 -23.578125 
L 12.703125 76.421875 
z
M 37.109375 76.421875 
L 37.109375 -23.578125 
L 28.8125 -23.578125 
L 28.8125 76.421875 
z
" id="DejaVuSans-8214"/>
      <path d="M 31 75.875 
Q 24.46875 64.65625 21.28125 53.65625 
Q 18.109375 42.671875 18.109375 31.390625 
Q 18.109375 20.125 21.3125 9.0625 
Q 24.515625 -2 31 -13.1875 
L 23.1875 -13.1875 
Q 15.875 -1.703125 12.234375 9.375 
Q 8.59375 20.453125 8.59375 31.390625 
Q 8.59375 42.28125 12.203125 53.3125 
Q 15.828125 64.359375 23.1875 75.875 
z
" id="DejaVuSans-40"/>
      <path d="M 60.015625 54.6875 
L 34.90625 27.875 
L 50.296875 0 
L 39.984375 0 
L 28.421875 21.6875 
L 8.296875 0 
L -2.59375 0 
L 24.3125 28.8125 
L 10.015625 54.6875 
L 20.3125 54.6875 
L 30.8125 34.90625 
L 49.125 54.6875 
z
" id="DejaVuSans-Oblique-120"/>
      <path d="M 24.8125 -5.078125 
Q 18.5625 -15.578125 14.625 -18.1875 
Q 10.6875 -20.796875 4.59375 -20.796875 
L -2.484375 -20.796875 
L -0.984375 -13.28125 
L 4.203125 -13.28125 
Q 7.953125 -13.28125 10.59375 -11.234375 
Q 13.234375 -9.1875 16.5 -3.21875 
L 19.28125 2 
L 7.171875 54.6875 
L 16.703125 54.6875 
L 25.78125 12.796875 
L 50.875 54.6875 
L 60.296875 54.6875 
z
" id="DejaVuSans-Oblique-121"/>
      <path d="M 8.015625 75.875 
L 15.828125 75.875 
Q 23.140625 64.359375 26.78125 53.3125 
Q 30.421875 42.28125 30.421875 31.390625 
Q 30.421875 20.453125 26.78125 9.375 
Q 23.140625 -1.703125 15.828125 -13.1875 
L 8.015625 -13.1875 
Q 14.5 -2 17.703125 9.0625 
Q 20.90625 20.125 20.90625 31.390625 
Q 20.90625 42.671875 17.703125 53.65625 
Q 14.5 64.65625 8.015625 75.875 
z
" id="DejaVuSans-41"/>
     </defs>
     <g transform="translate(638.31 41.68208)scale(0.1 -0.1)">
      <use transform="translate(0 0.578125)" xlink:href="#DejaVuSans-8214"/>
      <use transform="translate(50 0.578125)" xlink:href="#DejaVuSans-40"/>
      <use transform="translate(89.013672 0.578125)" xlink:href="#DejaVuSans-Oblique-120"/>
      <use transform="translate(148.193359 0.578125)" xlink:href="#DejaVuSans-44"/>
      <use transform="translate(199.462891 0.578125)" xlink:href="#DejaVuSans-Oblique-121"/>
      <use transform="translate(258.642578 0.578125)" xlink:href="#DejaVuSans-41"/>
      <use transform="translate(297.65625 0.578125)" xlink:href="#DejaVuSans-8214"/>
      <use transform="translate(347.65625 0.578125)" xlink:href="#DejaVuSans-32"/>
      <use transform="translate(379.443359 0.578125)" xlink:href="#DejaVuSans-91"/>
      <use transform="translate(418.457031 0.578125)" xlink:href="#DejaVuSans-109"/>
      <use transform="translate(515.869141 0.578125)" xlink:href="#DejaVuSans-93"/>
     </g>
    </g>
    <g id="line2d_43">
     <path d="M 610.31 53.180518 
L 630.31 53.180518 
" style="fill:none;stroke:#ff0000;stroke-linecap:square;stroke-width:0.5;"/>
    </g>
    <g id="line2d_44"/>
    <g id="text_42">
     <!-- $\alpha$ [rad] -->
     <defs>
      <path d="M 40.921875 25.4375 
L 40.96875 36.71875 
Q 41.015625 48.25 32.328125 48.296875 
Q 25.828125 48.34375 21.78125 42.921875 
Q 16.703125 36.234375 14.984375 27.296875 
Q 12.890625 16.546875 15.53125 11.421875 
Q 18.265625 6.203125 24.171875 6.203125 
Q 30.71875 6.203125 36.234375 16.609375 
z
M 33.84375 55.90625 
Q 49.078125 56.15625 48.875 40.375 
Q 48.875 40.375 56.5 54.6875 
L 64.5 54.6875 
L 48.734375 25.046875 
L 48.578125 14.359375 
Q 48.578125 11.96875 49.90625 9.96875 
Q 51.421875 7.625 52.984375 7.625 
L 57.328125 7.625 
L 55.859375 0 
L 50.4375 0 
Q 45.84375 0 42.53125 4.109375 
Q 40.96875 6.15625 40.921875 10.453125 
Q 37.75 5.21875 32.28125 0.78125 
Q 29.6875 -1.265625 22.703125 -1.21875 
Q 11.28125 -1.125 7.125 6.203125 
Q 2.875 13.8125 5.515625 27.296875 
Q 8.34375 41.796875 15.765625 48.390625 
Q 24.125 55.765625 33.84375 55.90625 
z
" id="DejaVuSans-Oblique-945"/>
     </defs>
     <g transform="translate(638.31 56.680518)scale(0.1 -0.1)">
      <use transform="translate(0 0.015625)" xlink:href="#DejaVuSans-Oblique-945"/>
      <use transform="translate(65.917969 0.015625)" xlink:href="#DejaVuSans-32"/>
      <use transform="translate(97.705078 0.015625)" xlink:href="#DejaVuSans-91"/>
      <use transform="translate(136.71875 0.015625)" xlink:href="#DejaVuSans-114"/>
      <use transform="translate(177.832031 0.015625)" xlink:href="#DejaVuSans-97"/>
      <use transform="translate(239.111328 0.015625)" xlink:href="#DejaVuSans-100"/>
      <use transform="translate(302.587891 0.015625)" xlink:href="#DejaVuSans-93"/>
     </g>
    </g>
   </g>
  </g>
  <g id="axes_3">
   <g id="patch_14">
    <path d="M 55.361818 665.83528 
L 359.610909 665.83528 
L 359.610909 366.01104 
L 55.361818 366.01104 
z
" style="fill:#ffffff;"/>
   </g>
   <g id="matplotlib.axis_5">
    <g id="xtick_17">
     <g id="line2d_45">
      <g>
       <use style="stroke:#000000;stroke-width:0.8;" x="55.361818" xlink:href="#mc13c641c0c" y="665.83528"/>
      </g>
     </g>
     <g id="text_43">
      <!-- 0 -->
      <g transform="translate(52.180568 680.433718)scale(0.1 -0.1)">
       <use xlink:href="#DejaVuSans-48"/>
      </g>
     </g>
    </g>
    <g id="xtick_18">
     <g id="line2d_46">
      <g>
       <use style="stroke:#000000;stroke-width:0.8;" x="106.07" xlink:href="#mc13c641c0c" y="665.83528"/>
      </g>
     </g>
     <g id="text_44">
      <!-- 5 -->
      <g transform="translate(102.88875 680.433718)scale(0.1 -0.1)">
       <use xlink:href="#DejaVuSans-53"/>
      </g>
     </g>
    </g>
    <g id="xtick_19">
     <g id="line2d_47">
      <g>
       <use style="stroke:#000000;stroke-width:0.8;" x="156.778182" xlink:href="#mc13c641c0c" y="665.83528"/>
      </g>
     </g>
     <g id="text_45">
      <!-- 10 -->
      <g transform="translate(150.415682 680.433718)scale(0.1 -0.1)">
       <use xlink:href="#DejaVuSans-49"/>
       <use x="63.623047" xlink:href="#DejaVuSans-48"/>
      </g>
     </g>
    </g>
    <g id="xtick_20">
     <g id="line2d_48">
      <g>
       <use style="stroke:#000000;stroke-width:0.8;" x="207.486364" xlink:href="#mc13c641c0c" y="665.83528"/>
      </g>
     </g>
     <g id="text_46">
      <!-- 15 -->
      <g transform="translate(201.123864 680.433718)scale(0.1 -0.1)">
       <use xlink:href="#DejaVuSans-49"/>
       <use x="63.623047" xlink:href="#DejaVuSans-53"/>
      </g>
     </g>
    </g>
    <g id="xtick_21">
     <g id="line2d_49">
      <g>
       <use style="stroke:#000000;stroke-width:0.8;" x="258.194545" xlink:href="#mc13c641c0c" y="665.83528"/>
      </g>
     </g>
     <g id="text_47">
      <!-- 20 -->
      <g transform="translate(251.832045 680.433718)scale(0.1 -0.1)">
       <use xlink:href="#DejaVuSans-50"/>
       <use x="63.623047" xlink:href="#DejaVuSans-48"/>
      </g>
     </g>
    </g>
    <g id="xtick_22">
     <g id="line2d_50">
      <g>
       <use style="stroke:#000000;stroke-width:0.8;" x="308.902727" xlink:href="#mc13c641c0c" y="665.83528"/>
      </g>
     </g>
     <g id="text_48">
      <!-- 25 -->
      <g transform="translate(302.540227 680.433718)scale(0.1 -0.1)">
       <use xlink:href="#DejaVuSans-50"/>
       <use x="63.623047" xlink:href="#DejaVuSans-53"/>
      </g>
     </g>
    </g>
    <g id="xtick_23">
     <g id="line2d_51">
      <g>
       <use style="stroke:#000000;stroke-width:0.8;" x="359.610909" xlink:href="#mc13c641c0c" y="665.83528"/>
      </g>
     </g>
     <g id="text_49">
      <!-- 30 -->
      <g transform="translate(353.248409 680.433718)scale(0.1 -0.1)">
       <use xlink:href="#DejaVuSans-51"/>
       <use x="63.623047" xlink:href="#DejaVuSans-48"/>
      </g>
     </g>
    </g>
    <g id="text_50">
     <!-- t [s] -->
     <g transform="translate(197.430895 694.111843)scale(0.1 -0.1)">
      <use xlink:href="#DejaVuSans-116"/>
      <use x="39.208984" xlink:href="#DejaVuSans-32"/>
      <use x="70.996094" xlink:href="#DejaVuSans-91"/>
      <use x="110.009766" xlink:href="#DejaVuSans-115"/>
      <use x="162.109375" xlink:href="#DejaVuSans-93"/>
     </g>
    </g>
   </g>
   <g id="matplotlib.axis_6">
    <g id="ytick_19">
     <g id="line2d_52">
      <g>
       <use style="stroke:#000000;stroke-width:0.8;" x="55.361818" xlink:href="#m4b528ffb0a" y="665.83528"/>
      </g>
     </g>
     <g id="text_51">
      <!-- $\mathdefault{0}$ -->
      <g transform="translate(41.961818 669.634499)scale(0.1 -0.1)">
       <use transform="translate(0 0.78125)" xlink:href="#DejaVuSans-48"/>
      </g>
     </g>
    </g>
    <g id="ytick_20">
     <g id="line2d_53">
      <g>
       <use style="stroke:#000000;stroke-width:0.8;" x="55.361818" xlink:href="#m4b528ffb0a" y="643.523939"/>
      </g>
     </g>
     <g id="text_52">
      <!-- $\mathdefault{10^{0}}$ -->
      <g transform="translate(30.761818 647.323157)scale(0.1 -0.1)">
       <use transform="translate(0 0.765625)" xlink:href="#DejaVuSans-49"/>
       <use transform="translate(63.623047 0.765625)" xlink:href="#DejaVuSans-48"/>
       <use transform="translate(128.203125 39.046875)scale(0.7)" xlink:href="#DejaVuSans-48"/>
      </g>
     </g>
    </g>
    <g id="ytick_21">
     <g id="line2d_54">
      <g>
       <use style="stroke:#000000;stroke-width:0.8;" x="55.361818" xlink:href="#m4b528ffb0a" y="593.141672"/>
      </g>
     </g>
     <g id="text_53">
      <!-- $\mathdefault{10^{1}}$ -->
      <g transform="translate(30.761818 596.940891)scale(0.1 -0.1)">
       <use transform="translate(0 0.684375)" xlink:href="#DejaVuSans-49"/>
       <use transform="translate(63.623047 0.684375)" xlink:href="#DejaVuSans-48"/>
       <use transform="translate(128.203125 38.965625)scale(0.7)" xlink:href="#DejaVuSans-49"/>
      </g>
     </g>
    </g>
    <g id="ytick_22">
     <g id="line2d_55">
      <g>
       <use style="stroke:#000000;stroke-width:0.8;" x="55.361818" xlink:href="#m4b528ffb0a" y="552.981258"/>
      </g>
     </g>
     <g id="text_54">
      <!-- $\mathdefault{10^{2}}$ -->
      <g transform="translate(30.761818 556.780477)scale(0.1 -0.1)">
       <use transform="translate(0 0.765625)" xlink:href="#DejaVuSans-49"/>
       <use transform="translate(63.623047 0.765625)" xlink:href="#DejaVuSans-48"/>
       <use transform="translate(128.203125 39.046875)scale(0.7)" xlink:href="#DejaVuSans-50"/>
      </g>
     </g>
    </g>
    <g id="ytick_23">
     <g id="line2d_56">
      <g>
       <use style="stroke:#000000;stroke-width:0.8;" x="55.361818" xlink:href="#m4b528ffb0a" y="512.820844"/>
      </g>
     </g>
     <g id="text_55">
      <!-- $\mathdefault{10^{3}}$ -->
      <g transform="translate(30.761818 516.620063)scale(0.1 -0.1)">
       <use transform="translate(0 0.765625)" xlink:href="#DejaVuSans-49"/>
       <use transform="translate(63.623047 0.765625)" xlink:href="#DejaVuSans-48"/>
       <use transform="translate(128.203125 39.046875)scale(0.7)" xlink:href="#DejaVuSans-51"/>
      </g>
     </g>
    </g>
    <g id="ytick_24">
     <g id="line2d_57">
      <g>
       <use style="stroke:#000000;stroke-width:0.8;" x="55.361818" xlink:href="#m4b528ffb0a" y="472.66043"/>
      </g>
     </g>
     <g id="text_56">
      <!-- $\mathdefault{10^{4}}$ -->
      <g transform="translate(30.761818 476.459648)scale(0.1 -0.1)">
       <use transform="translate(0 0.684375)" xlink:href="#DejaVuSans-49"/>
       <use transform="translate(63.623047 0.684375)" xlink:href="#DejaVuSans-48"/>
       <use transform="translate(128.203125 38.965625)scale(0.7)" xlink:href="#DejaVuSans-52"/>
      </g>
     </g>
    </g>
    <g id="ytick_25">
     <g id="line2d_58">
      <g>
       <use style="stroke:#000000;stroke-width:0.8;" x="55.361818" xlink:href="#m4b528ffb0a" y="432.500015"/>
      </g>
     </g>
     <g id="text_57">
      <!-- $\mathdefault{10^{5}}$ -->
      <g transform="translate(30.761818 436.299234)scale(0.1 -0.1)">
       <use transform="translate(0 0.684375)" xlink:href="#DejaVuSans-49"/>
       <use transform="translate(63.623047 0.684375)" xlink:href="#DejaVuSans-48"/>
       <use transform="translate(128.203125 38.965625)scale(0.7)" xlink:href="#DejaVuSans-53"/>
      </g>
     </g>
    </g>
    <g id="ytick_26">
     <g id="line2d_59">
      <g>
       <use style="stroke:#000000;stroke-width:0.8;" x="55.361818" xlink:href="#m4b528ffb0a" y="392.339601"/>
      </g>
     </g>
     <g id="text_58">
      <!-- $\mathdefault{10^{6}}$ -->
      <g transform="translate(30.761818 396.13882)scale(0.1 -0.1)">
       <use transform="translate(0 0.765625)" xlink:href="#DejaVuSans-49"/>
       <use transform="translate(63.623047 0.765625)" xlink:href="#DejaVuSans-48"/>
       <use transform="translate(128.203125 39.046875)scale(0.7)" xlink:href="#DejaVuSans-54"/>
      </g>
     </g>
    </g>
   </g>
   <g id="line2d_60">
    <path clip-path="url(#pb59f30768b)" d="M 55.361818 526.652697 
L 55.362832 526.376432 
L 55.372974 526.38812 
L 55.436248 526.468604 
L 55.94333 527.129252 
L 56.450412 527.817753 
L 56.957494 528.534224 
L 57.464575 529.278955 
L 57.971657 530.052373 
L 58.478739 530.855046 
L 58.985821 531.687684 
L 59.492903 532.54645 
L 59.999984 533.416715 
L 60.507066 534.296544 
L 61.014148 535.185472 
L 61.52123 536.083057 
L 62.028312 536.988885 
L 62.535394 537.902563 
L 63.042475 538.823716 
L 63.549557 539.751991 
L 64.056639 540.68705 
L 64.563721 541.628575 
L 65.070803 542.576261 
L 65.577884 543.529819 
L 66.084966 544.488973 
L 66.592048 545.453461 
L 67.09913 546.423032 
L 67.606212 547.397449 
L 68.113294 548.376483 
L 68.620375 549.359918 
L 69.127457 550.347546 
L 69.634539 551.33917 
L 70.141621 552.334602 
L 70.648703 553.33366 
L 71.155784 554.336174 
L 71.662866 555.341979 
L 72.169948 556.350917 
L 72.67703 557.362839 
L 73.184112 558.377602 
L 73.691194 559.395069 
L 74.198275 560.415109 
L 74.705357 561.437598 
L 75.212439 562.462417 
L 75.719521 563.489451 
L 76.226603 564.518592 
L 76.733684 565.549737 
L 77.240766 566.582786 
L 77.747848 567.617646 
L 78.25493 568.654226 
L 78.762012 569.692439 
L 79.269094 570.732205 
L 79.776175 571.773444 
L 80.283257 572.816083 
L 80.790339 573.86005 
L 81.297421 574.905277 
L 81.804503 575.951701 
L 82.311584 576.999259 
L 82.818666 578.047893 
L 83.325748 579.097547 
L 83.83283 580.148169 
L 84.339912 581.199707 
L 84.846994 582.252114 
L 85.354075 583.305344 
L 85.861157 584.359353 
L 86.368239 585.414101 
L 86.875321 586.469548 
L 87.382403 587.525656 
L 87.889484 588.582391 
L 88.396566 589.639718 
L 88.903648 590.697606 
L 89.41073 591.756024 
L 89.917812 592.814943 
L 90.424894 593.874337 
L 90.931975 594.934179 
L 91.439057 595.994445 
L 91.946139 597.055111 
L 92.453221 598.116155 
L 92.960303 599.177556 
L 93.467384 600.239295 
L 93.974466 601.301352 
L 94.481548 602.36371 
L 94.98863 603.426351 
L 95.495712 604.489261 
L 96.002794 605.552423 
L 96.509875 606.615823 
L 97.016957 607.679448 
L 97.524039 608.743285 
L 98.031121 609.807321 
L 98.538203 610.871545 
L 99.045284 611.935947 
L 99.552366 613.000515 
L 100.059448 614.06524 
L 100.56653 615.130113 
L 101.073612 616.195125 
L 101.580694 617.260268 
L 102.087775 618.325533 
L 102.594857 619.390914 
L 103.101939 620.456402 
L 103.609021 621.997184 
L 104.116103 624.595536 
L 104.623184 627.040078 
L 105.130266 629.339891 
L 105.637348 631.503524 
L 106.14443 633.53902 
L 106.651512 635.453953 
L 107.158594 637.255448 
L 107.665675 638.950213 
L 108.172757 640.544559 
L 108.679839 642.044426 
L 109.186921 643.455405 
" style="fill:none;stroke:#ff0000;stroke-linecap:square;stroke-width:0.5;"/>
   </g>
   <g id="line2d_61">
    <path clip-path="url(#pb59f30768b)" d="M 55.361818 665.83528 
L 55.362832 566.536846 
L 55.372974 554.4532 
L 55.436248 547.410031 
L 55.94333 542.569248 
L 56.450412 538.916449 
L 56.957494 536.009687 
L 57.464575 533.61616 
L 57.971657 531.598012 
L 58.478739 529.866799 
L 58.985821 528.362351 
L 59.492903 527.041513 
L 59.999984 525.8715 
L 60.507066 524.827419 
L 61.014148 523.889982 
L 61.52123 523.04393 
L 62.028312 522.276979 
L 62.535394 521.579091 
L 63.042475 520.941955 
L 63.549557 520.358608 
L 64.056639 519.823159 
L 64.563721 519.330578 
L 65.070803 518.876536 
L 65.577884 518.457277 
L 66.084966 518.069526 
L 66.592048 517.710406 
L 67.09913 517.377377 
L 67.606212 517.068189 
L 68.113294 516.780834 
L 68.620375 516.513517 
L 69.127457 516.264627 
L 69.634539 516.032711 
L 70.141621 515.816456 
L 70.648703 515.614673 
L 71.155784 515.426281 
L 71.662866 515.250293 
L 72.169948 515.085809 
L 72.67703 514.932007 
L 73.184112 514.788131 
L 73.691194 514.653487 
L 74.198275 514.527438 
L 74.705357 514.409394 
L 75.212439 514.298814 
L 75.719521 514.195195 
L 76.226603 514.098074 
L 76.733684 514.007021 
L 77.240766 513.921638 
L 77.747848 513.841553 
L 78.25493 513.766425 
L 78.762012 513.695933 
L 79.269094 513.629781 
L 79.776175 513.56769 
L 80.283257 513.509404 
L 80.790339 513.454682 
L 81.297421 513.4033 
L 81.804503 513.355048 
L 82.311584 513.30973 
L 82.818666 513.267164 
L 83.325748 513.227179 
L 83.83283 513.189615 
L 84.339912 513.154322 
L 84.846994 513.121162 
L 85.354075 513.090001 
L 85.861157 513.060719 
L 86.368239 513.033201 
L 86.875321 513.007337 
L 87.382403 512.983028 
L 87.889484 512.96018 
L 88.396566 512.938702 
L 88.903648 512.918513 
L 89.41073 512.899533 
L 89.917812 512.881691 
L 90.424894 512.864917 
L 90.931975 512.849146 
L 91.439057 512.834318 
L 91.946139 512.820377 
L 92.453221 512.807269 
L 92.960303 512.794944 
L 93.467384 512.783354 
L 93.974466 512.772457 
L 94.481548 512.762209 
L 94.98863 512.752573 
L 95.495712 512.743511 
L 96.002794 512.734989 
L 96.509875 512.726976 
L 97.016957 512.719439 
L 97.524039 512.712352 
L 98.031121 512.705687 
L 98.538203 512.699418 
L 99.045284 512.693523 
L 99.552366 512.687978 
L 100.059448 512.682764 
L 100.56653 512.67786 
L 101.073612 512.673247 
L 101.580694 512.668909 
L 102.087775 512.664829 
L 102.594857 512.660992 
L 103.101939 512.657383 
L 103.609021 512.653988 
L 104.116103 512.650795 
L 104.623184 512.647792 
L 105.130266 512.644967 
L 105.637348 512.642311 
L 106.14443 512.639812 
L 106.651512 512.637462 
L 107.158594 512.635251 
L 107.665675 512.633172 
L 108.172757 512.631216 
L 108.679839 512.629376 
L 109.186921 512.627646 
" style="fill:none;stroke:#008000;stroke-linecap:square;stroke-width:0.5;"/>
   </g>
   <g id="patch_15">
    <path d="M 55.361818 665.83528 
L 55.361818 366.01104 
" style="fill:none;stroke:#000000;stroke-linecap:square;stroke-linejoin:miter;stroke-width:0.8;"/>
   </g>
   <g id="patch_16">
    <path d="M 359.610909 665.83528 
L 359.610909 366.01104 
" style="fill:none;stroke:#000000;stroke-linecap:square;stroke-linejoin:miter;stroke-width:0.8;"/>
   </g>
   <g id="patch_17">
    <path d="M 55.361818 665.83528 
L 359.610909 665.83528 
" style="fill:none;stroke:#000000;stroke-linecap:square;stroke-linejoin:miter;stroke-width:0.8;"/>
   </g>
   <g id="patch_18">
    <path d="M 55.361818 366.01104 
L 359.610909 366.01104 
" style="fill:none;stroke:#000000;stroke-linecap:square;stroke-linejoin:miter;stroke-width:0.8;"/>
   </g>
   <g id="legend_2">
    <g id="patch_19">
     <path d="M 254.510909 407.589165 
L 352.610909 407.589165 
Q 354.610909 407.589165 354.610909 405.589165 
L 354.610909 373.01104 
Q 354.610909 371.01104 352.610909 371.01104 
L 254.510909 371.01104 
Q 252.510909 371.01104 252.510909 373.01104 
L 252.510909 405.589165 
Q 252.510909 407.589165 254.510909 407.589165 
z
" style="fill:#ffffff;opacity:0.8;stroke:#cccccc;stroke-linejoin:miter;"/>
    </g>
    <g id="line2d_62">
     <path d="M 256.510909 379.109478 
L 276.510909 379.109478 
" style="fill:none;stroke:#ff0000;stroke-linecap:square;stroke-width:0.5;"/>
    </g>
    <g id="line2d_63"/>
    <g id="text_59">
     <!-- Run. obj. -->
     <defs>
      <path d="M 44.390625 34.1875 
Q 47.5625 33.109375 50.5625 29.59375 
Q 53.5625 26.078125 56.59375 19.921875 
L 66.609375 0 
L 56 0 
L 46.6875 18.703125 
Q 43.0625 26.03125 39.671875 28.421875 
Q 36.28125 30.8125 30.421875 30.8125 
L 19.671875 30.8125 
L 19.671875 0 
L 9.8125 0 
L 9.8125 72.90625 
L 32.078125 72.90625 
Q 44.578125 72.90625 50.734375 67.671875 
Q 56.890625 62.453125 56.890625 51.90625 
Q 56.890625 45.015625 53.6875 40.46875 
Q 50.484375 35.9375 44.390625 34.1875 
z
M 19.671875 64.796875 
L 19.671875 38.921875 
L 32.078125 38.921875 
Q 39.203125 38.921875 42.84375 42.21875 
Q 46.484375 45.515625 46.484375 51.90625 
Q 46.484375 58.296875 42.84375 61.546875 
Q 39.203125 64.796875 32.078125 64.796875 
z
" id="DejaVuSans-82"/>
      <path d="M 54.890625 33.015625 
L 54.890625 0 
L 45.90625 0 
L 45.90625 32.71875 
Q 45.90625 40.484375 42.875 44.328125 
Q 39.84375 48.1875 33.796875 48.1875 
Q 26.515625 48.1875 22.3125 43.546875 
Q 18.109375 38.921875 18.109375 30.90625 
L 18.109375 0 
L 9.078125 0 
L 9.078125 54.6875 
L 18.109375 54.6875 
L 18.109375 46.1875 
Q 21.34375 51.125 25.703125 53.5625 
Q 30.078125 56 35.796875 56 
Q 45.21875 56 50.046875 50.171875 
Q 54.890625 44.34375 54.890625 33.015625 
z
" id="DejaVuSans-110"/>
      <path d="M 48.6875 27.296875 
Q 48.6875 37.203125 44.609375 42.84375 
Q 40.53125 48.484375 33.40625 48.484375 
Q 26.265625 48.484375 22.1875 42.84375 
Q 18.109375 37.203125 18.109375 27.296875 
Q 18.109375 17.390625 22.1875 11.75 
Q 26.265625 6.109375 33.40625 6.109375 
Q 40.53125 6.109375 44.609375 11.75 
Q 48.6875 17.390625 48.6875 27.296875 
z
M 18.109375 46.390625 
Q 20.953125 51.265625 25.265625 53.625 
Q 29.59375 56 35.59375 56 
Q 45.5625 56 51.78125 48.09375 
Q 58.015625 40.1875 58.015625 27.296875 
Q 58.015625 14.40625 51.78125 6.484375 
Q 45.5625 -1.421875 35.59375 -1.421875 
Q 29.59375 -1.421875 25.265625 0.953125 
Q 20.953125 3.328125 18.109375 8.203125 
L 18.109375 0 
L 9.078125 0 
L 9.078125 75.984375 
L 18.109375 75.984375 
z
" id="DejaVuSans-98"/>
      <path d="M 9.421875 54.6875 
L 18.40625 54.6875 
L 18.40625 -0.984375 
Q 18.40625 -11.421875 14.421875 -16.109375 
Q 10.453125 -20.796875 1.609375 -20.796875 
L -1.8125 -20.796875 
L -1.8125 -13.1875 
L 0.59375 -13.1875 
Q 5.71875 -13.1875 7.5625 -10.8125 
Q 9.421875 -8.453125 9.421875 -0.984375 
z
M 9.421875 75.984375 
L 18.40625 75.984375 
L 18.40625 64.59375 
L 9.421875 64.59375 
z
" id="DejaVuSans-106"/>
     </defs>
     <g transform="translate(284.510909 382.609478)scale(0.1 -0.1)">
      <use xlink:href="#DejaVuSans-82"/>
      <use x="69.419922" xlink:href="#DejaVuSans-117"/>
      <use x="132.798828" xlink:href="#DejaVuSans-110"/>
      <use x="196.177734" xlink:href="#DejaVuSans-46"/>
      <use x="227.964844" xlink:href="#DejaVuSans-32"/>
      <use x="259.751953" xlink:href="#DejaVuSans-111"/>
      <use x="320.933594" xlink:href="#DejaVuSans-98"/>
      <use x="384.410156" xlink:href="#DejaVuSans-106"/>
      <use x="412.193359" xlink:href="#DejaVuSans-46"/>
     </g>
    </g>
    <g id="line2d_64">
     <path d="M 256.510909 396.989165 
L 276.510909 396.989165 
" style="fill:none;stroke:#008000;stroke-linecap:square;stroke-width:0.5;"/>
    </g>
    <g id="line2d_65"/>
    <g id="text_60">
     <!-- $\int \mathrm{Run.\,obj.} \,\mathrm{d}t$ -->
     <defs>
      <path d="M 33.34375 86.328125 
Q 33.9375 97.859375 39.5 102.4375 
Q 45.0625 107.03125 50.28125 107.03125 
Q 55.515625 107.03125 59.890625 102.734375 
Q 64.265625 98.4375 65.625 88.71875 
L 55.375 87.703125 
Q 54.203125 96.6875 50.296875 96.6875 
Q 45.40625 96.6875 44.828125 84.578125 
L 40.328125 -9.328125 
Q 39.796875 -20.84375 34.171875 -25.4375 
Q 28.5625 -30.03125 23.390625 -30.03125 
Q 18.171875 -30.03125 13.796875 -25.734375 
Q 9.421875 -21.4375 8.0625 -11.71875 
L 18.3125 -10.6875 
Q 19.484375 -19.671875 23.390625 -19.671875 
Q 28.265625 -19.671875 28.859375 -7.625 
z
" id="DejaVuSansDisplay-8747"/>
      <path d="M 42.28125 54.6875 
L 40.921875 47.703125 
L 23 47.703125 
L 17.1875 18.015625 
Q 16.890625 16.359375 16.75 15.234375 
Q 16.609375 14.109375 16.609375 13.484375 
Q 16.609375 10.359375 18.484375 8.9375 
Q 20.359375 7.515625 24.515625 7.515625 
L 33.59375 7.515625 
L 32.078125 0 
L 23.484375 0 
Q 15.484375 0 11.546875 3.125 
Q 7.625 6.25 7.625 12.59375 
Q 7.625 13.71875 7.765625 15.0625 
Q 7.90625 16.40625 8.203125 18.015625 
L 14.015625 47.703125 
L 6.390625 47.703125 
L 7.8125 54.6875 
L 15.28125 54.6875 
L 18.3125 70.21875 
L 27.296875 70.21875 
L 24.3125 54.6875 
z
" id="DejaVuSans-Oblique-116"/>
     </defs>
     <g transform="translate(284.510909 400.489165)scale(0.1 -0.1)">
      <use transform="translate(0 0.96875)" xlink:href="#DejaVuSansDisplay-8747"/>
      <use transform="translate(73.632812 0.96875)" xlink:href="#DejaVuSans-82"/>
      <use transform="translate(143.115234 0.96875)" xlink:href="#DejaVuSans-117"/>
      <use transform="translate(206.494141 0.96875)" xlink:href="#DejaVuSans-110"/>
      <use transform="translate(269.873047 0.96875)" xlink:href="#DejaVuSans-46"/>
      <use transform="translate(337.378254 0.96875)" xlink:href="#DejaVuSans-111"/>
      <use transform="translate(398.559895 0.96875)" xlink:href="#DejaVuSans-98"/>
      <use transform="translate(462.036458 0.96875)" xlink:href="#DejaVuSans-106"/>
      <use transform="translate(489.819661 0.96875)" xlink:href="#DejaVuSans-46"/>
      <use transform="translate(557.324868 0.96875)" xlink:href="#DejaVuSans-100"/>
      <use transform="translate(620.801431 0.96875)" xlink:href="#DejaVuSans-Oblique-116"/>
     </g>
    </g>
   </g>
  </g>
  <g id="axes_4">
   <g id="patch_20">
    <path d="M 398.560909 665.83528 
L 702.81 665.83528 
L 702.81 366.01104 
L 398.560909 366.01104 
z
" style="fill:#ffffff;"/>
   </g>
   <g id="matplotlib.axis_7">
    <g id="xtick_24">
     <g id="line2d_66">
      <g>
       <use style="stroke:#000000;stroke-width:0.8;" x="398.560909" xlink:href="#mc13c641c0c" y="665.83528"/>
      </g>
     </g>
     <g id="text_61">
      <!-- 0 -->
      <g transform="translate(395.379659 680.433718)scale(0.1 -0.1)">
       <use xlink:href="#DejaVuSans-48"/>
      </g>
     </g>
    </g>
    <g id="xtick_25">
     <g id="line2d_67">
      <g>
       <use style="stroke:#000000;stroke-width:0.8;" x="449.269091" xlink:href="#mc13c641c0c" y="665.83528"/>
      </g>
     </g>
     <g id="text_62">
      <!-- 5 -->
      <g transform="translate(446.087841 680.433718)scale(0.1 -0.1)">
       <use xlink:href="#DejaVuSans-53"/>
      </g>
     </g>
    </g>
    <g id="xtick_26">
     <g id="line2d_68">
      <g>
       <use style="stroke:#000000;stroke-width:0.8;" x="499.977273" xlink:href="#mc13c641c0c" y="665.83528"/>
      </g>
     </g>
     <g id="text_63">
      <!-- 10 -->
      <g transform="translate(493.614773 680.433718)scale(0.1 -0.1)">
       <use xlink:href="#DejaVuSans-49"/>
       <use x="63.623047" xlink:href="#DejaVuSans-48"/>
      </g>
     </g>
    </g>
    <g id="xtick_27">
     <g id="line2d_69">
      <g>
       <use style="stroke:#000000;stroke-width:0.8;" x="550.685455" xlink:href="#mc13c641c0c" y="665.83528"/>
      </g>
     </g>
     <g id="text_64">
      <!-- 15 -->
      <g transform="translate(544.322955 680.433718)scale(0.1 -0.1)">
       <use xlink:href="#DejaVuSans-49"/>
       <use x="63.623047" xlink:href="#DejaVuSans-53"/>
      </g>
     </g>
    </g>
    <g id="xtick_28">
     <g id="line2d_70">
      <g>
       <use style="stroke:#000000;stroke-width:0.8;" x="601.393636" xlink:href="#mc13c641c0c" y="665.83528"/>
      </g>
     </g>
     <g id="text_65">
      <!-- 20 -->
      <g transform="translate(595.031136 680.433718)scale(0.1 -0.1)">
       <use xlink:href="#DejaVuSans-50"/>
       <use x="63.623047" xlink:href="#DejaVuSans-48"/>
      </g>
     </g>
    </g>
    <g id="xtick_29">
     <g id="line2d_71">
      <g>
       <use style="stroke:#000000;stroke-width:0.8;" x="652.101818" xlink:href="#mc13c641c0c" y="665.83528"/>
      </g>
     </g>
     <g id="text_66">
      <!-- 25 -->
      <g transform="translate(645.739318 680.433718)scale(0.1 -0.1)">
       <use xlink:href="#DejaVuSans-50"/>
       <use x="63.623047" xlink:href="#DejaVuSans-53"/>
      </g>
     </g>
    </g>
    <g id="xtick_30">
     <g id="line2d_72">
      <g>
       <use style="stroke:#000000;stroke-width:0.8;" x="702.81" xlink:href="#mc13c641c0c" y="665.83528"/>
      </g>
     </g>
     <g id="text_67">
      <!-- 30 -->
      <g transform="translate(696.4475 680.433718)scale(0.1 -0.1)">
       <use xlink:href="#DejaVuSans-51"/>
       <use x="63.623047" xlink:href="#DejaVuSans-48"/>
      </g>
     </g>
    </g>
    <g id="text_68">
     <!-- t [s] -->
     <g transform="translate(540.629986 694.111843)scale(0.1 -0.1)">
      <use xlink:href="#DejaVuSans-116"/>
      <use x="39.208984" xlink:href="#DejaVuSans-32"/>
      <use x="70.996094" xlink:href="#DejaVuSans-91"/>
      <use x="110.009766" xlink:href="#DejaVuSans-115"/>
      <use x="162.109375" xlink:href="#DejaVuSans-93"/>
     </g>
    </g>
   </g>
   <g id="matplotlib.axis_8">
    <g id="ytick_27">
     <g id="line2d_73">
      <g>
       <use style="stroke:#000000;stroke-width:0.8;" x="398.560909" xlink:href="#m4b528ffb0a" y="659.884863"/>
      </g>
     </g>
     <g id="text_69">
      <!-- −3 -->
      <g transform="translate(376.818722 663.684082)scale(0.1 -0.1)">
       <use xlink:href="#DejaVuSans-8722"/>
       <use x="83.789062" xlink:href="#DejaVuSans-51"/>
      </g>
     </g>
    </g>
    <g id="ytick_28">
     <g id="line2d_74">
      <g>
       <use style="stroke:#000000;stroke-width:0.8;" x="398.560909" xlink:href="#m4b528ffb0a" y="611.897629"/>
      </g>
     </g>
     <g id="text_70">
      <!-- −2 -->
      <g transform="translate(376.818722 615.696847)scale(0.1 -0.1)">
       <use xlink:href="#DejaVuSans-8722"/>
       <use x="83.789062" xlink:href="#DejaVuSans-50"/>
      </g>
     </g>
    </g>
    <g id="ytick_29">
     <g id="line2d_75">
      <g>
       <use style="stroke:#000000;stroke-width:0.8;" x="398.560909" xlink:href="#m4b528ffb0a" y="563.910394"/>
      </g>
     </g>
     <g id="text_71">
      <!-- −1 -->
      <g transform="translate(376.818722 567.709613)scale(0.1 -0.1)">
       <use xlink:href="#DejaVuSans-8722"/>
       <use x="83.789062" xlink:href="#DejaVuSans-49"/>
      </g>
     </g>
    </g>
    <g id="ytick_30">
     <g id="line2d_76">
      <g>
       <use style="stroke:#000000;stroke-width:0.8;" x="398.560909" xlink:href="#m4b528ffb0a" y="515.92316"/>
      </g>
     </g>
     <g id="text_72">
      <!-- 0 -->
      <g transform="translate(385.198409 519.722379)scale(0.1 -0.1)">
       <use xlink:href="#DejaVuSans-48"/>
      </g>
     </g>
    </g>
    <g id="ytick_31">
     <g id="line2d_77">
      <g>
       <use style="stroke:#000000;stroke-width:0.8;" x="398.560909" xlink:href="#m4b528ffb0a" y="467.935926"/>
      </g>
     </g>
     <g id="text_73">
      <!-- 1 -->
      <g transform="translate(385.198409 471.735144)scale(0.1 -0.1)">
       <use xlink:href="#DejaVuSans-49"/>
      </g>
     </g>
    </g>
    <g id="ytick_32">
     <g id="line2d_78">
      <g>
       <use style="stroke:#000000;stroke-width:0.8;" x="398.560909" xlink:href="#m4b528ffb0a" y="419.948691"/>
      </g>
     </g>
     <g id="text_74">
      <!-- 2 -->
      <g transform="translate(385.198409 423.74791)scale(0.1 -0.1)">
       <use xlink:href="#DejaVuSans-50"/>
      </g>
     </g>
    </g>
    <g id="ytick_33">
     <g id="line2d_79">
      <g>
       <use style="stroke:#000000;stroke-width:0.8;" x="398.560909" xlink:href="#m4b528ffb0a" y="371.961457"/>
      </g>
     </g>
     <g id="text_75">
      <!-- 3 -->
      <g transform="translate(385.198409 375.760676)scale(0.1 -0.1)">
       <use xlink:href="#DejaVuSans-51"/>
      </g>
     </g>
    </g>
   </g>
   <g id="line2d_80">
    <path clip-path="url(#p0347fb009d)" d="M 398.560909 515.92316 
L 702.81 515.92316 
" style="fill:none;stroke:#000000;stroke-dasharray:2.775,1.2;stroke-dashoffset:0;stroke-width:0.75;"/>
   </g>
   <g id="line2d_81">
    <path clip-path="url(#p0347fb009d)" d="M 398.560909 515.92316 
L 398.561923 393.767604 
L 398.572065 393.808354 
L 398.635339 394.088582 
L 399.142421 396.365078 
L 399.649503 398.693911 
L 400.156584 401.070734 
L 400.663666 403.491604 
L 401.170748 405.95295 
L 401.67783 408.451541 
L 402.184912 410.984442 
L 402.691994 413.535083 
L 403.199075 416.056892 
L 403.706157 418.543464 
L 404.213239 420.993033 
L 404.720321 423.404085 
L 405.227403 425.775323 
L 405.734484 428.105654 
L 406.241566 430.39417 
L 406.748648 432.640133 
L 407.25573 434.842962 
L 407.762812 437.002217 
L 408.269894 439.117589 
L 408.776975 441.18889 
L 409.284057 443.216036 
L 409.791139 445.199044 
L 410.298221 447.138021 
L 410.805303 449.033153 
L 411.312384 450.884699 
L 411.819466 452.692985 
L 412.326548 454.458394 
L 412.83363 456.181362 
L 413.340712 457.862374 
L 413.847794 459.501952 
L 414.354875 461.100658 
L 414.861957 462.659085 
L 415.369039 464.177853 
L 415.876121 465.657607 
L 416.383203 467.09901 
L 416.890284 468.502743 
L 417.397366 469.869503 
L 417.904448 471.199995 
L 418.41153 472.494934 
L 418.918612 473.75504 
L 419.425694 474.98104 
L 419.932775 476.17366 
L 420.439857 477.333629 
L 420.946939 478.461673 
L 421.454021 479.558515 
L 421.961103 480.624878 
L 422.468184 481.661475 
L 422.975266 482.669015 
L 423.482348 483.648202 
L 423.98943 484.599729 
L 424.496512 485.524282 
L 425.003594 486.422537 
L 425.510675 487.295162 
L 426.017757 488.142812 
L 426.524839 488.966133 
L 427.031921 489.76576 
L 427.539003 490.542316 
L 428.046084 491.296413 
L 428.553166 492.028651 
L 429.060248 492.739617 
L 429.56733 493.429888 
L 430.074412 494.100027 
L 430.581494 494.750587 
L 431.088575 495.382105 
L 431.595657 495.99511 
L 432.102739 496.590118 
L 432.609821 497.16763 
L 433.116903 497.728138 
L 433.623984 498.272122 
L 434.131066 498.800049 
L 434.638148 499.312375 
L 435.14523 499.809545 
L 435.652312 500.291992 
L 436.159394 500.760138 
L 436.666475 501.214395 
L 437.173557 501.655163 
L 437.680639 502.082832 
L 438.187721 502.497782 
L 438.694803 502.900382 
L 439.201884 503.290991 
L 439.708966 503.66996 
L 440.216048 504.037628 
L 440.72313 504.394326 
L 441.230212 504.740377 
L 441.737294 505.076091 
L 442.244375 505.401775 
L 442.751457 505.717722 
L 443.258539 506.024221 
L 443.765621 506.32155 
L 444.272703 506.60998 
L 444.779784 506.889774 
L 445.286866 507.16119 
L 445.793948 507.424474 
L 446.30103 507.679868 
L 446.808112 507.927608 
L 447.315194 508.16792 
L 447.822275 508.401025 
L 448.329357 508.627138 
L 448.836439 508.846467 
L 449.343521 509.059215 
L 449.850603 509.265578 
L 450.357684 509.465747 
L 450.864766 509.659906 
L 451.371848 509.848235 
L 451.87893 510.030908 
L 452.386012 510.208095 
" style="fill:none;stroke:#1f77b4;stroke-linecap:square;stroke-width:0.5;"/>
   </g>
   <g id="line2d_82">
    <path clip-path="url(#p0347fb009d)" d="M 398.560909 515.92316 
L 398.561923 557.31237 
L 398.572065 557.284605 
L 398.635339 557.094158 
L 399.142421 555.575622 
L 399.649503 554.169283 
L 400.156584 552.879486 
L 400.663666 551.698477 
L 401.170748 550.619157 
L 401.67783 549.635129 
L 402.184912 548.74065 
L 402.691994 547.918589 
L 403.199075 547.127041 
L 403.706157 546.359998 
L 404.213239 545.61596 
L 404.720321 544.893601 
L 405.227403 544.191712 
L 405.734484 543.509191 
L 406.241566 542.845026 
L 406.748648 542.198293 
L 407.25573 541.568147 
L 407.762812 540.953812 
L 408.269894 540.354575 
L 408.776975 539.769784 
L 409.284057 539.198838 
L 409.791139 538.641184 
L 410.298221 538.096313 
L 410.805303 537.563755 
L 411.312384 537.043078 
L 411.819466 536.533882 
L 412.326548 536.035794 
L 412.83363 535.548472 
L 413.340712 535.071597 
L 413.847794 534.604871 
L 414.354875 534.148018 
L 414.861957 533.700781 
L 415.369039 533.262917 
L 415.876121 532.8342 
L 416.383203 532.414417 
L 416.890284 532.003369 
L 417.397366 531.600865 
L 417.904448 531.206728 
L 418.41153 530.820787 
L 418.918612 530.44288 
L 419.425694 530.072854 
L 419.932775 529.710562 
L 420.439857 529.355861 
L 420.946939 529.008617 
L 421.454021 528.668698 
L 421.961103 528.335978 
L 422.468184 528.010335 
L 422.975266 527.691649 
L 423.482348 527.379805 
L 423.98943 527.07469 
L 424.496512 526.776194 
L 425.003594 526.484209 
L 425.510675 526.198629 
L 426.017757 525.91935 
L 426.524839 525.646271 
L 427.031921 525.37929 
L 427.539003 525.118308 
L 428.046084 524.863228 
L 428.553166 524.613952 
L 429.060248 524.370386 
L 429.56733 524.132434 
L 430.074412 523.900002 
L 430.581494 523.672999 
L 431.088575 523.451331 
L 431.595657 523.234908 
L 432.102739 523.023639 
L 432.609821 522.817435 
L 433.116903 522.616206 
L 433.623984 522.419864 
L 434.131066 522.228323 
L 434.638148 522.041494 
L 435.14523 521.859292 
L 435.652312 521.681631 
L 436.159394 521.508426 
L 436.666475 521.339594 
L 437.173557 521.17505 
L 437.680639 521.014714 
L 438.187721 520.858501 
L 438.694803 520.706333 
L 439.201884 520.558127 
L 439.708966 520.413805 
L 440.216048 520.273288 
L 440.72313 520.136498 
L 441.230212 520.003358 
L 441.737294 519.873792 
L 442.244375 519.747724 
L 442.751457 519.625081 
L 443.258539 519.505787 
L 443.765621 519.389772 
L 444.272703 519.276962 
L 444.779784 519.167288 
L 445.286866 519.060679 
L 445.793948 518.957066 
L 446.30103 518.856382 
L 446.808112 518.75856 
L 447.315194 518.663533 
L 447.822275 518.571236 
L 448.329357 518.481606 
L 448.836439 518.394579 
L 449.343521 518.310094 
L 449.850603 518.228089 
L 450.357684 518.148504 
L 450.864766 518.07128 
L 451.371848 517.99636 
L 451.87893 517.923686 
L 452.386012 517.853203 
" style="fill:none;stroke:#ff7f0e;stroke-linecap:square;stroke-width:0.5;"/>
   </g>
   <g id="patch_21">
    <path d="M 398.560909 665.83528 
L 398.560909 366.01104 
" style="fill:none;stroke:#000000;stroke-linecap:square;stroke-linejoin:miter;stroke-width:0.8;"/>
   </g>
   <g id="patch_22">
    <path d="M 702.81 665.83528 
L 702.81 366.01104 
" style="fill:none;stroke:#000000;stroke-linecap:square;stroke-linejoin:miter;stroke-width:0.8;"/>
   </g>
   <g id="patch_23">
    <path d="M 398.560909 665.83528 
L 702.81 665.83528 
" style="fill:none;stroke:#000000;stroke-linecap:square;stroke-linejoin:miter;stroke-width:0.8;"/>
   </g>
   <g id="patch_24">
    <path d="M 398.560909 366.01104 
L 702.81 366.01104 
" style="fill:none;stroke:#000000;stroke-linecap:square;stroke-linejoin:miter;stroke-width:0.8;"/>
   </g>
   <g id="legend_3">
    <g id="patch_25">
     <path d="M 619.21 403.36729 
L 695.81 403.36729 
Q 697.81 403.36729 697.81 401.36729 
L 697.81 373.01104 
Q 697.81 371.01104 695.81 371.01104 
L 619.21 371.01104 
Q 617.21 371.01104 617.21 373.01104 
L 617.21 401.36729 
Q 617.21 403.36729 619.21 403.36729 
z
" style="fill:#ffffff;opacity:0.8;stroke:#cccccc;stroke-linejoin:miter;"/>
    </g>
    <g id="line2d_83">
     <path d="M 621.21 379.109478 
L 641.21 379.109478 
" style="fill:none;stroke:#1f77b4;stroke-linecap:square;stroke-width:0.5;"/>
    </g>
    <g id="line2d_84"/>
    <g id="text_76">
     <!-- v [m/s] -->
     <defs>
      <path d="M 2.984375 54.6875 
L 12.5 54.6875 
L 29.59375 8.796875 
L 46.6875 54.6875 
L 56.203125 54.6875 
L 35.6875 0 
L 23.484375 0 
z
" id="DejaVuSans-118"/>
      <path d="M 25.390625 72.90625 
L 33.6875 72.90625 
L 8.296875 -9.28125 
L 0 -9.28125 
z
" id="DejaVuSans-47"/>
     </defs>
     <g transform="translate(649.21 382.609478)scale(0.1 -0.1)">
      <use xlink:href="#DejaVuSans-118"/>
      <use x="59.179688" xlink:href="#DejaVuSans-32"/>
      <use x="90.966797" xlink:href="#DejaVuSans-91"/>
      <use x="129.980469" xlink:href="#DejaVuSans-109"/>
      <use x="227.392578" xlink:href="#DejaVuSans-47"/>
      <use x="261.083984" xlink:href="#DejaVuSans-115"/>
      <use x="313.183594" xlink:href="#DejaVuSans-93"/>
     </g>
    </g>
    <g id="line2d_85">
     <path d="M 621.21 393.787603 
L 641.21 393.787603 
" style="fill:none;stroke:#ff7f0e;stroke-linecap:square;stroke-width:0.5;"/>
    </g>
    <g id="line2d_86"/>
    <g id="text_77">
     <!-- $\omega$ [rad/s] -->
     <defs>
      <path d="M 21.390625 -1.421875 
Q 1.125 -1.421875 6.78125 27.59375 
Q 8.984375 39.0625 19.625 54.6875 
L 29.296875 54.6875 
Q 19.234375 39.0625 17 27.34375 
Q 12.796875 6.203125 23.734375 6.203125 
Q 33.84375 6.203125 38.71875 32.46875 
L 47.015625 32.46875 
Q 41.703125 6.0625 51.8125 6.203125 
Q 62.703125 6.296875 66.796875 27.34375 
Q 69.046875 39.0625 65.140625 54.6875 
L 74.8125 54.6875 
Q 79.296875 39.0625 77.09375 27.59375 
Q 71.53125 -1.46875 51.21875 -1.421875 
Q 37.9375 -1.375 39.109375 13.1875 
Q 34.28125 -1.421875 21.390625 -1.421875 
z
" id="DejaVuSans-Oblique-969"/>
     </defs>
     <g transform="translate(649.21 397.287603)scale(0.1 -0.1)">
      <use transform="translate(0 0.015625)" xlink:href="#DejaVuSans-Oblique-969"/>
      <use transform="translate(83.740234 0.015625)" xlink:href="#DejaVuSans-32"/>
      <use transform="translate(115.527344 0.015625)" xlink:href="#DejaVuSans-91"/>
      <use transform="translate(154.541016 0.015625)" xlink:href="#DejaVuSans-114"/>
      <use transform="translate(195.654297 0.015625)" xlink:href="#DejaVuSans-97"/>
      <use transform="translate(256.933594 0.015625)" xlink:href="#DejaVuSans-100"/>
      <use transform="translate(320.410156 0.015625)" xlink:href="#DejaVuSans-47"/>
      <use transform="translate(354.101562 0.015625)" xlink:href="#DejaVuSans-115"/>
      <use transform="translate(406.201172 0.015625)" xlink:href="#DejaVuSans-93"/>
     </g>
    </g>
   </g>
  </g>
  <g id="text_78">
   <!-- $\int \mathrm{Run.\,obj.} \,\mathrm{d}t$ = 1011.1 -->
   <g transform="translate(36 357.37)scale(0.1 -0.1)">
    <use transform="translate(0 0.96875)" xlink:href="#DejaVuSansDisplay-8747"/>
    <use transform="translate(73.632812 0.96875)" xlink:href="#DejaVuSans-82"/>
    <use transform="translate(143.115234 0.96875)" xlink:href="#DejaVuSans-117"/>
    <use transform="translate(206.494141 0.96875)" xlink:href="#DejaVuSans-110"/>
    <use transform="translate(269.873047 0.96875)" xlink:href="#DejaVuSans-46"/>
    <use transform="translate(337.378254 0.96875)" xlink:href="#DejaVuSans-111"/>
    <use transform="translate(398.559895 0.96875)" xlink:href="#DejaVuSans-98"/>
    <use transform="translate(462.036458 0.96875)" xlink:href="#DejaVuSans-106"/>
    <use transform="translate(489.819661 0.96875)" xlink:href="#DejaVuSans-46"/>
    <use transform="translate(557.324868 0.96875)" xlink:href="#DejaVuSans-100"/>
    <use transform="translate(620.801431 0.96875)" xlink:href="#DejaVuSans-Oblique-116"/>
    <use transform="translate(660.010415 0.96875)" xlink:href="#DejaVuSans-32"/>
    <use transform="translate(691.797524 0.96875)" xlink:href="#DejaVuSans-61"/>
    <use transform="translate(775.586587 0.96875)" xlink:href="#DejaVuSans-32"/>
    <use transform="translate(807.373696 0.96875)" xlink:href="#DejaVuSans-49"/>
    <use transform="translate(870.996743 0.96875)" xlink:href="#DejaVuSans-48"/>
    <use transform="translate(934.61979 0.96875)" xlink:href="#DejaVuSans-49"/>
    <use transform="translate(998.242837 0.96875)" xlink:href="#DejaVuSans-49"/>
    <use transform="translate(1061.865884 0.96875)" xlink:href="#DejaVuSans-46"/>
    <use transform="translate(1093.652993 0.96875)" xlink:href="#DejaVuSans-49"/>
   </g>
  </g>
 </g>
 <defs>
  <clipPath id="p148c8689a1">
   <rect height="299.82424" width="299.82424" x="57.574244" y="24.98208"/>
  </clipPath>
  <clipPath id="pcfae86db71">
   <rect height="299.82424" width="304.249091" x="398.560909" y="24.98208"/>
  </clipPath>
  <clipPath id="pb59f30768b">
   <rect height="299.82424" width="304.249091" x="55.361818" y="366.01104"/>
  </clipPath>
  <clipPath id="p0347fb009d">
   <rect height="299.82424" width="304.249091" x="398.560909" y="366.01104"/>
  </clipPath>
 </defs>
</svg>
